<?xml version="1.0" encoding="UTF-8" standalone="no"?>
<!-- Created with Inkscape (http://www.inkscape.org/) -->

<svg
   xmlns:dc="http://purl.org/dc/elements/1.1/"
   xmlns:cc="http://creativecommons.org/ns#"
   xmlns:rdf="http://www.w3.org/1999/02/22-rdf-syntax-ns#"
   xmlns:svg="http://www.w3.org/2000/svg"
   xmlns="http://www.w3.org/2000/svg"
   xmlns:sodipodi="http://sodipodi.sourceforge.net/DTD/sodipodi-0.dtd"
   xmlns:inkscape="http://www.inkscape.org/namespaces/inkscape"
   width="689.07666"
   height="537.34052"
   id="svg2"
   version="1.1"
   inkscape:version="0.48.2 r9819"
   sodipodi:docname="New document 1">
  <defs
     id="defs4" />
  <sodipodi:namedview
     id="base"
     pagecolor="#ffffff"
     bordercolor="#666666"
     borderopacity="1.0"
     inkscape:pageopacity="0.0"
     inkscape:pageshadow="2"
     inkscape:zoom="0.37303023"
     inkscape:cx="586.41507"
     inkscape:cy="202.05884"
     inkscape:document-units="px"
     inkscape:current-layer="layer1"
     showgrid="false"
     fit-margin-top="0"
     fit-margin-left="0"
     fit-margin-right="0"
     fit-margin-bottom="0"
     inkscape:window-width="1024"
     inkscape:window-height="708"
     inkscape:window-x="-4"
     inkscape:window-y="-4"
     inkscape:window-maximized="1" />
  <metadata
     id="metadata7">
    <rdf:RDF>
      <cc:Work
         rdf:about="">
        <dc:format>image/svg+xml</dc:format>
        <dc:type
           rdf:resource="http://purl.org/dc/dcmitype/StillImage" />
        <dc:title></dc:title>
      </cc:Work>
    </rdf:RDF>
  </metadata>
  <g
     inkscape:label="Layer 1"
     inkscape:groupmode="layer"
     id="layer1"
     transform="translate(65.906352,-427.60608)">
    <path
       style="opacity:0.95964128;fill:#112b00;fill-opacity:0.95187163;fill-rule:evenodd;stroke:#c32213;stroke-width:0;stroke-miterlimit:4;stroke-opacity:0.88770058;stroke-dasharray:none;stroke-dashoffset:2"
       d="m 398.07075,718.74098 1.89558,-21.79911 c 127.657,-80.3103 157.11988,-67.88172 223.20395,-90.03981 -76.7872,26.17081 -152.09919,61.68465 -225.09953,111.83892 z"
       id="path3860"
       inkscape:connector-curvature="0"
       sodipodi:nodetypes="cccc" />
    <path
       style="opacity:0.95964128;fill:#445016;fill-opacity:1;fill-rule:evenodd;stroke:#c32213;stroke-width:0;stroke-miterlimit:4;stroke-opacity:0.88770058;stroke-dasharray:none;stroke-dashoffset:2"
       d="m -56.563016,721.55424 c -13.545932,75.10351 20.731925,92.81847 51.4209236,114.84006 71.4771204,28.29169 134.6172224,14.89829 197.1135424,-1.71403 73.66935,-9.05981 146.98079,12.62467 238.25028,-15.42627 21.93964,-34.85196 28.58318,-69.70392 -8.57016,-104.55588 L 392.51305,687.27363 C 242.82103,698.7005 93.129006,653.44436 -56.563016,721.55424 z"
       id="path3034"
       inkscape:connector-curvature="0"
       sodipodi:nodetypes="ccccccc" />
    <path
       style="fill:#aade87;stroke:#c32213;stroke-width:0;stroke-miterlimit:4;stroke-opacity:0.88770058;stroke-dasharray:none;stroke-dashoffset:2"
       d="m 185.07948,427.60608 c 97.22337,6.85083 129.50611,52.22874 160.70316,93.89398 18.7718,49.1698 43.78415,137.86304 55.97526,145.35511 C 435.17167,706.95408 245.10619,782.75564 182.371,777.00003 147.78847,773.82727 35.116802,672.21301 37.015896,669.56365 L 40.627203,502.5407 C 65.561878,460.67807 107.3417,431.06645 185.07948,427.60608 z"
       id="path2996"
       inkscape:connector-curvature="0"
       sodipodi:nodetypes="cccsccc" />
    <path
       style="fill:#8dd35f;stroke:#c32213;stroke-width:0;stroke-miterlimit:4;stroke-opacity:0.88770058;stroke-dasharray:none;stroke-dashoffset:2"
       d="M 51.461124,496.22091 C 141.18507,495.82022 159.0854,563.42816 170.63425,628.03362 184.64992,740.40872 105.593,768.73998 79.448753,767.06893 62.539733,765.98816 -26.75607,740.59356 -29.793282,627.13079 -36.123321,556.61924 -12.215137,521.12037 27.084802,503.44353 z"
       id="path2998"
       inkscape:connector-curvature="0"
       sodipodi:nodetypes="ccsccc" />
    <path
       style="fill:#71c837;stroke:#c32213;stroke-width:0;stroke-miterlimit:4;stroke-opacity:0.88770058;stroke-dasharray:none;stroke-dashoffset:2"
       d="m -2.7084802,534.13963 c 56.4117652,0.56741 47.4085622,38.51481 56.8780842,65.90636 -1.480571,79.87039 -20.035388,74.36956 -35.210242,85.76854 -46.621992,-6.30372 -58.622166,-37.61209 -62.295045,-74.93462 l 7.222613,-52.36395 c 6.461436,-15.91449 19.884117,-20.2269 33.4045898,-24.37633 z"
       id="path3000"
       inkscape:connector-curvature="0"
       sodipodi:nodetypes="cccccc" />
    <path
       style="fill:#5aa02c;stroke:#c32213;stroke-width:0;stroke-miterlimit:4;stroke-opacity:0.88770058;stroke-dasharray:none;stroke-dashoffset:2"
       d="m -34.307416,552.19617 c 31.3281983,8.94548 27.4888127,26.68286 31.5989358,42.43286 -2.5397824,19.429 -7.0258064,36.91176 -26.1819758,39.72437 -18.014477,-7.56561 -31.799796,-19.36038 -30.696109,-46.04416 2.976612,-15.93864 7.310269,-30.90591 25.279149,-36.11307 z"
       id="path3002"
       inkscape:connector-curvature="0"
       sodipodi:nodetypes="ccccc" />
    <path
       style="fill:#5a8c2c;fill-opacity:0.95187163;stroke:#c32213;stroke-width:0;stroke-miterlimit:4;stroke-opacity:0.88770058;stroke-dasharray:none;stroke-dashoffset:2"
       d="m -51.030857,563.78766 c 12.231826,4.48454 17.61653,13.32633 22.140401,22.71593 -0.457449,18.00936 -10.307827,21.14658 -18.959361,26.18197 -17.579415,-7.2217 -16.943942,-18.23816 -18.056535,-28.89045 4.498255,-17.71499 9.682428,-18.96795 14.875495,-20.00745 z"
       id="path3006"
       inkscape:connector-curvature="0"
       sodipodi:nodetypes="ccccc" />
    <path
       style="opacity:0.95964128;fill:#112b00;stroke:#c32213;stroke-width:0;stroke-miterlimit:4;stroke-opacity:0.88770058;stroke-dasharray:none;stroke-dashoffset:2"
       d="m 394.22708,724.9823 c -1.41539,7.27271 -19.18147,-0.44271 0,25.71046 79.07544,39.99628 156.0314,84.97332 197.11354,214.25385 C 555.4662,891.23853 598.98955,834.24576 394.22708,724.9823 z"
       id="path3036"
       inkscape:connector-curvature="0"
       sodipodi:nodetypes="cccc" />
    <path
       sodipodi:type="arc"
       style="fill:#112b00;stroke:#c32213;stroke-width:0;stroke-miterlimit:4;stroke-opacity:0.88770058;stroke-dasharray:none;stroke-dashoffset:2"
       id="path3038"
       sodipodi:cx="371.40359"
       sodipodi:cy="739.41016"
       sodipodi:rx="9.8024406"
       sodipodi:ry="9.4393873"
       d="m 381.20604,739.41016 c 0,5.21323 -4.38871,9.43938 -9.80245,9.43938 -5.41373,0 -9.80244,-4.22615 -9.80244,-9.43938 0,-5.21323 4.38871,-9.43939 9.80244,-9.43939 5.41374,0 9.80245,4.22616 9.80245,9.43939 z" />
    <path
       sodipodi:type="arc"
       style="fill:#f6ffd5;fill-opacity:1;fill-rule:evenodd;stroke:#c32213;stroke-width:0;stroke-miterlimit:4;stroke-opacity:0.88770058;stroke-dasharray:none;stroke-dashoffset:2"
       id="path3040"
       sodipodi:cx="370.98212"
       sodipodi:cy="738.10736"
       sodipodi:rx="4.8261695"
       sodipodi:ry="4.9052873"
       d="m 375.80829,738.10736 c 0,2.70912 -2.16075,4.90529 -4.82617,4.90529 -2.66542,0 -4.82617,-2.19617 -4.82617,-4.90529 0,-2.70911 2.16075,-4.90529 4.82617,-4.90529 2.66542,0 4.82617,2.19618 4.82617,4.90529 z" />
  </g>
</svg>
