<?xml version="1.0" encoding="UTF-8"?>
<!DOCTYPE svg PUBLIC "-//W3C//DTD SVG 1.1//EN" "http://www.w3.org/Graphics/SVG/1.1/DTD/svg11.dtd">
<svg version="1.1" xmlns="http://www.w3.org/2000/svg" xmlns:xlink="http://www.w3.org/1999/xlink" x="0" y="0" width="390" height="390" viewBox="0, 0, 390, 390">
  <g id="Background">
    <rect x="0" y="0" width="390" height="390" fill="#000000" fill-opacity="0"/>
  </g>
  <g id="Layer_1">
    <g>
      <path d="M195,375 C95.589,375 15,294.411 15,195 C15,95.589 95.589,15 195,15 C294.411,15 375,95.589 375,195 C375,294.411 294.411,375 195,375 z" fill="#6E2F00"/>
      <path d="M195,5 C299.934,5 385,90.066 385,195 C385,299.934 299.934,385 195,385 C90.066,385 5,299.934 5,195 C5,90.066 90.066,5 195,5 z M195,15 C95.589,15 15,95.589 15,195 C15,294.411 95.589,375 195,375 C294.411,375 375,294.411 375,195 C375,95.589 294.411,15 195,15 z" fill="#833F00"/>
      <path d="M195,10 C297.173,10 380,92.827 380,195 C380,297.173 297.173,380 195,380 C92.827,380 10,297.173 10,195 C10,92.827 92.827,10 195,10 z M195,15 C95.589,15 15,95.589 15,195 C15,294.411 95.589,375 195,375 C294.411,375 375,294.411 375,195 C375,95.589 294.411,15 195,15 z" fill="#FFFFFF"/>
    </g>
    <g>
      <path d="M94.071,306.087 Q92.834,307.268 92.402,307.37 Q91.97,307.471 91.224,306.69 L81.342,296.341 Q80.938,295.917 80.7,295.896 Q80.461,295.875 80.201,296.123 Q77.76,298.454 77.531,301.472 Q77.302,304.491 79.385,306.671 Q80.752,308.103 82.667,308.546 Q84.583,308.988 86.129,308.196 L87.352,307.587 Q88.351,307.069 89.159,307.916 Q90.309,309.12 89.072,310.301 Q86.957,312.321 83.262,311.742 Q79.567,311.163 76.957,308.43 Q73.694,305.012 74.061,300.803 Q74.429,296.595 78.302,292.897 Q82.273,289.105 86.797,288.891 Q91.322,288.678 94.616,292.127 Q97.537,295.187 97.382,299.13 Q97.228,303.073 94.071,306.087 z M83.636,293.465 Q83.18,293.9 83.864,294.616 L91.292,302.395 Q91.944,303.078 92.4,302.643 Q94.125,300.996 94.151,298.482 Q94.177,295.969 92.499,294.211 Q90.759,292.388 88.011,292.15 Q85.263,291.911 83.636,293.465 z" fill="#FFFFFF"/>
      <path d="M110.241,306.051 Q112.634,307.885 113.283,310.367 L113.393,310.224 Q114.406,308.903 115.548,309.779 Q116.727,310.682 115.851,311.825 Q115.687,312.04 114.958,312.842 Q114.268,313.447 113.72,314.161 Q113.392,314.59 112.887,315.507 Q112.383,316.424 112.054,316.853 Q111.014,318.21 109.835,317.306 Q108.692,316.43 109.533,315.26 L110.4,314.054 Q111.186,312.955 110.578,311.27 Q109.97,309.585 108.363,308.354 Q106.72,307.094 104.97,307.085 Q103.219,307.076 102.261,308.326 Q100.509,310.611 103.323,313.449 L105.176,315.322 Q110.618,320.798 107.387,325.012 Q105.416,327.584 102.233,327.667 Q99.051,327.751 95.872,325.314 Q92.908,323.042 92.016,319.694 Q91.778,320.078 91.532,320.4 Q90.546,321.685 89.332,320.754 Q88.01,319.742 89.133,318.277 Q88.941,318.527 90.771,316.584 Q91.225,316.139 91.609,315.639 Q92.266,314.782 92.698,313.922 Q93.13,313.063 93.458,312.634 Q94.416,311.384 95.559,312.26 Q96.309,312.835 96.232,313.343 Q96.155,313.851 95.013,315.414 Q93.872,316.977 94.704,319.146 Q95.536,321.315 97.965,323.176 Q99.715,324.518 101.542,324.501 Q103.369,324.484 104.41,323.127 Q106.271,320.698 102.715,317.349 Q99.338,314.136 98.217,311.604 Q97.096,309.072 99.122,306.429 Q101.038,303.929 104.122,303.827 Q107.206,303.724 110.241,306.051 z" fill="#FFFFFF"/>
      <path d="M121.823,333.781 L123.326,331.323 Q124.278,329.742 125.647,330.521 Q127.016,331.301 125.991,333.1 Q123.564,337.362 121.511,338.42 Q118.734,339.842 115.332,337.904 Q112.204,336.123 112.01,333.371 Q111.856,331.368 113.838,327.888 L119.182,318.503 Q119.65,317.681 118.907,317.258 L117.656,316.546 Q117.03,316.189 116.853,315.545 Q116.677,314.901 117.011,314.314 Q117.322,313.767 117.978,313.57 Q118.634,313.374 119.142,313.663 L120.667,314.532 Q121.332,314.91 121.755,314.168 L124.048,310.14 Q124.895,308.654 126.42,309.522 Q127.827,310.324 126.981,311.81 L124.598,315.994 Q124.264,316.581 124.968,316.981 L129.231,319.409 Q130.717,320.255 129.937,321.624 Q129.113,323.07 127.51,322.157 L123.209,319.708 Q122.661,319.396 122.193,320.217 L116.715,329.837 Q114.377,333.943 117.075,335.479 Q119.813,337.038 121.823,333.781 z" fill="#FFFFFF"/>
      <path d="M129.266,345.03 Q128.196,344.556 127.793,343.467 Q127.389,342.378 127.863,341.308 Q128.337,340.238 129.414,339.805 Q130.492,339.372 131.562,339.846 Q132.632,340.319 133.035,341.409 Q133.439,342.498 132.965,343.568 Q132.491,344.637 131.414,345.071 Q130.336,345.504 129.266,345.03 z" fill="#FFFFFF"/>
      <path d="M163.202,356.01 Q157.594,354.906 155.206,350.148 Q152.818,345.389 154.243,338.148 Q155.695,330.775 159.867,327.171 Q164.039,323.566 169.823,324.705 Q175.342,325.791 177.739,330.505 Q180.136,335.22 178.763,342.196 Q177.277,349.746 173.109,353.443 Q168.942,357.14 163.202,356.01 z M169.092,327.955 Q160.968,326.355 158.268,338.436 Q158.268,338.436 158.138,339.099 Q156.999,344.883 158.497,348.457 Q159.995,352.031 163.88,352.796 Q167.854,353.578 170.784,350.577 Q173.714,347.577 174.904,341.528 Q176.043,335.744 174.532,332.236 Q173.021,328.728 169.092,327.955 z" fill="#FFFFFF"/>
      <path d="M188.603,347.591 L188.823,334.543 Q188.84,332.247 188.434,331.471 Q188.027,330.695 186.768,330.66 Q186.318,330.648 185.46,330.737 Q184.602,330.827 184.152,330.814 Q182.398,330.767 182.441,329.192 Q182.484,327.618 184.148,327.663 Q184.688,327.678 185.832,327.821 Q186.976,327.965 187.606,327.982 Q189.045,328.021 189.992,327.957 Q191.39,327.86 191.705,327.868 Q192.695,327.895 192.904,328.486 Q193.073,328.896 193.046,329.886 Q193.042,330.021 192.972,330.964 Q192.616,335.771 192.509,339.685 L192.371,344.768 Q192.333,346.162 192.315,348.503 Q192.328,351.339 192.303,352.239 Q192.264,355.344 194.288,355.399 Q194.783,355.412 195.776,355.327 Q196.768,355.241 197.263,355.255 Q199.422,355.313 199.379,356.888 Q199.337,358.462 197.357,358.408 Q196.593,358.388 195.92,358.279 Q192.155,357.682 190.176,357.628 Q188.197,357.574 185.307,357.901 Q183.681,358.082 183.006,358.063 Q181.072,358.011 181.116,356.391 Q181.159,354.817 183.363,354.877 Q184.038,354.895 184.754,355.05 Q185.831,355.169 186.101,355.176 Q187.675,355.219 188.069,353.992 Q188.462,352.765 188.603,347.591 z" fill="#FFFFFF"/>
      <path d="M214.023,346.516 L212.136,333.603 Q211.783,331.335 211.257,330.634 Q210.731,329.933 209.482,330.103 Q209.036,330.163 208.204,330.389 Q207.372,330.616 206.926,330.676 Q205.187,330.912 204.975,329.351 Q204.764,327.791 206.414,327.567 Q206.949,327.494 208.101,327.452 Q209.253,327.409 209.877,327.324 Q211.304,327.131 212.229,326.915 Q213.593,326.594 213.905,326.551 Q214.886,326.418 215.188,326.968 Q215.42,327.345 215.553,328.326 Q215.572,328.46 215.654,329.402 Q216.078,334.204 216.604,338.083 L217.287,343.122 Q217.474,344.504 217.833,346.817 Q218.303,349.614 218.424,350.506 Q218.886,353.577 220.893,353.305 Q221.383,353.238 222.349,352.994 Q223.315,352.749 223.806,352.683 Q225.946,352.393 226.158,353.953 Q226.369,355.514 224.407,355.78 Q223.649,355.883 222.968,355.884 Q219.156,355.902 217.194,356.168 Q215.232,356.434 212.432,357.222 Q210.857,357.663 210.188,357.753 Q208.271,358.013 208.053,356.408 Q207.842,354.847 210.027,354.551 Q210.696,354.46 211.427,354.497 Q212.509,354.442 212.777,354.405 Q214.338,354.194 214.528,352.919 Q214.719,351.644 214.023,346.516 z" fill="#FFFFFF"/>
      <path d="M238.882,341.258 L234.89,328.833 Q234.167,326.654 233.532,326.05 Q232.898,325.446 231.694,325.819 Q231.264,325.952 230.481,326.312 Q229.697,326.673 229.268,326.806 Q227.591,327.326 227.125,325.821 Q226.659,324.317 228.249,323.824 Q228.765,323.664 229.894,323.432 Q231.024,323.2 231.625,323.013 Q233.001,322.587 233.877,322.221 Q235.169,321.679 235.47,321.586 Q236.416,321.293 236.804,321.785 Q237.096,322.119 237.389,323.064 Q237.429,323.193 237.666,324.109 Q238.876,328.775 240.035,332.515 L241.54,337.372 Q241.953,338.704 242.689,340.926 Q243.614,343.607 243.881,344.467 Q244.843,347.419 246.777,346.82 Q247.25,346.673 248.162,346.273 Q249.074,345.872 249.547,345.726 Q251.61,345.086 252.077,346.591 Q252.543,348.095 250.652,348.681 Q249.921,348.908 249.25,349.022 Q245.492,349.668 243.601,350.254 Q241.71,350.84 239.079,352.08 Q237.598,352.774 236.953,352.974 Q235.105,353.547 234.626,351.999 Q234.159,350.495 236.266,349.842 Q236.91,349.642 237.638,349.558 Q238.696,349.324 238.954,349.244 Q240.458,348.778 240.436,347.49 Q240.414,346.201 238.882,341.258 z" fill="#FFFFFF"/>
      <path d="M262.498,331.935 L256.496,320.346 Q255.422,318.318 254.695,317.828 Q253.969,317.337 252.844,317.905 Q252.442,318.108 251.73,318.594 Q251.017,319.079 250.616,319.282 Q249.049,320.073 248.339,318.667 Q247.629,317.261 249.116,316.511 Q249.598,316.267 250.673,315.851 Q251.748,315.434 252.31,315.15 Q253.596,314.501 254.399,313.995 Q255.583,313.246 255.864,313.104 Q256.748,312.658 257.213,313.078 Q257.556,313.359 258.002,314.243 Q258.063,314.363 258.449,315.227 Q260.418,319.627 262.182,323.122 L264.474,327.661 Q265.102,328.906 266.197,330.975 Q267.555,333.465 267.961,334.269 Q269.4,337.02 271.208,336.108 Q271.65,335.884 272.483,335.338 Q273.316,334.791 273.758,334.568 Q275.686,333.595 276.396,335.001 Q277.105,336.407 275.338,337.299 Q274.655,337.644 274.012,337.868 Q270.414,339.129 268.647,340.022 Q266.879,340.914 264.491,342.573 Q263.146,343.504 262.544,343.809 Q260.816,344.681 260.086,343.234 Q259.376,341.828 261.345,340.835 Q261.947,340.53 262.651,340.327 Q263.656,339.92 263.897,339.798 Q265.303,339.089 265.066,337.822 Q264.83,336.555 262.498,331.935 z" fill="#FFFFFF"/>
      <path d="M284.204,318.833 L276.326,308.428 Q274.924,306.61 274.125,306.25 Q273.326,305.89 272.313,306.64 Q271.952,306.908 271.332,307.508 Q270.712,308.107 270.35,308.375 Q268.94,309.42 268.003,308.154 Q267.065,306.889 268.403,305.897 Q268.837,305.576 269.826,304.983 Q270.814,304.391 271.321,304.015 Q272.478,303.158 273.183,302.523 Q274.224,301.584 274.477,301.397 Q275.272,300.807 275.801,301.143 Q276.187,301.362 276.777,302.157 Q276.857,302.266 277.383,303.052 Q280.069,307.054 282.4,310.2 L285.427,314.286 Q286.258,315.407 287.687,317.26 Q289.447,319.484 289.983,320.207 Q291.867,322.675 293.494,321.47 Q293.892,321.175 294.621,320.495 Q295.349,319.816 295.747,319.521 Q297.482,318.235 298.42,319.501 Q299.358,320.766 297.767,321.945 Q297.152,322.4 296.556,322.73 Q293.224,324.582 291.633,325.761 Q290.043,326.94 287.97,328.98 Q286.802,330.125 286.26,330.527 Q284.705,331.679 283.74,330.377 Q282.803,329.112 284.574,327.799 Q285.117,327.397 285.776,327.077 Q286.697,326.506 286.914,326.346 Q288.179,325.408 287.732,324.199 Q287.284,322.991 284.204,318.833 z" fill="#FFFFFF"/>
      <path d="M312.52,309.32 Q308.555,313.436 303.261,312.866 Q297.967,312.297 292.653,307.176 Q287.24,301.962 286.47,296.503 Q285.7,291.043 289.79,286.798 Q293.693,282.747 298.954,283.285 Q304.215,283.824 309.335,288.756 Q314.877,294.095 315.728,299.601 Q316.578,305.107 312.52,309.32 z M292.126,289.173 Q286.381,295.136 295.075,303.949 Q295.075,303.949 295.561,304.417 Q299.806,308.507 303.622,309.184 Q307.438,309.86 310.185,307.008 Q312.995,304.092 312.06,300.004 Q311.124,295.916 306.684,291.638 Q302.439,287.548 298.672,286.919 Q294.904,286.289 292.126,289.173 z" fill="#FFFFFF"/>
      <path d="M331.73,285.234 Q328.609,290.022 323.303,290.457 Q317.996,290.892 311.814,286.862 Q305.519,282.758 303.737,277.54 Q301.954,272.322 305.174,267.384 Q308.246,262.672 313.514,262.212 Q318.783,261.753 324.739,265.636 Q331.185,269.838 333.055,275.086 Q334.925,280.334 331.73,285.234 z M307.914,269.278 Q303.392,276.214 313.587,283.236 Q313.587,283.236 314.152,283.605 Q319.09,286.825 322.965,286.772 Q326.84,286.72 329.003,283.403 Q331.215,280.01 329.528,276.171 Q327.841,272.331 322.676,268.964 Q317.738,265.745 313.92,265.834 Q310.101,265.923 307.914,269.278 z" fill="#FFFFFF"/>
      <path d="M346.108,257.99 Q343.938,263.277 338.807,264.698 Q333.676,266.119 326.848,263.317 Q319.896,260.464 317.169,255.672 Q314.441,250.88 316.679,245.427 Q318.815,240.223 323.904,238.785 Q328.993,237.347 335.571,240.046 Q342.69,242.968 345.509,247.773 Q348.329,252.578 346.108,257.99 z M319.726,246.774 Q316.582,254.434 327.911,259.424 Q327.911,259.424 328.535,259.68 Q333.989,261.918 337.786,261.141 Q341.582,260.365 343.086,256.701 Q344.623,252.954 342.247,249.498 Q339.872,246.043 334.168,243.702 Q328.714,241.464 324.98,242.267 Q321.246,243.069 319.726,246.774 z" fill="#FFFFFF"/>
      <path d="M355.14,228.54 Q353.999,234.14 349.225,236.497 Q344.45,238.854 337.219,237.38 Q329.855,235.879 326.279,231.683 Q322.702,227.487 323.879,221.711 Q325.002,216.199 329.733,213.833 Q334.463,211.468 341.43,212.888 Q348.97,214.424 352.639,218.616 Q356.308,222.808 355.14,228.54 z M327.124,222.464 Q325.471,230.577 337.534,233.357 Q337.534,233.357 338.195,233.492 Q343.971,234.669 347.555,233.195 Q351.139,231.721 351.93,227.84 Q352.739,223.872 349.758,220.922 Q346.777,217.973 340.736,216.742 Q334.96,215.565 331.442,217.052 Q327.924,218.54 327.124,222.464 z" fill="#FFFFFF"/>
      <path d="M358.409,197.913 Q358.372,203.628 354.144,206.864 Q349.916,210.099 342.536,210.052 Q335.021,210.004 330.701,206.579 Q326.38,203.154 326.418,197.259 Q326.453,191.634 330.637,188.398 Q334.82,185.162 341.93,185.208 Q349.625,185.257 354.036,188.66 Q358.446,192.064 358.409,197.913 z M329.747,197.37 Q329.694,205.65 342.067,206.044 Q342.067,206.044 342.742,206.049 Q348.637,206.086 351.868,203.947 Q355.099,201.807 355.124,197.847 Q355.15,193.798 351.655,191.48 Q348.16,189.163 341.995,189.123 Q336.1,189.086 332.936,191.226 Q329.772,193.365 329.747,197.37 z" fill="#FFFFFF"/>
    </g>
    <g>
      <path d="M39.842,119.304 Q42.506,113.811 48.392,112.387 L47.824,112.173 Q47.577,112.053 47.28,111.909 Q46.959,111.814 46.909,111.79 Q45.773,111.361 45.872,111.409 Q44.189,110.593 44.957,109.01 Q45.773,107.327 47.851,108.335 Q48.247,108.527 50.131,109.685 Q52.485,111.132 53.425,111.588 Q54.762,112.236 56.219,112.76 L58.196,113.474 L58.691,113.714 Q60.918,114.794 60.054,116.576 Q59.118,118.506 57.014,117.424 L55.256,116.511 Q51.741,114.684 48.386,115.93 Q45.031,117.175 43.207,120.936 Q40.831,125.836 43.248,130.431 Q45.665,135.026 52.297,138.242 Q59.076,141.53 64.242,140.521 Q69.408,139.511 71.88,134.414 Q73.224,131.643 72.956,128.793 Q72.688,125.942 70.942,123.996 Q69.795,122.706 67.37,121.53 Q65.094,120.426 66.006,118.545 Q66.99,116.516 69.266,117.62 Q74.561,120.188 76.15,125.482 Q77.74,130.776 74.932,136.566 Q71.692,143.247 65.058,144.951 Q58.425,146.655 50.606,142.863 Q42.539,138.951 39.571,132.468 Q36.602,125.985 39.842,119.304 z" fill="#FFFFFF"/>
      <path d="M98.604,101.776 Q95.716,105.24 92.047,103.543 Q93.42,108.339 89.581,112.943 Q86.728,116.365 83.331,117.006 Q79.933,117.646 77.102,115.286 Q73.596,112.363 74.449,107.99 Q74.766,106.321 75.262,105.339 Q75.759,104.357 77.541,101.618 Q80.119,97.752 80.341,96.111 Q80.563,94.471 78.747,92.956 Q77.015,91.512 75.018,91.889 Q73.022,92.265 71.226,94.42 Q69.641,96.321 69.323,98.849 Q69.218,99.835 69.682,100.222 Q69.851,100.363 70.422,100.194 Q71.337,99.955 72.351,100.8 Q73.196,101.504 73.235,102.575 Q73.273,103.645 72.498,104.575 Q71.583,105.673 70.206,105.778 Q68.829,105.884 67.731,104.968 Q65.365,102.996 65.63,99.243 Q65.895,95.489 68.677,92.152 Q75.086,84.463 82.479,90.626 L91.013,97.74 Q93.041,99.43 93.492,99.663 Q95.181,100.642 96.168,99.459 Q97.4,97.98 94.696,95.727 L92.626,94.001 Q91.274,92.874 92.366,91.564 Q93.528,90.17 95.556,91.861 L95.767,92.037 L98.14,94.086 Q102.125,97.552 98.604,101.776 z M86.288,99.457 L83.323,96.915 Q83.393,98.549 82.869,99.865 Q82.344,101.182 80.379,104.055 Q76.829,109.258 79.913,111.829 Q81.518,113.167 83.416,112.78 Q85.314,112.393 86.969,110.408 Q89.328,107.577 89.142,104.665 Q88.956,101.754 86.288,99.457 z" fill="#FFFFFF"/>
      <path d="M95.341,60.88 Q94.85,60.286 94.889,59.469 Q93.607,59.387 92.208,60.543 Q90.385,62.049 90.31,64.073 Q90.234,66.098 91.951,68.175 L92.582,68.938 Q93.037,69.49 93.588,69.034 L96.895,66.302 Q98.294,65.145 99.556,66.672 Q100.817,68.198 99.418,69.354 L96.28,71.947 Q95.559,72.542 96.19,73.305 L105.999,85.177 Q107.295,86.746 107.548,86.965 Q108.706,87.935 109.554,87.234 Q109.766,87.059 110.439,86.147 Q110.962,85.571 111.217,85.361 Q112.658,84.17 113.814,85.569 Q115.04,87.053 113.302,88.489 Q112.581,89.085 110.978,90.124 Q109.375,91.163 108.655,91.759 Q107.383,92.81 106.47,93.778 Q104.992,95.356 104.525,95.741 Q102.702,97.248 101.476,95.764 Q101.021,95.213 101.115,94.421 Q101.21,93.629 101.804,93.138 Q102.228,92.788 102.881,92.499 Q103.533,92.209 103.957,91.859 Q104.763,91.193 104.134,90 Q103.505,88.808 100.324,84.872 L93.01,75.933 Q92.379,75.17 91.616,75.8 L89.496,77.552 Q88.012,78.778 86.716,77.209 Q85.49,75.725 87.016,74.464 L89.433,72.467 Q89.984,72.012 89.529,71.461 L88.898,70.698 Q86.131,67.348 86.44,64.096 Q86.749,60.844 90.014,58.146 Q92.685,55.939 95.19,55.689 Q97.694,55.439 99.201,57.262 Q99.971,58.195 99.851,59.258 Q99.73,60.321 98.84,61.056 Q97.992,61.757 96.981,61.7 Q95.971,61.643 95.341,60.88 z" fill="#FFFFFF"/>
      <path d="M132.022,57.763 Q133.044,59.586 133.033,60.129 Q133.021,60.671 131.87,61.316 L116.614,69.869 Q115.99,70.218 115.892,70.494 Q115.794,70.769 116.009,71.153 Q118.026,74.751 121.53,75.94 Q125.034,77.128 128.248,75.327 Q130.359,74.143 131.465,72.01 Q132.57,69.877 132.103,67.806 L131.755,66.173 Q131.445,64.833 132.693,64.134 Q134.468,63.139 135.49,64.962 Q137.238,68.08 135.43,72.278 Q133.621,76.476 129.591,78.735 Q124.554,81.559 119.683,79.844 Q114.813,78.129 111.612,72.42 Q108.331,66.567 109.454,61.146 Q110.576,55.724 115.662,52.874 Q120.171,50.346 124.792,51.728 Q129.413,53.11 132.022,57.763 z M116.575,43.03 Q117.22,44.181 115.924,45.917 L110.778,52.711 Q110.283,53.177 110.235,53.204 Q109.228,53.769 108.582,52.618 Q108.233,51.994 108.891,50.806 L112.811,43.627 Q113.31,42.717 113.981,42.34 Q115.661,41.399 116.575,43.03 z M113.907,66.278 Q114.284,66.95 115.339,66.358 L126.806,59.931 Q127.813,59.366 127.437,58.694 Q126.011,56.152 123.043,55.356 Q120.075,54.561 117.485,56.013 Q114.798,57.519 113.68,60.699 Q112.563,63.88 113.907,66.278 z" fill="#FFFFFF"/>
      <path d="M166.272,25.213 Q172.283,24.147 176.891,28.078 L176.731,27.492 Q176.683,27.221 176.625,26.896 Q176.514,26.581 176.504,26.526 Q176.184,25.354 176.204,25.463 Q175.877,23.621 177.61,23.314 Q179.451,22.987 179.855,25.262 Q179.931,25.695 180.099,27.9 Q180.309,30.655 180.491,31.684 Q180.751,33.146 181.182,34.634 L181.764,36.653 L181.86,37.195 Q182.292,39.632 180.343,39.978 Q178.231,40.352 177.872,38.014 L177.58,36.055 Q176.997,32.137 174.019,30.151 Q171.041,28.166 166.926,28.896 Q161.564,29.847 159.262,34.501 Q156.959,39.154 158.247,46.411 Q159.563,53.83 163.412,57.421 Q167.26,61.011 172.838,60.022 Q175.871,59.484 178.021,57.594 Q180.172,55.704 180.724,53.149 Q181.095,51.463 180.624,48.809 Q180.183,46.318 182.24,45.953 Q184.461,45.559 184.903,48.05 Q185.931,53.845 182.576,58.238 Q179.222,62.632 172.886,63.756 Q165.575,65.053 160.303,60.681 Q155.031,56.31 153.513,47.754 Q151.947,38.926 155.454,32.718 Q158.962,26.51 166.272,25.213 z" fill="#FFFFFF"/>
      <path d="M203.942,61.949 Q198.182,61.537 195.01,57.313 Q191.838,53.088 192.316,46.395 Q192.795,39.702 196.563,35.974 Q200.331,32.246 206.201,32.665 Q212.18,33.093 215.358,37.235 Q218.536,41.377 218.057,48.07 Q217.579,54.763 213.723,58.568 Q209.867,62.372 203.942,61.949 z M206.051,36.294 Q202.211,36.019 199.825,38.551 Q197.438,41.082 196.866,46.004 Q196.866,46.004 196.815,46.717 Q196.446,51.874 198.403,54.964 Q200.361,58.054 204.256,58.332 Q208.261,58.618 210.747,55.846 Q213.233,53.074 213.606,47.862 Q214.39,36.89 206.051,36.294 z" fill="#FFFFFF"/>
      <path d="M241.606,39.098 Q246.806,40.714 248.123,45.558 L249.771,40.253 Q250.424,38.152 250.466,37.647 Q250.709,35.937 249.501,35.562 Q249.081,35.431 248.271,35.352 Q247.46,35.273 247.04,35.143 Q245.097,34.539 245.619,32.858 Q246.158,31.125 248.784,31.941 Q249.204,32.071 250.274,32.519 Q251.906,33.199 251.958,33.215 Q252.431,33.362 253.357,33.535 Q254.282,33.707 254.755,33.854 Q256.226,34.311 255.573,36.412 L255.393,36.99 Q255.292,37.131 254.423,39.741 Q254.325,40.056 253.009,43.736 Q252.088,46.329 251.663,47.695 L250.064,52.842 L247.443,61.646 Q246.419,65.129 246.42,66.051 Q246.421,66.973 247.419,67.283 Q248.102,67.495 248.502,67.504 Q249.375,67.66 249.691,67.758 Q251.634,68.362 251.095,70.096 Q250.54,71.881 248.177,71.147 Q247.652,70.984 246.616,70.518 Q245.58,70.052 245.055,69.889 Q244.897,69.84 243.814,69.618 Q243.135,69.58 242.662,69.433 Q241.244,68.992 241.832,67.102 L241.913,66.839 L242.243,65.962 Q238.301,68.826 232.996,67.178 Q227.639,65.513 225.59,60.615 Q223.541,55.716 225.5,49.413 Q227.475,43.058 231.862,40.246 Q236.249,37.434 241.606,39.098 z M243.303,59.956 Q244.052,58.288 244.901,55.557 Q245.994,52.038 246.123,50.696 Q246.467,47.923 245.138,45.898 Q243.575,43.511 240.844,42.663 Q237.168,41.52 234.228,43.659 Q231.288,45.798 229.787,50.63 Q228.236,55.62 229.5,59.152 Q230.764,62.683 234.493,63.842 Q237.329,64.723 239.734,63.657 Q242.139,62.59 243.303,59.956 z" fill="#FFFFFF"/>
      <path d="M282.463,71.711 Q281.409,73.516 280.935,73.78 Q280.462,74.045 279.322,73.379 L264.223,64.553 Q263.606,64.192 263.318,64.247 Q263.031,64.302 262.809,64.682 Q260.728,68.243 261.477,71.867 Q262.226,75.49 265.407,77.349 Q267.496,78.571 269.895,78.444 Q272.295,78.318 273.844,76.866 L275.076,75.739 Q276.075,74.794 277.309,75.515 Q279.066,76.542 278.012,78.346 Q276.207,81.433 271.672,81.999 Q267.136,82.565 263.148,80.233 Q258.162,77.319 257.175,72.251 Q256.188,67.182 259.491,61.532 Q262.877,55.739 268.12,53.962 Q273.363,52.185 278.397,55.127 Q282.86,57.736 284.008,62.421 Q285.156,67.105 282.463,71.711 z M265.949,60.401 Q265.56,61.066 266.605,61.677 L277.953,68.31 Q278.95,68.893 279.339,68.228 Q280.81,65.712 279.993,62.75 Q279.176,59.788 276.612,58.289 Q273.953,56.735 270.645,57.381 Q267.336,58.027 265.949,60.401 z" fill="#FFFFFF"/>
    </g>
    <g>
      <path d="M195,315 C128.726,315 75,261.274 75,195 C75,128.726 128.726,75 195,75 C261.274,75 315,128.726 315,195 C315,261.274 261.274,315 195,315 z" fill="#6E2F00"/>
      <path d="M195,75 C261.274,75 315,128.726 315,195 C315,261.274 261.274,315 195,315 C128.726,315 75,261.274 75,195 C75,128.726 128.726,75 195,75 z M195,77.5 C130.107,77.5 77.5,130.107 77.5,195 C77.5,259.893 130.107,312.5 195,312.5 C259.893,312.5 312.5,259.893 312.5,195 C312.5,130.107 259.893,77.5 195,77.5 z" fill="#FFFFFF"/>
    </g>
    <path d="M182.106,95.001 C182.106,95.001 177.121,91.492 169.691,93.237 C162.261,94.982 142.297,106.529 133.405,115.599 C124.513,124.669 112.473,138.983 112.51,147.653 C112.547,156.324 111.531,160.193 122.691,168.61 C133.851,177.027 156.94,165.471 156.94,165.471 C156.94,165.471 177.153,154.265 185.811,136.493 C194.469,118.722 193.366,111.696 193.366,111.696 C193.366,111.696 194.165,105.375 190.64,100.282 C187.114,95.19 182.933,96.14 182.933,96.14 C182.933,96.14 177.253,95.744 173.723,100.222 C170.193,104.701 170.275,104.815 168.474,106.645 C166.673,108.476 163.703,109.416 161.643,111.608 C159.583,113.801 152.096,126.72 142.728,135.614 C133.36,144.508 128.341,146.937 126.073,149.802 C123.806,152.667 123.567,155.45 121.601,155.138 C119.635,154.827 120.279,149.489 123.623,146.19 C126.967,142.891 128.001,143.357 132.928,139.603 C137.855,135.85 145.581,120.147 159.275,108.11 C172.97,96.073 182.106,95.001 182.106,95.001 z" fill="#FFFFFF"/>
    <path d="M263.107,237.286 C263.107,237.286 260.439,229.472 250.91,225.47 C241.382,221.468 210.319,218.229 193.358,221.087 C176.397,223.946 151.813,230.044 144.953,239.573 C138.092,249.101 133.899,252.531 139.426,270.636 C144.953,288.74 179.446,294.457 179.446,294.457 C179.446,294.457 210.509,298.269 234.14,285.691 C257.771,273.113 262.154,264.537 262.154,264.537 C262.154,264.537 268.062,258.249 268.253,249.863 C268.443,241.478 263.107,239.191 263.107,239.191 C263.107,239.191 257.199,234.237 249.767,236.333 C242.335,238.429 242.335,238.62 238.904,239.191 C235.474,239.763 231.472,238.429 227.47,239.191 C223.468,239.954 204.983,248.148 187.641,250.435 C170.299,252.722 162.866,251.388 158.102,252.722 C153.338,254.056 150.86,256.915 148.955,255.009 C147.049,253.103 152.004,247.767 158.293,246.814 C164.581,245.861 165.344,247.195 173.729,247.005 C182.114,246.814 203.077,235.761 227.661,233.474 C252.244,231.187 263.107,237.286 263.107,237.286 z" fill="#FFFFFF"/>
    <path d="M248.873,131.711 C248.873,131.711 243.629,127.129 234.983,128.224 C226.336,129.319 202.282,140.051 191.1,149.291 C179.917,158.531 164.534,173.352 163.541,183.204 C162.548,193.056 160.933,197.329 172.603,208.222 C184.274,219.114 211.878,208.745 211.878,208.745 C211.878,208.745 236.172,198.43 248.128,179.279 C260.083,160.128 259.668,152.016 259.668,152.016 C259.668,152.016 261.331,144.932 257.935,138.727 C254.538,132.523 249.676,133.102 249.676,133.102 C249.676,133.102 243.272,131.975 238.728,136.64 C234.184,141.305 234.264,141.444 232,143.308 C229.735,145.172 226.25,145.885 223.648,148.13 C221.047,150.374 211.001,164.154 199.299,173.137 C187.598,182.12 181.607,184.28 178.69,187.263 C175.773,190.246 175.169,193.379 172.973,192.79 C170.778,192.202 172.146,186.216 176.338,182.868 C180.529,179.52 181.648,180.173 187.692,176.498 C193.736,172.823 204.386,155.91 221.377,143.874 C238.368,131.837 248.873,131.711 248.873,131.711 z" fill="#FFFFFF"/>
    <text transform="matrix(1, 0, 0, 1, 95, 571.5)">
      <tspan x="-24.449" y="4" font-family="Arial-BoldMT" font-size="16" fill="#FFBD80">SINCE</tspan>
    </text>
    <text transform="matrix(1, 0, 0, 1, 395, 578.125)">
      <tspan x="-18.909" y="4.375" font-family="Arial-BoldMT" font-size="17" fill="#FFBD80">2016</tspan>
    </text>
  </g>
</svg>
