<?xml version="1.0" encoding="UTF-8"?>
<!DOCTYPE svg PUBLIC "-//W3C//DTD SVG 1.1//EN" "http://www.w3.org/Graphics/SVG/1.1/DTD/svg11.dtd">
<svg version="1.1" xmlns="http://www.w3.org/2000/svg" xmlns:xlink="http://www.w3.org/1999/xlink" x="0" y="0" width="750" height="150" viewBox="0, 0, 750, 150">
  <g id="Background">
    <rect x="0" y="0" width="750" height="150" fill="#FFFFFF"/>
  </g>
  <defs>
    <clipPath id="Clip_1">
      <path d="M423.687,-337.21 L642,-337.21 L642,-246 L423.687,-246 z"/>
    </clipPath>
    <clipPath id="Clip_2">
      <path d="M275.878,2.812 L453.501,2.812 L453.501,77.022 L275.878,77.022 z"/>
    </clipPath>
  </defs>
  <g id="Layer_1">
    <g>
      <path d="M3.023,3.312 L216.667,3.312 L216.667,77.522 L3.023,77.522 L3.023,3.312 z" fill="#404040"/>
      <path d="M3.023,3.312 L216.667,3.312 L216.667,77.522 L3.023,77.522 L3.023,3.312 z" fill-opacity="0" stroke="#404040" stroke-width="2"/>
    </g>
    <text transform="matrix(1, 0, 0, 1, 109.5, 44.349)">
      <tspan x="-101.667" y="-25.673" font-family="CourierNewPS-BoldMT" font-size="8" fill="#FFFFFF">body#index</tspan>
      <tspan x="-101.667" y="-16.673" font-family="CourierNewPS-BoldMT" font-size="8" fill="#FFFFFF">  != partial("_include/_header")</tspan>
      <tspan x="-101.667" y="-7.673" font-family="CourierNewPS-BoldMT" font-size="8" fill="#FFFFFF">  </tspan>
      <tspan x="-101.667" y="1.327" font-family="CourierNewPS-BoldMT" font-size="8" fill="#FFFFFF">  .main</tspan>
      <tspan x="-101.667" y="10.327" font-family="CourierNewPS-BoldMT" font-size="8" fill="#FFFFFF">    .container#main-container</tspan>
      <tspan x="-101.667" y="19.327" font-family="CourierNewPS-BoldMT" font-size="8" fill="#FFFFFF">      </tspan>
      <tspan x="-101.667" y="28.327" font-family="CourierNewPS-BoldMT" font-size="8" fill="#FFFFFF">      - if (current.path[current.path.len</tspan>
    </text>
    <g id="Git-Logo-Black">
      <path d="M554.5,-306.165 C549.712,-306.165 546.146,-303.814 546.146,-298.156 C546.146,-293.893 548.496,-290.933 554.242,-290.933 C559.112,-290.933 562.42,-293.803 562.42,-298.332 C562.42,-303.465 559.46,-306.165 554.5,-306.165 z M544.927,-266.213 C543.794,-264.823 542.665,-263.345 542.665,-261.602 C542.665,-258.123 547.101,-257.076 553.195,-257.076 C558.243,-257.076 565.119,-257.43 565.119,-262.123 C565.119,-264.913 561.811,-265.085 557.631,-265.347 L544.927,-266.213 z M570.688,-305.902 C572.252,-303.9 573.908,-301.114 573.908,-297.111 C573.908,-287.451 566.336,-281.795 555.373,-281.795 C552.585,-281.795 550.061,-282.142 548.496,-282.577 L545.623,-277.965 L554.151,-277.444 C569.209,-276.484 578.083,-276.048 578.083,-264.478 C578.083,-254.467 569.295,-248.813 554.151,-248.813 C538.399,-248.813 532.394,-252.816 532.394,-259.691 C532.394,-263.608 534.135,-265.692 537.181,-268.569 C534.308,-269.783 533.352,-271.958 533.352,-274.309 C533.352,-276.225 534.308,-277.965 535.877,-279.62 C537.443,-281.271 539.183,-282.927 541.272,-284.841 C537.008,-286.93 533.787,-291.456 533.787,-297.897 C533.787,-307.904 540.402,-314.777 553.715,-314.777 C557.458,-314.777 559.722,-314.433 561.724,-313.907 L578.696,-313.907 L578.696,-306.512 L570.688,-305.902" fill="#0A0B09"/>
      <path d="M594.007,-321.717 C589.045,-321.717 586.174,-324.591 586.174,-329.554 C586.174,-334.51 589.045,-337.21 594.007,-337.21 C599.055,-337.21 601.927,-334.51 601.927,-329.554 C601.927,-324.591 599.055,-321.717 594.007,-321.717 z M582.778,-269.416 L582.778,-276.288 L587.218,-276.895 C588.437,-277.071 588.61,-277.331 588.61,-278.639 L588.61,-304.226 C588.61,-305.181 588.35,-305.793 587.477,-306.052 L582.778,-307.707 L583.735,-314.754 L601.752,-314.754 L601.752,-278.639 C601.752,-277.244 601.836,-277.071 603.145,-276.895 L607.584,-276.288 L607.584,-269.416 L582.778,-269.416" fill="#0A0B09"/>
      <g clip-path="url(#Clip_1)">
        <path d="M642,-272.79 C638.256,-270.964 632.774,-269.31 627.811,-269.31 C617.455,-269.31 613.54,-273.483 613.54,-283.322 L613.54,-306.123 C613.54,-306.644 613.54,-306.993 612.841,-306.993 L606.75,-306.993 L606.75,-314.739 C614.411,-315.611 617.455,-319.441 618.412,-328.927 L626.681,-328.927 L626.681,-316.565 C626.681,-315.958 626.681,-315.695 627.378,-315.695 L639.648,-315.695 L639.648,-306.993 L626.681,-306.993 L626.681,-286.194 C626.681,-281.059 627.901,-279.059 632.598,-279.059 C635.038,-279.059 637.559,-279.667 639.648,-280.45 L642,-272.79" fill="#0A0B09"/>
        <path d="M513.048,-295.629 L473.255,-335.419 C470.965,-337.711 467.248,-337.711 464.955,-335.419 L456.692,-327.156 L467.174,-316.674 C469.61,-317.497 472.403,-316.945 474.345,-315.003 C476.296,-313.049 476.844,-310.232 476.001,-307.788 L486.103,-297.686 C488.547,-298.528 491.367,-297.983 493.319,-296.028 C496.047,-293.301 496.047,-288.881 493.319,-286.152 C490.59,-283.423 486.17,-283.423 483.44,-286.152 C481.388,-288.206 480.881,-291.22 481.92,-293.748 L472.499,-303.169 L472.498,-278.377 C473.163,-278.047 473.791,-277.608 474.345,-277.056 C477.073,-274.329 477.073,-269.909 474.345,-267.178 C471.616,-264.45 467.194,-264.45 464.469,-267.178 C461.741,-269.909 461.741,-274.329 464.469,-277.056 C465.143,-277.729 465.923,-278.238 466.755,-278.58 L466.755,-303.603 C465.923,-303.943 465.144,-304.449 464.469,-305.127 C462.402,-307.191 461.905,-310.224 462.964,-312.762 L452.632,-323.096 L425.347,-295.813 C423.054,-293.519 423.054,-289.802 425.347,-287.51 L465.14,-247.719 C467.431,-245.427 471.147,-245.427 473.441,-247.719 L513.048,-287.325 C515.34,-289.618 515.34,-293.337 513.048,-295.629" fill="#0A0B09"/>
      </g>
    </g>
    <g id="Git-Logo-Black">
      <path d="M382.309,28.07 C378.414,28.07 375.513,29.983 375.513,34.587 C375.513,38.055 377.425,40.463 382.1,40.463 C386.062,40.463 388.753,38.128 388.753,34.443 C388.753,30.267 386.345,28.07 382.309,28.07 z M374.521,60.576 C373.599,61.707 372.68,62.909 372.68,64.328 C372.68,67.158 376.29,68.01 381.248,68.01 C385.355,68.01 390.949,67.722 390.949,63.904 C390.949,61.634 388.258,61.494 384.857,61.281 L374.521,60.576 z M395.48,28.284 C396.753,29.913 398.1,32.18 398.1,35.437 C398.1,43.296 391.939,47.898 383.02,47.898 C380.751,47.898 378.698,47.616 377.425,47.262 L375.087,51.014 L382.026,51.438 C394.277,52.219 401.497,52.574 401.497,61.988 C401.497,70.133 394.347,74.733 382.026,74.733 C369.209,74.733 364.324,71.476 364.324,65.882 C364.324,62.695 365.74,61 368.218,58.659 C365.881,57.671 365.103,55.902 365.103,53.989 C365.103,52.43 365.881,51.014 367.158,49.668 C368.432,48.325 369.847,46.977 371.547,45.42 C368.078,43.72 365.457,40.038 365.457,34.797 C365.457,26.656 370.839,21.064 381.671,21.064 C384.716,21.064 386.558,21.343 388.187,21.771 L401.996,21.771 L401.996,27.788 L395.48,28.284" fill="#404040"/>
      <path d="M414.453,15.417 C410.416,15.417 408.08,13.079 408.08,9.041 C408.08,5.008 410.416,2.812 414.453,2.812 C418.56,2.812 420.897,5.008 420.897,9.041 C420.897,13.079 418.56,15.417 414.453,15.417 z M405.317,57.97 L405.317,52.379 L408.929,51.885 C409.921,51.742 410.062,51.53 410.062,50.466 L410.062,29.648 C410.062,28.871 409.85,28.373 409.14,28.162 L405.317,26.816 L406.096,21.082 L420.755,21.082 L420.755,50.466 C420.755,51.601 420.823,51.742 421.888,51.885 L425.5,52.379 L425.5,57.97 L405.317,57.97" fill="#404040"/>
      <g clip-path="url(#Clip_2)">
        <path d="M453.501,55.225 C450.455,56.711 445.995,58.056 441.957,58.056 C433.531,58.056 430.345,54.661 430.345,46.656 L430.345,28.105 C430.345,27.681 430.345,27.397 429.777,27.397 L424.821,27.397 L424.821,21.094 C431.054,20.385 433.531,17.269 434.309,9.551 L441.037,9.551 L441.037,19.609 C441.037,20.103 441.037,20.317 441.604,20.317 L451.587,20.317 L451.587,27.397 L441.037,27.397 L441.037,44.319 C441.037,48.497 442.03,50.124 445.851,50.124 C447.837,50.124 449.888,49.63 451.587,48.993 L453.501,55.225" fill="#404040"/>
        <path d="M348.583,36.643 L316.207,4.269 C314.344,2.404 311.32,2.404 309.454,4.269 L302.731,10.992 L311.26,19.52 C313.242,18.85 315.514,19.3 317.094,20.88 C318.681,22.469 319.127,24.761 318.441,26.75 L326.661,34.969 C328.649,34.284 330.943,34.727 332.532,36.318 C334.751,38.537 334.751,42.133 332.532,44.353 C330.311,46.574 326.715,46.574 324.494,44.353 C322.824,42.682 322.412,40.23 323.257,38.173 L315.592,30.508 L315.591,50.679 C316.132,50.948 316.643,51.305 317.094,51.754 C319.314,53.973 319.314,57.569 317.094,59.791 C314.874,62.01 311.276,62.01 309.059,59.791 C306.839,57.569 306.839,53.973 309.059,51.754 C309.607,51.206 310.242,50.792 310.919,50.514 L310.919,30.155 C310.242,29.878 309.608,29.467 309.059,28.915 C307.377,27.236 306.973,24.768 307.834,22.703 L299.428,14.295 L277.228,36.493 C275.363,38.359 275.363,41.384 277.228,43.248 L309.605,75.623 C311.469,77.488 314.492,77.488 316.359,75.623 L348.583,43.399 C350.448,41.533 350.448,38.507 348.583,36.643" fill="#404040"/>
      </g>
    </g>
    <path d="M609.986,50.267 C608.857,49.067 608.286,47.377 608.286,45.197 C608.286,43.107 608.566,41.067 609.126,39.087 C609.676,37.107 610.436,35.347 611.396,33.817 C612.357,32.287 613.486,31.057 614.806,30.147 C616.116,29.237 617.536,28.777 619.047,28.777 C620.866,28.777 622.336,29.387 623.446,30.617 C624.556,31.837 625.116,33.457 625.116,35.457 C625.116,37.467 624.836,39.457 624.276,41.427 C623.727,43.407 622.966,45.197 622.016,46.767 C621.056,48.347 619.917,49.627 618.607,50.607 C617.286,51.587 615.896,52.077 614.436,52.077 C612.596,52.067 611.116,51.467 609.986,50.267 M610.146,25.157 C607.917,26.407 606.006,28.047 604.406,30.097 C602.806,32.147 601.566,34.497 600.696,37.137 C599.826,39.787 599.396,42.507 599.396,45.317 C599.396,47.097 599.667,48.727 600.196,50.227 C600.727,51.717 601.496,53.007 602.496,54.097 C603.496,55.187 604.696,56.037 606.096,56.637 C607.506,57.237 609.066,57.537 610.806,57.537 C613.026,57.537 615.056,57.007 616.876,55.937 C618.696,54.867 620.286,53.487 621.616,51.797 C621.616,55.627 623.977,57.537 628.696,57.537 C629.716,57.537 630.667,57.447 631.536,57.267 C632.406,57.087 633.286,56.887 634.176,56.667 L635.516,51.727 C635.026,51.907 634.607,52.027 634.246,52.097 C633.886,52.157 633.486,52.197 633.047,52.197 C631.667,52.197 630.977,51.487 630.977,50.067 C630.977,49.357 631.156,48.367 631.506,47.097 C631.866,45.827 632.266,44.367 632.706,42.727 L637.786,23.497 C637.116,23.717 636.316,23.887 635.376,23.997 C634.446,24.117 633.376,24.167 632.176,24.167 L628.836,24.167 L627.096,30.447 C626.526,28.177 625.406,26.417 623.756,25.167 C622.116,23.927 620.026,23.297 617.486,23.297 C614.826,23.287 612.376,23.917 610.146,25.157 M687.227,51.427 C686.466,51.047 685.826,50.567 685.286,49.957 C684.756,49.357 684.357,48.657 684.086,47.857 C683.816,47.057 683.686,46.237 683.686,45.387 C683.686,43.387 683.946,41.387 684.456,39.407 C684.966,37.427 685.686,35.647 686.626,34.067 C687.556,32.487 688.667,31.207 689.936,30.227 C691.206,29.247 692.596,28.757 694.107,28.757 C695.926,28.757 697.396,29.357 698.506,30.557 C699.616,31.757 700.196,33.447 700.246,35.627 C700.246,37.717 699.977,39.757 699.446,41.737 C698.917,43.727 698.167,45.467 697.206,46.977 C696.246,48.487 695.136,49.707 693.866,50.607 C692.596,51.517 691.246,51.977 689.826,51.977 C688.846,51.997 687.986,51.807 687.227,51.427 M692.066,24.697 C690.396,25.627 688.917,26.857 687.626,28.367 L688.956,23.487 C688.156,23.667 687.047,23.817 685.616,23.957 C684.196,24.087 682.656,24.157 681.006,24.157 L674.996,24.157 L673.656,29.167 L677.466,29.167 C677.866,29.167 678.126,29.317 678.236,29.597 C678.346,29.887 678.297,30.407 678.066,31.167 L669.786,61.407 C669.566,62.167 669.336,62.637 669.086,62.847 C668.836,63.047 668.536,63.147 668.186,63.147 L665.246,63.147 L663.906,68.157 L681.536,68.157 L682.866,63.147 L679.456,63.147 C679.096,63.147 678.846,63.047 678.686,62.847 C678.526,62.647 678.566,62.167 678.786,61.407 L681.727,50.457 C682.306,52.597 683.436,54.307 685.136,55.597 C686.826,56.887 689.006,57.527 691.676,57.527 C694.386,57.527 696.826,56.927 698.986,55.727 C701.146,54.527 702.986,52.927 704.496,50.917 C706.006,48.907 707.167,46.617 707.966,44.007 C708.766,41.397 709.167,38.677 709.167,35.827 C709.167,34.047 708.906,32.387 708.396,30.857 C707.886,29.317 707.136,27.987 706.136,26.847 C705.136,25.717 703.906,24.827 702.466,24.207 C701.016,23.587 699.386,23.277 697.556,23.277 C695.576,23.287 693.736,23.757 692.066,24.697 M658.607,24.827 C656.986,25.987 655.596,27.567 654.436,29.567 L656.107,23.487 C655.306,23.667 654.186,23.817 652.766,23.957 C651.336,24.087 649.806,24.157 648.156,24.157 L641.946,24.157 L640.607,29.167 L644.607,29.167 C645.006,29.167 645.266,29.317 645.376,29.597 C645.486,29.887 645.436,30.407 645.206,31.167 L638.206,56.677 L647.146,56.677 L650.016,45.997 C650.766,43.147 651.526,40.637 652.276,38.457 C653.036,36.277 653.846,34.447 654.716,32.987 C655.586,31.517 656.536,30.407 657.586,29.647 C658.636,28.897 659.826,28.507 661.156,28.507 C661.646,28.507 662.116,28.597 662.566,28.777 C663.006,28.957 663.346,29.207 663.566,29.517 C662.417,29.697 661.466,30.227 660.736,31.117 C660.006,32.007 659.656,32.957 659.696,33.987 C659.736,35.147 660.167,36.097 660.966,36.857 C661.766,37.617 662.876,37.987 664.297,37.987 C665.276,37.987 666.176,37.747 667.006,37.287 C667.826,36.827 668.536,36.197 669.136,35.417 C669.736,34.637 670.196,33.747 670.506,32.717 C670.816,31.697 670.946,30.607 670.906,29.447 C670.816,27.577 670.176,26.057 668.977,24.867 C667.776,23.687 666.126,23.097 664.036,23.097 C662.036,23.097 660.227,23.677 658.607,24.827 M576.917,12.147 C575.466,12.277 573.926,12.347 572.276,12.347 L566.466,12.347 L565.066,17.347 L568.536,17.347 C568.977,17.347 569.246,17.497 569.336,17.787 C569.426,18.077 569.357,18.597 569.136,19.357 L559.056,56.677 L567.936,56.677 C569.176,51.737 570.417,47.517 571.636,44.027 C572.857,40.537 574.096,37.677 575.336,35.447 C576.586,33.217 577.857,31.597 579.146,30.577 C580.436,29.557 581.776,29.037 583.156,29.037 C584.176,29.037 585.047,29.337 585.756,29.937 C586.477,30.537 586.826,31.417 586.826,32.577 C586.826,33.107 586.686,33.877 586.426,34.877 C586.156,35.877 585.836,36.977 585.456,38.187 C585.076,39.387 584.667,40.657 584.216,41.987 C583.776,43.327 583.357,44.617 582.986,45.867 C582.607,47.107 582.286,48.257 582.016,49.307 C581.746,50.357 581.616,51.187 581.616,51.807 C581.616,53.847 582.216,55.317 583.417,56.217 C584.616,57.107 586.306,57.547 588.486,57.547 C589.466,57.547 590.446,57.487 591.426,57.347 C592.406,57.217 593.336,56.987 594.227,56.677 L595.556,51.737 C594.667,52.047 593.846,52.207 593.086,52.207 C591.756,52.207 591.086,51.557 591.086,50.267 C591.086,49.647 591.366,48.487 591.926,46.797 C592.477,45.107 593.086,43.257 593.756,41.227 C594.426,39.197 595.036,37.207 595.596,35.257 C596.146,33.297 596.436,31.767 596.436,30.647 C596.436,28.247 595.596,26.427 593.926,25.177 C592.256,23.937 590.227,23.307 587.816,23.307 C585.056,23.307 582.607,23.997 580.477,25.377 C578.336,26.757 576.426,28.757 574.736,31.387 L580.216,11.677 C579.456,11.857 578.366,12.007 576.917,12.147" fill="#404040" id="wordmark"/>
    <text transform="matrix(1, 0, 0, 1, 111.5, 129.688)">
      <tspan x="-109.5" y="5.5" font-family="Georgia" font-size="25" fill="#404040">1. Update Code</tspan>
    </text>
    <text transform="matrix(1, 0, 0, 1, 367.167, 129.688)">
      <tspan x="-92.5" y="5.5" font-family="Georgia" font-size="25" fill="#404040">2. Push to server</tspan>
    </text>
    <text transform="matrix(1, 0, 0, 1, 634.111, 129.688)">
      <tspan x="-117.5" y="5.5" font-family="Georgia" font-size="25" fill="#404040">3. Compile with harp</tspan>
    </text>
  </g>
</svg>
