<?xml version="1.0" encoding="UTF-8"?>
<!DOCTYPE svg PUBLIC "-//W3C//DTD SVG 1.1//EN" "http://www.w3.org/Graphics/SVG/1.1/DTD/svg11.dtd">
<svg version="1.1" xmlns="http://www.w3.org/2000/svg" xmlns:xlink="http://www.w3.org/1999/xlink" x="0" y="0" width="128.184" height="102.381" viewBox="0, 0, 128.184, 102.381">
  <g id="Background">
    <rect x="0" y="0" width="128.184" height="102.381" fill="#000000" fill-opacity="0"/>
  </g>
  <g id="Layer_1">
    <g>
      <g>
        <path d="M64.092,102.381 C28.695,102.381 -0,96.432 -0,89.094 C-0,81.756 28.695,75.807 64.092,75.807 C99.489,75.807 128.184,81.756 128.184,89.094 C128.184,96.432 99.489,102.381 64.092,102.381 z" fill="#8FACE3"/>
        <path d="M-0,47.669 L128.184,47.669 L128.184,89.094 L-0,89.094 L-0,47.669 z" fill="#8FACE3"/>
      </g>
      <g>
        <path d="M62.75,59.802 L62.75,89.094 L0,89.094 L0,59.802 L62.75,59.802 z" fill="#839ED0"/>
        <path d="M60.161,85.571 C86.16,93.88 99.293,87.808 99.293,87.808 L99.293,93.79 C99.293,93.79 90.895,94.148 62.395,102.367 C61.501,99.151 60.429,85.392 60.161,85.571 z" fill="#839ED0"/>
        <path d="M60.161,70.57 C64.566,74.266 99.293,74.094 99.293,74.094 L99.293,78.906 C99.293,78.906 72.387,81.914 60.161,86.843 C45.401,91.883 53.566,72.633 60.161,70.57 z" fill="#839ED0"/>
        <path d="M62.75,75.821 L62.75,102.367 C45.525,101.811 25.804,101.626 9.279,95.984 C6.087,94.894 0.49,93.113 -0,89.094 C1.093,82.727 16.038,80.193 20.998,79.258 C34.746,76.668 48.79,75.967 62.75,75.821 z" fill="#839ED0"/>
      </g>
      <g>
        <path d="M-0,47.669 L128.184,47.669 L128.184,60.956 L-0,60.956 L-0,47.669 z" fill="#C69A63"/>
        <path d="M64.092,75.028 C28.695,75.028 -0,69.079 -0,61.74 C-0,54.402 28.695,48.453 64.092,48.453 C99.489,48.453 128.184,54.402 128.184,61.74 C128.184,69.079 99.489,75.028 64.092,75.028 z" fill="#C69A63"/>
      </g>
      <g>
        <path d="M-0,47.669 L61.916,47.669 L61.916,60.956 L-0,60.956 L-0,47.669 z" fill="#C68B40"/>
        <path d="M62.102,60.88 C78.521,66.083 99.293,63.162 99.293,63.162 L99.293,68.365 C99.293,68.365 72.534,70.373 62.646,75.028 C52.936,74.697 51.783,62.497 62.102,60.88 z" fill="#C68B40"/>
        <path d="M61.916,48.499 L61.916,75.028 C44.948,74.455 25.552,74.209 9.279,68.653 C6.087,67.563 0.49,65.782 -0,61.763 C1.093,55.396 16.038,52.862 20.998,51.928 C34.465,49.39 48.239,48.642 61.916,48.499 z" fill="#C68B40"/>
      </g>
      <path d="M64.092,60.956 C28.695,60.956 0,55.007 0,47.669 C0,40.33 28.695,34.381 64.092,34.381 C99.489,34.381 128.184,40.33 128.184,47.669 C128.184,55.007 99.489,60.956 64.092,60.956 z" fill="#C68B40"/>
      <path d="M64.092,59.802 C29.655,59.802 1.739,54.371 1.739,47.672 C1.739,40.973 29.655,35.542 64.092,35.542 C98.529,35.542 126.445,40.973 126.445,47.672 C126.445,54.371 98.529,59.802 64.092,59.802 z" fill="#C8760D"/>
    </g>
    <g>
      <g>
        <path d="M72.725,52.763 C49.821,52.763 31.254,48.914 31.254,44.165 C31.254,39.417 49.821,35.568 72.725,35.568 C95.629,35.568 114.196,39.417 114.196,44.165 C114.196,48.914 95.629,52.763 72.725,52.763 z" fill="#B13A30"/>
        <path d="M31.254,17.361 L114.196,17.361 L114.196,44.165 L31.254,44.165 L31.254,17.361 z" fill="#B13A30"/>
      </g>
      <g>
        <path d="M71.856,25.212 L71.856,44.165 L31.254,44.165 L31.254,25.212 L71.856,25.212 z" fill="#9E1C11"/>
        <path d="M70.181,41.886 C87.004,47.262 95.502,43.333 95.502,43.333 L95.502,47.204 C95.502,47.204 90.068,47.436 71.627,52.754 C71.049,50.673 70.355,41.77 70.181,41.886 z" fill="#9E1C11"/>
        <path d="M70.181,32.179 C73.032,34.571 95.502,34.459 95.502,34.459 L95.502,37.573 C95.502,37.573 78.092,39.52 70.181,42.709 C60.631,45.97 65.914,33.514 70.181,32.179 z" fill="#9E1C11"/>
        <path d="M71.856,35.577 L71.856,52.754 C60.711,52.394 47.95,52.274 37.258,48.624 C35.192,47.919 31.57,46.766 31.254,44.165 C31.961,40.046 41.631,38.406 44.84,37.801 C53.736,36.125 62.823,35.671 71.856,35.577 z" fill="#9E1C11"/>
      </g>
      <g>
        <path d="M31.254,17.361 L114.196,17.361 L114.196,25.959 L31.254,25.959 L31.254,17.361 z" fill="#9E2E25"/>
        <path d="M72.725,35.064 C49.821,35.064 31.254,31.214 31.254,26.466 C31.254,21.718 49.821,17.868 72.725,17.868 C95.629,17.868 114.196,21.718 114.196,26.466 C114.196,31.214 95.629,35.064 72.725,35.064 z" fill="#9E2E25"/>
      </g>
      <g>
        <g>
          <path d="M31.254,17.361 L71.317,17.361 L71.317,25.959 L31.254,25.959 L31.254,17.361 z" fill="#951A10"/>
          <path d="M71.437,25.91 C82.061,29.276 95.502,27.386 95.502,27.386 L95.502,30.752 C95.502,30.752 78.187,32.052 71.79,35.064 C65.507,34.85 64.76,26.956 71.437,25.91 z" fill="#951A10"/>
          <path d="M71.317,17.898 L71.317,35.064 C60.338,34.693 47.787,34.534 37.258,30.939 C35.192,30.234 31.57,29.081 31.254,26.481 C31.961,22.361 41.631,20.721 44.84,20.117 C53.554,18.475 62.467,17.99 71.317,17.898 z" fill="#951A10"/>
        </g>
        <path d="M72.725,25.959 C49.821,25.959 31.254,22.109 31.254,17.361 C31.254,12.613 49.821,8.763 72.725,8.763 C95.629,8.763 114.196,12.613 114.196,17.361 C114.196,22.109 95.629,25.959 72.725,25.959 z" fill="#951A10"/>
      </g>
      <path d="M72.725,25.212 C50.442,25.212 32.379,21.698 32.379,17.363 C32.379,13.028 50.442,9.514 72.725,9.514 C95.007,9.514 113.071,13.028 113.071,17.363 C113.071,21.698 95.007,25.212 72.725,25.212 z" fill="#7C0B02"/>
    </g>
    <g>
      <g>
        <path d="M64.092,21 C53.161,21 44.299,19.163 44.299,16.896 C44.299,14.63 53.161,12.793 64.092,12.793 C75.023,12.793 83.885,14.63 83.885,16.896 C83.885,19.163 75.023,21 64.092,21 z" fill="#ACBD9E"/>
        <path d="M44.299,4.103 L83.885,4.103 L83.885,16.896 L44.299,16.896 L44.299,4.103 z" fill="#ACBD9E"/>
      </g>
      <g>
        <path d="M63.677,7.85 L63.677,16.897 L44.299,16.897 L44.299,7.85 L63.677,7.85 z" fill="#9DB28A"/>
        <path d="M62.878,15.809 C70.907,18.374 74.963,16.499 74.963,16.499 L74.963,18.347 C74.963,18.347 72.369,18.457 63.568,20.996 C63.292,20.002 62.961,15.753 62.878,15.809 z" fill="#9DB28A"/>
        <path d="M62.878,11.176 C64.238,12.317 74.963,12.264 74.963,12.264 L74.963,13.75 C74.963,13.75 66.654,14.679 62.878,16.201 C58.32,17.758 60.841,11.813 62.878,11.176 z" fill="#9DB28A"/>
        <path d="M63.678,12.797 L63.678,20.996 C58.358,20.824 52.268,20.767 47.164,19.024 C46.179,18.688 44.45,18.138 44.299,16.897 C44.636,14.93 49.252,14.148 50.784,13.859 C55.029,13.059 59.366,12.842 63.678,12.797 z" fill="#9DB28A"/>
      </g>
      <g>
        <path d="M44.299,4.103 L83.885,4.103 L83.885,8.207 L44.299,8.207 L44.299,4.103 z" fill="#68774A"/>
        <path d="M64.092,12.552 C53.161,12.552 44.299,10.715 44.299,8.449 C44.299,6.183 53.161,4.346 64.092,4.346 C75.023,4.346 83.885,6.183 83.885,8.449 C83.885,10.715 75.023,12.552 64.092,12.552 z" fill="#68774A"/>
      </g>
      <g>
        <g>
          <path d="M44.299,4.103 L63.42,4.103 L63.42,8.207 L44.299,8.207 L44.299,4.103 z" fill="#5E6B43"/>
          <path d="M63.478,8.183 C68.548,9.79 74.963,8.888 74.963,8.888 L74.963,10.495 C74.963,10.495 66.699,11.115 63.646,12.552 C60.647,12.451 60.291,8.683 63.478,8.183 z" fill="#5E6B43"/>
          <path d="M63.42,4.36 L63.42,12.552 C58.18,12.376 52.19,12.3 47.164,10.584 C46.179,10.247 44.45,9.697 44.299,8.456 C44.636,6.49 49.252,5.707 50.784,5.419 C54.942,4.635 59.196,4.404 63.42,4.36 z" fill="#5E6B43"/>
        </g>
        <path d="M64.092,8.207 C53.161,8.207 44.299,6.37 44.299,4.103 C44.299,1.837 53.161,0 64.092,0 C75.023,0 83.885,1.837 83.885,4.103 C83.885,6.37 75.023,8.207 64.092,8.207 z" fill="#5E6B43"/>
      </g>
      <path d="M64.092,7.85 C53.457,7.85 44.836,6.173 44.836,4.104 C44.836,2.035 53.457,0.358 64.092,0.358 C74.727,0.358 83.348,2.035 83.348,4.104 C83.348,6.173 74.727,7.85 64.092,7.85 z" fill="#525D3A"/>
    </g>
  </g>
</svg>
