<?xml version="1.0" encoding="UTF-8"?>
<!DOCTYPE svg PUBLIC "-//W3C//DTD SVG 1.1//EN" "http://www.w3.org/Graphics/SVG/1.1/DTD/svg11.dtd">
<svg version="1.1" xmlns="http://www.w3.org/2000/svg" xmlns:xlink="http://www.w3.org/1999/xlink" x="0" y="0" width="216" height="30.703" viewBox="0, 0, 216, 30.703">
  <g id="Background">
    <rect x="0" y="0" width="216" height="30.703" fill="#000000" fill-opacity="0"/>
  </g>
  <g id="Layer_1">
    <g>
      <path d="M3.483,11.205 L7.857,11.205 C9.809,11.205 10.975,10.189 10.975,8.488 C10.975,6.786 9.809,5.77 7.857,5.77 L3.483,5.77 z M3.483,20.178 L8.143,20.178 C10.083,20.178 11.289,19.061 11.289,17.261 C11.289,15.48 10.083,14.373 8.143,14.373 L3.483,14.373 z M8.43,23.347 L0,23.347 L0,2.602 L8.115,2.602 C12.027,2.602 14.458,4.814 14.458,8.373 C14.458,10.479 13.275,11.999 11.991,12.685 C13.741,13.558 14.772,15.29 14.772,17.404 C14.772,21.07 12.341,23.347 8.43,23.347" fill="#1E4E7B"/>
      <path d="M21.482,6.085 L17.999,6.085 L17.999,2.602 L21.482,2.602 z M21.396,23.346 L18.085,23.346 L18.085,8.46 L21.396,8.46 z" fill="#1E4E7B"/>
      <path d="M31.03,11.286 C28.591,11.286 28.255,13.375 28.255,15.632 C28.255,17.89 28.591,19.979 31.03,19.979 C33.309,19.979 33.776,18.241 33.776,15.632 C33.776,13.023 33.309,11.286 31.03,11.286 M30.687,29.377 C28.411,29.377 26.988,28.845 25.437,27.41 L25.286,27.271 L27.425,25.132 L27.564,25.263 C28.398,26.043 29.157,26.495 30.572,26.495 C33.464,26.495 33.776,24.055 33.776,23.005 L33.776,21.656 C32.841,22.584 31.727,23.004 30.229,23.004 C28.776,23.004 27.498,22.527 26.631,21.659 C25.226,20.255 24.944,18.312 24.944,15.632 C24.944,12.953 25.226,11.01 26.631,9.605 C27.479,8.757 28.767,8.29 30.258,8.29 C31.802,8.29 32.908,8.713 33.861,9.686 L33.861,8.461 L37.086,8.461 L37.086,23.063 C37.086,26.84 34.514,29.377 30.687,29.377" fill="#1E4E7B"/>
      <path d="M43.867,14.52 L49.973,14.52 C49.938,13.794 49.848,13.402 49.597,12.824 C49.146,11.753 48.146,11.114 46.921,11.114 C45.678,11.114 44.667,11.753 44.216,12.822 C43.965,13.399 43.898,13.781 43.867,14.52 M47.291,23.518 C44.229,23.518 40.578,22.195 40.578,15.89 C40.578,11.202 43.008,8.29 46.921,8.29 C50.773,8.29 53.263,11.105 53.263,15.46 L53.263,16.946 L43.862,16.946 C43.929,19.277 45.192,20.607 47.349,20.607 C48.996,20.607 49.778,20.126 50.724,19.179 L50.859,19.044 L53.006,21.058 L52.862,21.203 C51.432,22.632 50.002,23.518 47.291,23.518" fill="#1E4E7B"/>
      <path d="M62.808,23.347 L60.81,23.347 C57.735,23.347 56.639,21.177 56.639,19.147 L56.639,2.602 L59.95,2.602 L59.95,18.976 C59.95,20.06 60.322,20.464 61.324,20.464 L62.808,20.464 z" fill="#1E4E7B"/>
      <path d="M70.583,11.286 C69.784,11.286 69.119,11.545 68.608,12.056 C67.739,12.926 67.666,14.491 67.666,15.89 C67.666,17.288 67.739,18.853 68.608,19.722 C69.131,20.246 69.814,20.522 70.583,20.522 C71.371,20.522 72.064,20.246 72.587,19.722 C73.369,18.94 73.529,17.624 73.529,15.89 C73.529,14.492 73.457,12.927 72.587,12.056 C72.083,11.552 71.39,11.286 70.583,11.286 M70.583,23.518 C68.792,23.518 67.251,22.904 66.126,21.743 C64.569,20.123 64.354,17.973 64.354,15.89 C64.354,13.822 64.569,11.685 66.125,10.065 C67.251,8.904 68.792,8.29 70.583,8.29 C72.868,8.29 74.284,9.255 75.07,10.065 C76.626,11.686 76.84,13.823 76.84,15.89 C76.84,17.973 76.626,20.122 75.07,21.742 C74.284,22.553 72.868,23.518 70.583,23.518" fill="#1CA6DB"/>
      <path d="M94.704,23.347 L91.93,23.347 L88.674,13.653 L85.441,23.347 L82.638,23.347 L78.028,8.46 L81.535,8.46 L84.202,18.178 L87.414,8.46 L89.958,8.46 L93.142,18.175 L95.808,8.46 L99.344,8.46 z" fill="#1E4E7B"/>
      <path d="M124.013,13.088 L117.336,13.088 L117.336,2.616 L119.027,2.616 L119.027,11.557 L124.013,11.557 z" fill="#1CA6DB"/>
      <path d="M127.862,9.832 C127.048,9.832 126.599,10.187 126.599,10.832 C126.599,11.496 127.022,11.818 127.891,11.818 C128.411,11.818 128.841,11.789 129.229,11.414 C129.435,11.208 129.531,10.876 129.531,10.368 L129.531,9.832 z M127.658,13.176 C126.748,13.176 126.106,12.957 125.638,12.488 C125.252,12.088 125.039,11.511 125.039,10.862 C125.039,9.495 126.013,8.679 127.644,8.679 L129.531,8.679 L129.531,8.216 C129.531,7.29 129.066,6.895 127.978,6.895 C127.199,6.895 126.818,7.063 126.412,7.584 L126.371,7.637 L125.307,6.636 L125.345,6.592 C126.03,5.793 126.734,5.51 128.036,5.51 C130.093,5.51 131.135,6.381 131.135,8.1 L131.135,13.089 L129.56,13.089 L129.56,12.502 C129.028,12.997 128.513,13.176 127.658,13.176" fill="#1CA6DB"/>
      <path d="M136.465,6.954 C135.237,6.954 134.985,7.906 134.985,9.335 C134.985,11.441 135.696,11.731 136.465,11.731 C137.681,11.731 137.931,10.774 137.931,9.335 C137.931,7.906 137.681,6.954 136.465,6.954 M136.843,13.176 C136.011,13.176 135.453,12.95 134.956,12.405 L134.956,13.088 L133.382,13.088 L133.382,2.617 L134.985,2.617 L134.985,6.24 C135.464,5.729 136.033,5.51 136.858,5.51 C137.594,5.51 138.261,5.755 138.688,6.182 C139.432,6.926 139.535,8.137 139.535,9.335 C139.535,10.541 139.432,11.76 138.689,12.504 C138.261,12.93 137.589,13.176 136.843,13.176" fill="#1CA6DB"/>
      <path d="M144.285,6.954 C143.867,6.954 143.52,7.089 143.252,7.357 C142.799,7.81 142.761,8.616 142.761,9.335 C142.761,10.054 142.799,10.86 143.252,11.313 C143.526,11.587 143.883,11.731 144.285,11.731 C144.697,11.731 145.059,11.587 145.332,11.313 C145.785,10.861 145.823,10.054 145.823,9.335 C145.823,8.616 145.785,7.81 145.333,7.357 C145.069,7.093 144.707,6.954 144.285,6.954 M144.285,13.176 C143.385,13.176 142.611,12.867 142.047,12.285 C141.265,11.47 141.157,10.386 141.157,9.335 C141.157,8.292 141.265,7.215 142.047,6.401 C142.611,5.818 143.385,5.51 144.285,5.51 C145.433,5.51 146.144,5.994 146.538,6.4 C147.32,7.215 147.427,8.292 147.427,9.335 C147.427,10.386 147.32,11.47 146.538,12.284 C146.144,12.691 145.433,13.176 144.285,13.176" fill="#1CA6DB"/>
      <path d="M153.472,7.43 C153.155,7.114 152.904,6.954 152.41,6.954 C151.594,6.954 151.002,7.625 151.002,8.551 L151.002,13.088 L149.398,13.088 L149.398,5.597 L150.973,5.597 L150.973,6.286 C151.398,5.81 152.123,5.51 152.875,5.51 C153.636,5.51 154.175,5.724 154.676,6.225 z" fill="#1CA6DB"/>
      <path d="M157.732,9.832 C156.918,9.832 156.47,10.187 156.47,10.832 C156.47,11.496 156.892,11.818 157.761,11.818 C158.281,11.818 158.711,11.789 159.1,11.414 C159.305,11.208 159.401,10.876 159.401,10.368 L159.401,9.832 z M157.529,13.176 C156.618,13.176 155.977,12.957 155.509,12.488 C155.122,12.088 154.909,11.511 154.909,10.862 C154.909,9.495 155.883,8.679 157.514,8.679 L159.401,8.679 L159.401,8.216 C159.401,7.29 158.937,6.895 157.848,6.895 C157.069,6.895 156.688,7.063 156.283,7.584 L156.242,7.637 L155.177,6.636 L155.215,6.592 C155.9,5.793 156.604,5.51 157.906,5.51 C159.963,5.51 161.005,6.381 161.005,8.1 L161.005,13.089 L159.43,13.089 L159.43,12.502 C158.902,12.991 158.372,13.176 157.529,13.176" fill="#1CA6DB"/>
      <path d="M166.455,13.088 L165.508,13.088 C164.07,13.088 163.426,12.028 163.426,10.978 L163.426,6.983 L162.584,6.983 L162.584,5.727 L163.426,5.727 L163.426,3.489 L165.031,3.489 L165.031,5.727 L166.455,5.727 L166.455,6.983 L165.031,6.983 L165.031,10.905 C165.031,11.434 165.284,11.702 165.784,11.702 L166.455,11.702 z" fill="#1CA6DB"/>
      <path d="M170.885,6.954 C170.467,6.954 170.12,7.089 169.852,7.357 C169.399,7.81 169.361,8.616 169.361,9.335 C169.361,10.054 169.399,10.86 169.852,11.313 C170.126,11.587 170.483,11.731 170.885,11.731 C171.296,11.731 171.659,11.587 171.933,11.313 C172.386,10.86 172.423,10.054 172.423,9.335 C172.423,8.616 172.386,7.81 171.933,7.357 C171.669,7.093 171.306,6.954 170.885,6.954 M170.885,13.176 C169.985,13.176 169.211,12.867 168.646,12.285 C167.865,11.47 167.757,10.386 167.757,9.335 C167.757,8.292 167.865,7.215 168.646,6.401 C169.211,5.818 169.985,5.51 170.885,5.51 C172.033,5.51 172.744,5.994 173.138,6.4 C173.92,7.215 174.028,8.292 174.028,9.335 C174.028,10.386 173.92,11.47 173.138,12.284 C172.744,12.691 172.033,13.176 170.885,13.176" fill="#1CA6DB"/>
      <path d="M179.943,7.43 C179.626,7.114 179.375,6.954 178.881,6.954 C178.065,6.954 177.473,7.625 177.473,8.551 L177.473,13.088 L175.869,13.088 L175.869,5.597 L177.444,5.597 L177.444,6.285 C177.868,5.81 178.593,5.51 179.346,5.51 C180.107,5.51 180.646,5.724 181.147,6.225 z" fill="#1CA6DB"/>
      <path d="M182.874,16.009 L182.217,16.009 L182.217,14.551 L182.656,14.551 C183.236,14.551 183.443,14.397 183.66,13.806 L184.059,12.678 L181.464,5.596 L183.164,5.596 L183.178,5.637 L184.879,10.655 L186.551,5.596 L188.266,5.596 L188.236,5.677 L184.98,14.516 C184.834,14.924 184.659,15.223 184.428,15.453 C184.055,15.827 183.546,16.009 182.874,16.009" fill="#1CA6DB"/>
      <path d="M194.25,13.088 L192.646,13.088 L192.646,6.983 L191.803,6.983 L191.803,5.727 L192.646,5.727 L192.646,4.654 C192.646,3.604 193.289,2.544 194.727,2.544 L195.718,2.544 L195.718,3.93 L195.003,3.93 C194.504,3.93 194.25,4.198 194.25,4.727 L194.25,5.727 L195.718,5.727 L195.718,6.983 L194.25,6.983 z" fill="#1CA6DB"/>
      <path d="M199.754,6.954 C199.336,6.954 198.988,7.089 198.721,7.357 C198.268,7.81 198.23,8.616 198.23,9.335 C198.23,10.054 198.268,10.861 198.721,11.313 C198.995,11.587 199.352,11.731 199.754,11.731 C200.165,11.731 200.528,11.587 200.802,11.313 C201.254,10.86 201.292,10.054 201.292,9.335 C201.292,8.616 201.254,7.81 200.802,7.357 C200.538,7.093 200.175,6.954 199.754,6.954 M199.754,13.176 C198.854,13.176 198.08,12.867 197.515,12.285 C196.734,11.47 196.626,10.386 196.626,9.335 C196.626,8.292 196.734,7.215 197.515,6.401 C198.08,5.818 198.854,5.51 199.754,5.51 C200.903,5.51 201.613,5.994 202.007,6.4 C202.789,7.215 202.896,8.292 202.896,9.335 C202.896,10.386 202.789,11.47 202.007,12.284 C201.613,12.691 200.903,13.176 199.754,13.176" fill="#1CA6DB"/>
      <path d="M208.813,7.43 C208.496,7.114 208.245,6.954 207.751,6.954 C206.935,6.954 206.343,7.625 206.343,8.551 L206.343,13.088 L204.739,13.088 L204.739,5.597 L206.314,5.597 L206.314,6.285 C206.738,5.81 207.463,5.51 208.216,5.51 C208.977,5.51 209.516,5.724 210.017,6.225 z" fill="#1CA6DB"/>
      <path d="M120.74,18.597 C120.163,18.597 119.603,18.829 119.244,19.217 C118.755,19.749 118.649,20.312 118.649,22.389 C118.649,24.466 118.755,25.029 119.244,25.561 C119.603,25.949 120.163,26.181 120.74,26.181 C121.318,26.181 121.878,25.949 122.237,25.561 C122.726,25.029 122.831,24.466 122.831,22.389 C122.831,20.312 122.726,19.749 122.237,19.217 C121.878,18.829 121.318,18.597 120.74,18.597 M120.74,27.712 C119.653,27.712 118.724,27.334 117.979,26.589 C116.958,25.568 116.958,24.403 116.958,22.473 L116.958,22.306 C116.958,20.375 116.958,19.209 117.979,18.189 C118.724,17.443 119.653,17.066 120.74,17.066 C121.837,17.066 122.771,17.443 123.516,18.189 C124.524,19.196 124.523,20.337 124.522,22.229 L124.522,22.549 C124.523,24.44 124.524,25.581 123.516,26.589 C122.77,27.334 121.836,27.712 120.74,27.712" fill="#1CA6DB"/>
      <path d="M129.52,27.712 C128.875,27.712 127.951,27.561 127.214,26.84 C126.524,26.168 126.174,25.168 126.174,23.872 C126.174,22.974 126.415,20.046 129.52,20.046 C130.573,20.046 131.289,20.351 131.991,21.098 L132.033,21.141 L130.928,22.214 L130.886,22.168 C130.422,21.662 130.078,21.49 129.52,21.49 C128.978,21.49 128.51,21.714 128.202,22.121 C127.901,22.504 127.778,23.011 127.778,23.872 C127.778,24.743 127.901,25.254 128.201,25.637 C128.51,26.044 128.978,26.268 129.52,26.268 C130.077,26.268 130.421,26.096 130.886,25.59 L130.927,25.545 L132.033,26.603 L131.991,26.646 C131.279,27.403 130.563,27.712 129.52,27.712" fill="#1CA6DB"/>
      <path d="M134.567,23.215 L137.755,23.215 C137.739,22.812 137.694,22.607 137.56,22.297 C137.323,21.737 136.801,21.403 136.161,21.403 C135.513,21.403 134.984,21.737 134.749,22.296 C134.615,22.605 134.582,22.805 134.567,23.215 M136.35,27.711 C133.561,27.711 132.975,25.623 132.975,23.871 C132.975,21.512 134.196,20.046 136.161,20.046 C138.097,20.046 139.347,21.461 139.347,23.653 L139.347,24.368 L134.565,24.368 C134.587,25.586 135.261,26.311 136.379,26.311 C137.225,26.311 137.645,26.051 138.124,25.573 L138.166,25.531 L138.209,25.571 L139.199,26.501 L139.155,26.544 C138.435,27.265 137.715,27.711 136.35,27.711" fill="#1CA6DB"/>
      <path d="M143.459,24.368 C142.645,24.368 142.196,24.723 142.196,25.368 C142.196,26.032 142.619,26.355 143.488,26.355 C144.008,26.355 144.437,26.325 144.827,25.95 C145.032,25.744 145.128,25.412 145.128,24.904 L145.128,24.368 z M143.255,27.712 C142.345,27.712 141.703,27.493 141.235,27.024 C140.849,26.624 140.636,26.047 140.636,25.398 C140.636,24.052 141.634,23.215 143.241,23.215 L145.128,23.215 L145.128,22.752 C145.128,21.826 144.664,21.431 143.575,21.431 C142.795,21.431 142.415,21.599 142.01,22.12 L141.969,22.173 L140.904,21.172 L140.942,21.128 C141.627,20.329 142.331,20.046 143.634,20.046 C145.69,20.046 146.732,20.917 146.732,22.636 L146.732,27.625 L145.157,27.625 L145.157,27.038 C144.629,27.527 144.099,27.712 143.255,27.712" fill="#1CA6DB"/>
      <path d="M154.989,27.625 L153.385,27.625 L153.385,23.073 C153.385,22.067 152.867,21.49 151.963,21.49 C151.619,21.49 150.498,21.605 150.498,23.073 L150.498,27.625 L148.893,27.625 L148.893,20.133 L150.468,20.133 L150.468,20.787 C150.963,20.309 151.633,20.046 152.37,20.046 C153.123,20.046 153.766,20.284 154.229,20.732 C154.755,21.244 154.989,21.898 154.989,22.854 z" fill="#1CA6DB"/>
      <path d="M163.218,27.712 C161.576,27.712 160.468,27.298 159.512,26.327 L159.469,26.284 L160.602,25.167 L160.644,25.21 C161.325,25.89 162.103,26.181 163.247,26.181 C164.567,26.181 165.323,25.625 165.323,24.657 C165.323,24.208 165.189,23.853 164.937,23.626 C164.683,23.387 164.426,23.289 163.835,23.204 L162.613,23.03 C161.775,22.915 161.085,22.622 160.618,22.186 C160.097,21.695 159.843,21.033 159.843,20.165 C159.843,18.282 161.225,17.066 163.363,17.066 C164.748,17.066 165.721,17.423 166.617,18.259 L166.663,18.303 L165.573,19.377 L165.531,19.337 C164.964,18.795 164.282,18.554 163.32,18.554 C162.209,18.554 161.49,19.163 161.49,20.107 C161.49,20.493 161.616,20.801 161.863,21.021 C162.115,21.246 162.528,21.416 162.994,21.487 L164.172,21.661 C165.106,21.803 165.675,22.03 166.137,22.445 C166.701,22.937 167,23.687 167,24.613 C167,26.496 165.515,27.712 163.218,27.712" fill="#1CA6DB"/>
      <path d="M171.78,27.712 C171.135,27.712 170.211,27.561 169.474,26.84 C168.784,26.168 168.434,25.168 168.434,23.872 C168.434,22.974 168.675,20.046 171.78,20.046 C172.833,20.046 173.549,20.351 174.251,21.098 L174.293,21.141 L173.188,22.214 L173.146,22.168 C172.682,21.662 172.338,21.49 171.78,21.49 C171.238,21.49 170.77,21.714 170.462,22.121 C170.161,22.504 170.038,23.011 170.038,23.872 C170.038,24.743 170.161,25.254 170.461,25.637 C170.77,26.044 171.238,26.268 171.78,26.268 C172.337,26.268 172.681,26.096 173.146,25.59 L173.187,25.545 L174.293,26.603 L174.251,26.646 C173.548,27.393 172.809,27.712 171.78,27.712" fill="#1CA6DB"/>
      <path d="M177.552,18.8 L175.861,18.8 L175.861,17.109 L177.552,17.109 z M177.466,27.625 L175.862,27.625 L175.862,20.133 L177.466,20.133 z" fill="#1CA6DB"/>
      <path d="M180.913,23.215 L184.102,23.215 C184.085,22.812 184.04,22.607 183.906,22.297 C183.67,21.737 183.147,21.403 182.508,21.403 C181.858,21.403 181.33,21.737 181.095,22.296 C180.96,22.606 180.928,22.806 180.913,23.215 M182.696,27.711 C179.907,27.711 179.322,25.623 179.322,23.871 C179.322,21.512 180.542,20.046 182.508,20.046 C184.443,20.046 185.693,21.461 185.693,23.653 L185.693,24.368 L180.912,24.368 C180.933,25.586 181.608,26.311 182.725,26.311 C183.572,26.311 183.992,26.051 184.47,25.573 L184.512,25.531 L184.555,25.571 L185.546,26.501 L185.501,26.544 C184.781,27.265 184.061,27.711 182.696,27.711" fill="#1CA6DB"/>
      <path d="M193.63,27.625 L192.026,27.625 L192.026,23.073 C192.026,22.067 191.508,21.49 190.604,21.49 C190.26,21.49 189.138,21.605 189.138,23.073 L189.138,27.625 L187.534,27.625 L187.534,20.133 L189.109,20.133 L189.109,20.787 C189.605,20.309 190.274,20.046 191.011,20.046 C191.764,20.046 192.407,20.284 192.87,20.732 C193.396,21.244 193.63,21.898 193.63,22.854 z" fill="#1CA6DB"/>
      <path d="M198.759,27.712 C198.114,27.712 197.19,27.561 196.453,26.84 C195.763,26.168 195.413,25.168 195.413,23.872 C195.413,22.974 195.654,20.046 198.759,20.046 C199.812,20.046 200.528,20.351 201.23,21.098 L201.272,21.141 L200.167,22.214 L200.125,22.168 C199.661,21.662 199.317,21.49 198.759,21.49 C198.217,21.49 197.749,21.714 197.441,22.121 C197.136,22.509 197.017,22.999 197.017,23.872 C197.017,24.743 197.14,25.255 197.44,25.637 C197.749,26.044 198.217,26.268 198.759,26.268 C199.316,26.268 199.66,26.096 200.125,25.59 L200.166,25.545 L201.272,26.603 L201.23,26.646 C200.527,27.393 199.788,27.712 198.759,27.712" fill="#1CA6DB"/>
      <path d="M203.806,23.215 L206.994,23.215 C206.978,22.812 206.933,22.607 206.798,22.297 C206.562,21.737 206.04,21.403 205.4,21.403 C204.751,21.403 204.223,21.737 203.988,22.296 C203.854,22.605 203.821,22.805 203.806,23.215 M205.589,27.711 C202.799,27.711 202.214,25.623 202.214,23.871 C202.214,21.512 203.435,20.046 205.4,20.046 C207.336,20.046 208.586,21.461 208.586,23.653 L208.586,24.368 L203.804,24.368 C203.826,25.586 204.5,26.311 205.618,26.311 C206.464,26.311 206.884,26.051 207.363,25.573 L207.405,25.531 L207.448,25.571 L208.438,26.501 L208.394,26.544 C207.674,27.265 206.954,27.711 205.589,27.711" fill="#1CA6DB"/>
      <path d="M212.872,27.712 C211.811,27.712 210.697,27.581 209.733,26.634 L209.689,26.591 L209.732,26.548 L210.75,25.53 L210.793,25.573 C211.287,26.08 211.967,26.327 212.872,26.327 C213.845,26.327 214.425,25.969 214.425,25.369 C214.425,24.867 214.129,24.609 213.492,24.558 L212.314,24.455 C210.831,24.331 210.078,23.626 210.078,22.36 C210.078,20.977 211.219,20.046 212.916,20.046 C214.131,20.046 215.037,20.323 215.688,20.89 L215.737,20.932 L215.692,20.979 L214.722,21.963 L214.68,21.927 C214.268,21.579 213.67,21.403 212.901,21.403 C212.102,21.403 211.624,21.734 211.624,22.287 C211.624,22.585 211.724,22.991 212.587,23.07 L213.749,23.171 C215.221,23.295 216,24.035 216,25.311 C216,26.792 214.802,27.712 212.872,27.712" fill="#1CA6DB"/>
      <path d="M107.945,30.703 L106.98,30.703 L106.98,-0 L107.945,-0 z" fill="#1E4E7B"/>
    </g>
  </g>
</svg>
