<?xml version="1.0" encoding="UTF-8"?>
<!DOCTYPE svg PUBLIC "-//W3C//DTD SVG 1.1//EN" "http://www.w3.org/Graphics/SVG/1.1/DTD/svg11.dtd">
<svg version="1.1" xmlns="http://www.w3.org/2000/svg" xmlns:xlink="http://www.w3.org/1999/xlink" x="0" y="0" width="159.627" height="187.592" viewBox="0, 0, 159.627, 187.592">
  <g id="Background">
    <rect x="0" y="0" width="159.627" height="187.592" fill="#000000" fill-opacity="0"/>
  </g>
  <g id="Layer_1">
    <path d="M54.1,46.709 L142.023,134.632 C143.128,135.737 143.459,137.197 142.763,137.893 L109.929,170.727 C109.233,171.423 107.772,171.092 106.668,169.987 L18.745,82.065 C17.64,80.96 17.309,79.5 18.005,78.803 L50.839,45.969 C51.535,45.273 52.995,45.604 54.1,46.709 z" fill-opacity="0" stroke="#FFFFFF" stroke-width="9" opacity="0.75"/>
    <path d="M141.882,53.96 L53.96,141.882 C52.855,142.987 51.395,143.318 50.698,142.622 L17.864,109.788 C17.168,109.092 17.499,107.632 18.604,106.527 L106.527,18.604 C107.632,17.499 109.092,17.168 109.788,17.864 L142.622,50.698 C143.318,51.395 142.987,52.855 141.882,53.96 z" fill-opacity="0" stroke="#FFFFFF" stroke-width="9" opacity="0.75"/>
  </g>
</svg>
