<?xml version="1.0" encoding="UTF-8"?>
<!DOCTYPE svg PUBLIC "-//W3C//DTD SVG 1.1//EN" "http://www.w3.org/Graphics/SVG/1.1/DTD/svg11.dtd">
<svg version="1.1" xmlns="http://www.w3.org/2000/svg" xmlns:xlink="http://www.w3.org/1999/xlink" x="0" y="0" width="180" height="150" viewBox="0, 0, 180, 150">
  <g id="Background">
    <rect x="0" y="0" width="180" height="150" fill="#000000" fill-opacity="0"/>
  </g>
  <g id="Layer_1">
    <g>
      <path d="M138.086,49.287 L50.164,137.209 C49.059,138.314 47.599,138.646 46.903,137.949 L14.069,105.115 C13.372,104.419 13.704,102.959 14.809,101.854 L102.731,13.931 C103.836,12.826 105.296,12.495 105.992,13.191 L138.826,46.025 C139.523,46.722 139.191,48.182 138.086,49.287 z" fill-opacity="0" stroke="#407EB4" stroke-width="9"/>
      <path d="M130.836,137.069 L42.914,49.146 C41.809,48.041 41.477,46.581 42.174,45.885 L75.008,13.051 C75.704,12.354 77.164,12.686 78.269,13.791 L166.191,101.713 C167.296,102.818 167.628,104.278 166.931,104.975 L134.097,137.809 C133.401,138.505 131.941,138.174 130.836,137.069 z" fill-opacity="0" stroke="#7CA35B" stroke-width="9"/>
      <path d="M131.954,60.687 L125.276,67.364 L118.968,61.055 L125.645,54.378 L131.954,60.687 z" fill="#407EB4"/>
      <path d="M61.43,60.575 L54.75,67.255 L48.479,60.985 L55.159,54.304 L61.43,60.575 z" fill="#407EB4"/>
    </g>
  </g>
</svg>
