<?xml version="1.0" encoding="UTF-8"?>
<!DOCTYPE svg PUBLIC "-//W3C//DTD SVG 1.1//EN" "http://www.w3.org/Graphics/SVG/1.1/DTD/svg11.dtd">
<svg version="1.1" xmlns="http://www.w3.org/2000/svg" xmlns:xlink="http://www.w3.org/1999/xlink" x="0" y="0" width="1450" height="1450" viewBox="0, 0, 1450, 1450">
  <g id="Background">
    <rect x="0" y="0" width="1450" height="1450" fill="#000000" fill-opacity="0"/>
  </g>
  <g id="Layer_1">
    <path d="M404.909,1237 Q404.909,1317 348.909,1373 Q292.909,1429 212.909,1429 Q132.909,1429 76.909,1373 Q20.909,1317 20.909,1237 Q20.909,1157 76.909,1101 Q132.909,1045 212.909,1045 Q292.909,1045 348.909,1101 Q404.909,1157 404.909,1237 z M916.909,1360 Q918.909,1388 899.909,1408 Q881.909,1429 852.909,1429 L717.909,1429 Q692.909,1429 674.909,1412.5 Q656.909,1396 654.909,1371 Q632.909,1142 470.409,979.5 Q307.909,817 78.909,795 Q53.909,793 37.409,775 Q20.909,757 20.909,732 L20.909,597 Q20.909,568 41.909,550 Q58.909,533 84.909,533 L89.909,533 Q249.909,546 395.909,613.5 Q541.909,681 654.909,795 Q768.909,908 836.409,1054 Q903.909,1200 916.909,1360 z M1428.909,1362 Q1430.909,1389 1410.909,1409 Q1392.909,1429 1364.909,1429 L1221.909,1429 Q1195.909,1429 1177.409,1411.5 Q1158.909,1394 1157.909,1369 Q1145.909,1154 1056.909,960.5 Q967.909,767 825.409,624.5 Q682.909,482 489.409,393 Q295.909,304 80.909,291 Q55.909,290 38.409,271.5 Q20.909,253 20.909,228 L20.909,85 Q20.909,57 40.909,39 Q58.909,21 84.909,21 L87.909,21 Q349.909,34 589.409,141 Q828.909,248 1014.909,435 Q1201.909,621 1308.909,860.5 Q1415.909,1100 1428.909,1362 z" fill="#000000"/>
  </g>
</svg>
