<?xml version="1.0" encoding="UTF-8"?>
<!DOCTYPE svg PUBLIC "-//W3C//DTD SVG 1.1//EN" "http://www.w3.org/Graphics/SVG/1.1/DTD/svg11.dtd">
<svg version="1.1" xmlns="http://www.w3.org/2000/svg" xmlns:xlink="http://www.w3.org/1999/xlink" x="0" y="0" width="626.333" height="374" viewBox="0, 0, 626.333, 374">
  <g id="Background">
    <rect x="0" y="0" width="626.333" height="374" fill="#FFFFFF"/>
    <g stroke-width="1px">
      <line x1="12" y1="0" x2="12" y2="374" stroke="#AAAAAA" stroke-opacity="0.25"/>
      <line x1="24" y1="0" x2="24" y2="374" stroke="#AAAAAA" stroke-opacity="0.25"/>
      <line x1="36" y1="0" x2="36" y2="374" stroke="#AAAAAA" stroke-opacity="0.25"/>
      <line x1="48" y1="0" x2="48" y2="374" stroke="#AAAAAA" stroke-opacity="0.25"/>
      <line x1="60" y1="0" x2="60" y2="374" stroke="#AAAAAA" stroke-opacity="0.25"/>
      <line x1="72" y1="0" x2="72" y2="374" stroke="#AAAAAA" stroke-opacity="0.5"/>
      <line x1="84" y1="0" x2="84" y2="374" stroke="#AAAAAA" stroke-opacity="0.25"/>
      <line x1="96" y1="0" x2="96" y2="374" stroke="#AAAAAA" stroke-opacity="0.25"/>
      <line x1="108" y1="0" x2="108" y2="374" stroke="#AAAAAA" stroke-opacity="0.25"/>
      <line x1="120" y1="0" x2="120" y2="374" stroke="#AAAAAA" stroke-opacity="0.25"/>
      <line x1="132" y1="0" x2="132" y2="374" stroke="#AAAAAA" stroke-opacity="0.25"/>
      <line x1="144" y1="0" x2="144" y2="374" stroke="#AAAAAA" stroke-opacity="0.5"/>
      <line x1="156" y1="0" x2="156" y2="374" stroke="#AAAAAA" stroke-opacity="0.25"/>
      <line x1="168" y1="0" x2="168" y2="374" stroke="#AAAAAA" stroke-opacity="0.25"/>
      <line x1="180" y1="0" x2="180" y2="374" stroke="#AAAAAA" stroke-opacity="0.25"/>
      <line x1="192" y1="0" x2="192" y2="374" stroke="#AAAAAA" stroke-opacity="0.25"/>
      <line x1="204" y1="0" x2="204" y2="374" stroke="#AAAAAA" stroke-opacity="0.25"/>
      <line x1="216" y1="0" x2="216" y2="374" stroke="#AAAAAA" stroke-opacity="0.5"/>
      <line x1="228" y1="0" x2="228" y2="374" stroke="#AAAAAA" stroke-opacity="0.25"/>
      <line x1="240" y1="0" x2="240" y2="374" stroke="#AAAAAA" stroke-opacity="0.25"/>
      <line x1="252" y1="0" x2="252" y2="374" stroke="#AAAAAA" stroke-opacity="0.25"/>
      <line x1="264" y1="0" x2="264" y2="374" stroke="#AAAAAA" stroke-opacity="0.25"/>
      <line x1="276" y1="0" x2="276" y2="374" stroke="#AAAAAA" stroke-opacity="0.25"/>
      <line x1="288" y1="0" x2="288" y2="374" stroke="#AAAAAA" stroke-opacity="0.5"/>
      <line x1="300" y1="0" x2="300" y2="374" stroke="#AAAAAA" stroke-opacity="0.25"/>
      <line x1="312" y1="0" x2="312" y2="374" stroke="#AAAAAA" stroke-opacity="0.25"/>
      <line x1="324" y1="0" x2="324" y2="374" stroke="#AAAAAA" stroke-opacity="0.25"/>
      <line x1="336" y1="0" x2="336" y2="374" stroke="#AAAAAA" stroke-opacity="0.25"/>
      <line x1="348" y1="0" x2="348" y2="374" stroke="#AAAAAA" stroke-opacity="0.25"/>
      <line x1="360" y1="0" x2="360" y2="374" stroke="#AAAAAA" stroke-opacity="0.5"/>
      <line x1="372" y1="0" x2="372" y2="374" stroke="#AAAAAA" stroke-opacity="0.25"/>
      <line x1="384" y1="0" x2="384" y2="374" stroke="#AAAAAA" stroke-opacity="0.25"/>
      <line x1="396" y1="0" x2="396" y2="374" stroke="#AAAAAA" stroke-opacity="0.25"/>
      <line x1="408" y1="0" x2="408" y2="374" stroke="#AAAAAA" stroke-opacity="0.25"/>
      <line x1="420" y1="0" x2="420" y2="374" stroke="#AAAAAA" stroke-opacity="0.25"/>
      <line x1="432" y1="0" x2="432" y2="374" stroke="#AAAAAA" stroke-opacity="0.5"/>
      <line x1="444" y1="0" x2="444" y2="374" stroke="#AAAAAA" stroke-opacity="0.25"/>
      <line x1="456" y1="0" x2="456" y2="374" stroke="#AAAAAA" stroke-opacity="0.25"/>
      <line x1="468" y1="0" x2="468" y2="374" stroke="#AAAAAA" stroke-opacity="0.25"/>
      <line x1="480" y1="0" x2="480" y2="374" stroke="#AAAAAA" stroke-opacity="0.25"/>
      <line x1="492" y1="0" x2="492" y2="374" stroke="#AAAAAA" stroke-opacity="0.25"/>
      <line x1="504" y1="0" x2="504" y2="374" stroke="#AAAAAA" stroke-opacity="0.5"/>
      <line x1="516" y1="0" x2="516" y2="374" stroke="#AAAAAA" stroke-opacity="0.25"/>
      <line x1="528" y1="0" x2="528" y2="374" stroke="#AAAAAA" stroke-opacity="0.25"/>
      <line x1="540" y1="0" x2="540" y2="374" stroke="#AAAAAA" stroke-opacity="0.25"/>
      <line x1="552" y1="0" x2="552" y2="374" stroke="#AAAAAA" stroke-opacity="0.25"/>
      <line x1="564" y1="0" x2="564" y2="374" stroke="#AAAAAA" stroke-opacity="0.25"/>
      <line x1="576" y1="0" x2="576" y2="374" stroke="#AAAAAA" stroke-opacity="0.5"/>
      <line x1="588" y1="0" x2="588" y2="374" stroke="#AAAAAA" stroke-opacity="0.25"/>
      <line x1="600" y1="0" x2="600" y2="374" stroke="#AAAAAA" stroke-opacity="0.25"/>
      <line x1="612" y1="0" x2="612" y2="374" stroke="#AAAAAA" stroke-opacity="0.25"/>
      <line x1="624" y1="0" x2="624" y2="374" stroke="#AAAAAA" stroke-opacity="0.25"/>
      <line x1="0" y1="12" x2="626.333" y2="12" stroke="#AAAAAA" stroke-opacity="0.25"/>
      <line x1="0" y1="24" x2="626.333" y2="24" stroke="#AAAAAA" stroke-opacity="0.25"/>
      <line x1="0" y1="36" x2="626.333" y2="36" stroke="#AAAAAA" stroke-opacity="0.25"/>
      <line x1="0" y1="48" x2="626.333" y2="48" stroke="#AAAAAA" stroke-opacity="0.25"/>
      <line x1="0" y1="60" x2="626.333" y2="60" stroke="#AAAAAA" stroke-opacity="0.25"/>
      <line x1="0" y1="72" x2="626.333" y2="72" stroke="#AAAAAA" stroke-opacity="0.5"/>
      <line x1="0" y1="84" x2="626.333" y2="84" stroke="#AAAAAA" stroke-opacity="0.25"/>
      <line x1="0" y1="96" x2="626.333" y2="96" stroke="#AAAAAA" stroke-opacity="0.25"/>
      <line x1="0" y1="108" x2="626.333" y2="108" stroke="#AAAAAA" stroke-opacity="0.25"/>
      <line x1="0" y1="120" x2="626.333" y2="120" stroke="#AAAAAA" stroke-opacity="0.25"/>
      <line x1="0" y1="132" x2="626.333" y2="132" stroke="#AAAAAA" stroke-opacity="0.25"/>
      <line x1="0" y1="144" x2="626.333" y2="144" stroke="#AAAAAA" stroke-opacity="0.5"/>
      <line x1="0" y1="156" x2="626.333" y2="156" stroke="#AAAAAA" stroke-opacity="0.25"/>
      <line x1="0" y1="168" x2="626.333" y2="168" stroke="#AAAAAA" stroke-opacity="0.25"/>
      <line x1="0" y1="180" x2="626.333" y2="180" stroke="#AAAAAA" stroke-opacity="0.25"/>
      <line x1="0" y1="192" x2="626.333" y2="192" stroke="#AAAAAA" stroke-opacity="0.25"/>
      <line x1="0" y1="204" x2="626.333" y2="204" stroke="#AAAAAA" stroke-opacity="0.25"/>
      <line x1="0" y1="216" x2="626.333" y2="216" stroke="#AAAAAA" stroke-opacity="0.5"/>
      <line x1="0" y1="228" x2="626.333" y2="228" stroke="#AAAAAA" stroke-opacity="0.25"/>
      <line x1="0" y1="240" x2="626.333" y2="240" stroke="#AAAAAA" stroke-opacity="0.25"/>
      <line x1="0" y1="252" x2="626.333" y2="252" stroke="#AAAAAA" stroke-opacity="0.25"/>
      <line x1="0" y1="264" x2="626.333" y2="264" stroke="#AAAAAA" stroke-opacity="0.25"/>
      <line x1="0" y1="276" x2="626.333" y2="276" stroke="#AAAAAA" stroke-opacity="0.25"/>
      <line x1="0" y1="288" x2="626.333" y2="288" stroke="#AAAAAA" stroke-opacity="0.5"/>
      <line x1="0" y1="300" x2="626.333" y2="300" stroke="#AAAAAA" stroke-opacity="0.25"/>
      <line x1="0" y1="312" x2="626.333" y2="312" stroke="#AAAAAA" stroke-opacity="0.25"/>
      <line x1="0" y1="324" x2="626.333" y2="324" stroke="#AAAAAA" stroke-opacity="0.25"/>
      <line x1="0" y1="336" x2="626.333" y2="336" stroke="#AAAAAA" stroke-opacity="0.25"/>
      <line x1="0" y1="348" x2="626.333" y2="348" stroke="#AAAAAA" stroke-opacity="0.25"/>
      <line x1="0" y1="360" x2="626.333" y2="360" stroke="#AAAAAA" stroke-opacity="0.5"/>
      <line x1="0" y1="372" x2="626.333" y2="372" stroke="#AAAAAA" stroke-opacity="0.25"/>
    </g>
  </g>
  <g id="Image">
    <path d="M0,0 L626.333,0 L626.333,374 L0,374 L0,0 z" fill="#FDE7AE"/>
    <text transform="matrix(1, 0, 0, 1, 279.333, 61)">
      <tspan x="-262.667" y="11.667" font-family="Times-Bold" font-size="64" fill="#7C0A02">Milk Paint CSS</tspan>
    </text>
  </g>
</svg>
