<?xml version="1.0" encoding="UTF-8"?>
<!DOCTYPE svg PUBLIC "-//W3C//DTD SVG 1.1//EN" "http://www.w3.org/Graphics/SVG/1.1/DTD/svg11.dtd">
<svg version="1.1" xmlns="http://www.w3.org/2000/svg" xmlns:xlink="http://www.w3.org/1999/xlink" x="0" y="0" width="600" height="110" viewBox="0, 0, 600, 110">
  <g id="Background">
    <rect x="0" y="0" width="600" height="110" fill="#000000" fill-opacity="0"/>
  </g>
  <g id="Layer_1">
    <text transform="matrix(1, 0, 0, 1, 225.333, 77)">
      <tspan x="-225.333" y="22" font-family="Times-Bold" font-size="64" fill="#81965D">Milk Paint CSS</tspan>
    </text>
    <g>
      <g>
        <path d="M530.252,107 C494.855,107 466.16,101.051 466.16,93.713 C466.16,86.374 494.855,80.425 530.252,80.425 C565.649,80.425 594.344,86.374 594.344,93.713 C594.344,101.051 565.649,107 530.252,107 z" fill="#8FACE3"/>
        <path d="M466.16,52.287 L594.344,52.287 L594.344,93.713 L466.16,93.713 L466.16,52.287 z" fill="#8FACE3"/>
      </g>
      <g>
        <path d="M528.91,64.42 L528.91,93.713 L466.16,93.713 L466.16,64.42 L528.91,64.42 z" fill="#839ED0"/>
        <path d="M526.322,90.19 C552.32,98.498 565.453,92.426 565.453,92.426 L565.453,98.409 C565.453,98.409 557.055,98.766 528.555,106.986 C527.662,103.77 526.59,90.011 526.322,90.19 z" fill="#839ED0"/>
        <path d="M526.322,75.189 C530.727,78.884 565.453,78.712 565.453,78.712 L565.453,83.525 C565.453,83.525 538.547,86.533 526.322,91.462 C511.562,96.502 519.726,77.251 526.322,75.189 z" fill="#839ED0"/>
        <path d="M528.91,80.439 L528.91,106.986 C511.685,106.429 491.964,106.244 475.439,100.603 C472.247,99.513 466.65,97.731 466.16,93.713 C467.253,87.346 482.199,84.811 487.158,83.877 C500.906,81.287 514.95,80.585 528.91,80.439 z" fill="#839ED0"/>
      </g>
      <g>
        <path d="M466.16,52.287 L594.344,52.287 L594.344,65.575 L466.16,65.575 L466.16,52.287 z" fill="#C69A63"/>
        <path d="M530.252,79.646 C494.855,79.646 466.16,73.697 466.16,66.359 C466.16,59.021 494.855,53.072 530.252,53.072 C565.649,53.072 594.344,59.021 594.344,66.359 C594.344,73.697 565.649,79.646 530.252,79.646 z" fill="#C69A63"/>
      </g>
      <g>
        <path d="M466.16,52.287 L528.076,52.287 L528.076,65.575 L466.16,65.575 L466.16,52.287 z" fill="#C68B40"/>
        <path d="M528.263,65.499 C544.681,70.702 565.453,67.781 565.453,67.781 L565.453,72.983 C565.453,72.983 538.694,74.991 528.807,79.646 C519.097,79.316 517.943,67.116 528.263,65.499 z" fill="#C68B40"/>
        <path d="M528.076,53.117 L528.076,79.646 C511.109,79.073 491.712,78.828 475.439,73.272 C472.247,72.182 466.65,70.401 466.16,66.382 C467.253,60.015 482.199,57.481 487.158,56.546 C500.625,54.009 514.399,53.26 528.076,53.117 z" fill="#C68B40"/>
      </g>
      <path d="M530.252,65.575 C494.855,65.575 466.16,59.626 466.16,52.287 C466.16,44.949 494.855,39 530.252,39 C565.649,39 594.344,44.949 594.344,52.287 C594.344,59.626 565.649,65.575 530.252,65.575 z" fill="#C68B40"/>
      <path d="M530.252,64.42 C495.816,64.42 467.899,58.989 467.899,52.29 C467.899,45.591 495.816,40.16 530.252,40.16 C564.689,40.16 592.605,45.591 592.605,52.29 C592.605,58.989 564.689,64.42 530.252,64.42 z" fill="#C8760D"/>
    </g>
    <g>
      <g>
        <path d="M538.885,57.382 C515.981,57.382 497.414,53.532 497.414,48.784 C497.414,44.036 515.981,40.186 538.885,40.186 C561.789,40.186 580.356,44.036 580.356,48.784 C580.356,53.532 561.789,57.382 538.885,57.382 z" fill="#B13A30"/>
        <path d="M497.414,21.979 L580.356,21.979 L580.356,48.784 L497.414,48.784 L497.414,21.979 z" fill="#B13A30"/>
      </g>
      <g>
        <path d="M538.017,29.83 L538.017,48.784 L497.414,48.784 L497.414,29.83 L538.017,29.83 z" fill="#9E1C11"/>
        <path d="M536.342,46.505 C553.164,51.881 561.662,47.952 561.662,47.952 L561.662,51.823 C561.662,51.823 556.228,52.054 537.787,57.373 C537.209,55.292 536.515,46.389 536.342,46.505 z" fill="#9E1C11"/>
        <path d="M536.342,36.798 C539.192,39.189 561.662,39.078 561.662,39.078 L561.662,42.192 C561.662,42.192 544.252,44.138 536.342,47.328 C526.791,50.589 532.074,38.133 536.342,36.798 z" fill="#9E1C11"/>
        <path d="M538.017,40.195 L538.017,57.373 C526.871,57.013 514.11,56.893 503.418,53.242 C501.353,52.537 497.731,51.385 497.414,48.784 C498.121,44.664 507.792,43.025 511.001,42.42 C519.897,40.744 528.984,40.29 538.017,40.195 z" fill="#9E1C11"/>
      </g>
      <g>
        <path d="M497.414,21.979 L580.356,21.979 L580.356,30.577 L497.414,30.577 L497.414,21.979 z" fill="#9E2E25"/>
        <path d="M538.885,39.682 C515.981,39.682 497.414,35.833 497.414,31.085 C497.414,26.336 515.981,22.487 538.885,22.487 C561.789,22.487 580.356,26.336 580.356,31.085 C580.356,35.833 561.789,39.682 538.885,39.682 z" fill="#9E2E25"/>
      </g>
      <g>
        <g>
          <path d="M497.414,21.979 L537.477,21.979 L537.477,30.577 L497.414,30.577 L497.414,21.979 z" fill="#951A10"/>
          <path d="M537.598,30.528 C548.221,33.895 561.662,32.005 561.662,32.005 L561.662,35.371 C561.662,35.371 544.348,36.67 537.95,39.682 C531.667,39.469 530.92,31.574 537.598,30.528 z" fill="#951A10"/>
          <path d="M537.477,22.516 L537.477,39.682 C526.498,39.312 513.947,39.153 503.418,35.558 C501.353,34.852 497.731,33.7 497.414,31.099 C498.121,26.98 507.792,25.34 511.001,24.735 C519.715,23.093 528.628,22.609 537.477,22.516 z" fill="#951A10"/>
        </g>
        <path d="M538.885,30.577 C515.981,30.577 497.414,26.728 497.414,21.98 C497.414,17.231 515.981,13.382 538.885,13.382 C561.789,13.382 580.356,17.231 580.356,21.98 C580.356,26.728 561.789,30.577 538.885,30.577 z" fill="#951A10"/>
      </g>
      <path d="M538.885,29.83 C516.603,29.83 498.539,26.316 498.539,21.981 C498.539,17.647 516.603,14.133 538.885,14.133 C561.168,14.133 579.231,17.647 579.231,21.981 C579.231,26.316 561.168,29.83 538.885,29.83 z" fill="#7C0B02"/>
    </g>
    <g>
      <g>
        <path d="M530.252,25.619 C519.321,25.619 510.459,23.781 510.459,21.515 C510.459,19.249 519.321,17.412 530.252,17.412 C541.184,17.412 550.045,19.249 550.045,21.515 C550.045,23.781 541.184,25.619 530.252,25.619 z" fill="#ACBD9E"/>
        <path d="M510.459,8.722 L550.045,8.722 L550.045,21.515 L510.459,21.515 L510.459,8.722 z" fill="#ACBD9E"/>
      </g>
      <g>
        <path d="M529.838,12.469 L529.838,21.515 L510.459,21.515 L510.459,12.469 L529.838,12.469 z" fill="#9DB28A"/>
        <path d="M529.038,20.427 C537.067,22.993 541.123,21.118 541.123,21.118 L541.123,22.965 C541.123,22.965 538.53,23.076 529.728,25.614 C529.452,24.621 529.121,20.372 529.038,20.427 z" fill="#9DB28A"/>
        <path d="M529.038,15.795 C530.399,16.936 541.123,16.883 541.123,16.883 L541.123,18.369 C541.123,18.369 532.814,19.298 529.038,20.82 C524.48,22.377 527.002,16.431 529.038,15.795 z" fill="#9DB28A"/>
        <path d="M529.838,17.416 L529.838,25.614 C524.518,25.442 518.428,25.385 513.325,23.643 C512.339,23.306 510.61,22.756 510.459,21.515 C510.797,19.549 515.412,18.766 516.944,18.478 C521.19,17.678 525.527,17.461 529.838,17.416 z" fill="#9DB28A"/>
      </g>
      <g>
        <path d="M510.459,8.722 L550.045,8.722 L550.045,12.825 L510.459,12.825 L510.459,8.722 z" fill="#68774A"/>
        <path d="M530.252,17.171 C519.321,17.171 510.459,15.334 510.459,13.068 C510.459,10.801 519.321,8.964 530.252,8.964 C541.184,8.964 550.045,10.801 550.045,13.068 C550.045,15.334 541.184,17.171 530.252,17.171 z" fill="#68774A"/>
      </g>
      <g>
        <g>
          <path d="M510.459,8.722 L529.58,8.722 L529.58,12.825 L510.459,12.825 L510.459,8.722 z" fill="#5E6B43"/>
          <path d="M529.638,12.802 C534.708,14.409 541.123,13.507 541.123,13.507 L541.123,15.113 C541.123,15.113 532.859,15.734 529.806,17.171 C526.807,17.069 526.451,13.301 529.638,12.802 z" fill="#5E6B43"/>
          <path d="M529.58,8.978 L529.58,17.171 C524.34,16.994 518.35,16.918 513.325,15.202 C512.339,14.866 510.61,14.316 510.459,13.075 C510.797,11.108 515.412,10.326 516.944,10.037 C521.103,9.254 525.357,9.022 529.58,8.978 z" fill="#5E6B43"/>
        </g>
        <path d="M530.252,12.825 C519.321,12.825 510.459,10.988 510.459,8.722 C510.459,6.456 519.321,4.619 530.252,4.619 C541.184,4.619 550.045,6.456 550.045,8.722 C550.045,10.988 541.184,12.825 530.252,12.825 z" fill="#5E6B43"/>
      </g>
      <path d="M530.252,12.469 C519.617,12.469 510.996,10.792 510.996,8.723 C510.996,6.654 519.617,4.977 530.252,4.977 C540.887,4.977 549.508,6.654 549.508,8.723 C549.508,10.792 540.887,12.469 530.252,12.469 z" fill="#525D3A"/>
    </g>
  </g>
</svg>
