<?xml version="1.0" encoding="UTF-8"?>
<!DOCTYPE svg PUBLIC "-//W3C//DTD SVG 1.1//EN" "http://www.w3.org/Graphics/SVG/1.1/DTD/svg11.dtd">
<svg version="1.1" xmlns="http://www.w3.org/2000/svg" xmlns:xlink="http://www.w3.org/1999/xlink" x="0" y="0" width="1489.119" height="612.876" viewBox="0, 0, 1489.119, 612.876">
  <g id="Background">
    <rect x="0" y="0" width="1489.119" height="612.876" fill="#000000" fill-opacity="0"/>
  </g>
  <g id="Capa_1">
    <g>
      <path d="M2.142,120.122 C1.382,117.695 0.807,115.205 0.489,112.638 C-0.952,101.026 3.574,90.088 7.58,79.443 C11.74,68.39 15.769,57.279 20.074,46.282 C23.418,37.74 27.788,28.904 36.48,24.737 C37.024,24.476 37.572,24.239 38.122,24.02 C39.11,22.986 40.194,22.024 41.396,21.17 C45.466,18.28 50.59,16.735 55.585,16.828 C60.871,16.926 65.039,19.155 69.731,21.267 C72.155,22.358 74.266,23.275 76.471,21.371 C77.895,20.143 78.823,18.274 79.934,16.778 C82.275,13.625 85.209,10.868 89.32,10.529 C93.756,10.163 98.441,12.379 102.72,14.397 C107.893,12.589 113.692,10.642 119.471,9.508 C120.508,8.604 121.707,7.838 123.024,7.271 C127.066,5.533 131.591,4.733 135.833,3.611 C136.711,3.379 137.589,3.139 138.468,2.899 C141.479,0.327 145.678,-0.334 149.62,0.144 C149.886,0.177 150.148,0.226 150.413,0.266 C156.38,-0.413 162.394,0.293 167.348,4.078 C169.811,5.96 171.371,8.177 172.292,10.618 C173.923,11.277 175.444,12.302 176.752,13.733 C179.038,16.235 179.735,19.099 179.447,21.962 C179.774,22.164 180.094,22.378 180.418,22.585 C182.799,18.019 186.471,14.021 192.15,14.308 C196.871,14.546 199.834,17.978 201.861,21.976 C205.199,22.488 208.346,24.103 210.705,26.936 C212.226,28.764 213.147,30.68 213.568,32.61 C214.514,33.114 215.438,33.736 216.326,34.501 C220.732,38.297 222.464,43.939 223.252,49.501 C224.173,56.005 224.666,62.588 225.341,69.122 C226.383,79.226 227.485,89.346 227.393,99.48 C229.468,104.702 229.994,109.685 228.053,112.719 L228.043,112.719 C228.414,112.669 228.678,113.395 228.578,113.61 C208.627,139.19 215.033,176.774 217.924,216.674 C215.338,230.677 222.737,246.671 212.658,258.979 C206.933,260.864 204.043,258.678 202.552,254.678 L202.552,314.357 C202.552,320.201 193.468,320.211 193.468,314.357 L193.468,180.91 C190.53,179.734 188.363,180.156 186.739,181.545 C186.463,187.265 187.002,193.161 184.839,198.481 C184.501,200.793 182.61,203.242 180.447,204.562 C173.491,235.278 186.558,342.752 182.465,369.719 C181.367,378.527 178.365,396.951 166.115,392.275 C155.773,380.395 165.172,364.549 163.086,350.862 C159.744,321.268 161.757,204.798 158.518,188.754 C156.998,184.622 153.952,181.871 150.284,180.374 C149.401,180.014 148.487,180.029 147.687,180.321 C146.75,186.574 145.964,192.845 145.327,199.129 L145.327,280.955 C145.786,285.533 145.327,354.323 145.327,354.323 C145.327,360.168 136.244,360.177 136.244,354.323 L136.244,280.88 C133.558,253.806 133.592,226.579 136.244,199.525 L136.244,185.944 C136.244,182.997 132.854,181.276 130.519,183.073 C129.96,183.504 129.429,183.967 128.933,184.463 C125.766,194.089 124.199,204.45 124.259,214.698 C125.334,225.083 126.197,235.713 127.163,242.837 C127.337,249.015 129.124,261.525 122.376,268.367 C113.165,282.192 107.018,255.654 110.354,247.706 C109.107,231.299 113.073,210.73 111.049,194.348 C109.614,190.547 108.644,185.179 107.259,179.957 C105.657,173.916 99.22,172.684 95.052,175.265 C94.269,220.372 93.371,265.481 92.604,310.591 L93.415,537.462 L94.084,608.104 C94.109,610.727 92.293,612.17 90.279,612.44 C87.659,613.653 83.648,612.336 83.427,608.505 C81.15,569.063 82.399,529.512 83.061,490.041 C83.237,479.607 83.412,327.994 83.587,317.561 L82.618,215.148 L82.277,179.125 C82.275,178.892 82.263,178.662 82.242,178.436 C82.017,175.982 80.455,174.604 78.63,174.191 C78.391,184.909 74.938,195.842 73.668,206.43 C72.943,212.48 72.533,218.56 72.426,224.642 L74.779,249.638 C74.85,250.394 74.855,251.154 74.794,251.911 L74.509,255.472 C74.87,257.823 75.276,260.167 75.729,262.503 C76.161,264.735 75.086,266.464 73.552,267.405 L71.753,289.832 C71.753,295.676 62.669,295.686 62.669,289.832 L62.669,194.062 C62.669,190.544 57.626,189.892 56.769,193.305 C56.166,195.707 55.642,198.358 55.207,201.29 C47.843,209.515 50.304,224.718 50.609,233.492 C51.283,246.176 49.091,258.981 50.631,271.543 C50.538,301.114 49.654,471.908 48.778,501.429 C45.961,517.651 27.289,510.212 31.359,495.744 C33.934,474 31.263,310.941 31.873,289.105 C31.333,254.917 30.762,220.661 26.46,186.702 C25.946,173.756 24.978,152.546 6.661,155.257 C-0.951,146.691 -1.415,131.527 2.142,120.122" fill="#7C0B02"/>
      <path d="M107.144,308.693 C107.785,301.34 109.043,294.072 110.861,286.921 C113.778,275.451 121.787,284.381 121.886,292.57 C121.974,299.848 122.644,307.389 122.106,314.646 C121.742,319.562 118.255,324.248 112.793,322.674 C106.52,320.867 106.686,313.945 107.144,308.693" fill="#7C0B02"/>
      <path d="M140.742,362.8 C144.191,362.8 145.606,365.963 144.985,368.556 C145.605,371.148 144.194,374.305 140.742,374.305 C137.293,374.305 135.878,371.143 136.499,368.55 C135.879,365.958 137.29,362.8 140.742,362.8" fill="#7C0B02"/>
      <path d="M66.865,299.218 C70.576,299.218 71.931,302.879 70.93,305.552 C72.449,308.235 71.198,312.54 67.168,312.54 C63.457,312.54 62.102,308.88 63.103,306.206 C61.584,303.523 62.834,299.218 66.865,299.218" fill="#7C0B02"/>
    </g>
    <g>
      <g>
        <path d="M910.958,63.694 C911.055,63.645 911.155,63.598 911.253,63.55 C910.005,59.047 910.514,54.374 913.494,50.576 C916.878,46.265 922.463,43.628 927.007,40.766 C932.901,37.054 938.697,33.025 944.802,29.668 C950.567,26.499 956.684,25.618 962.925,25.608 C970.51,22.756 978.413,20.913 986.413,19.544 C996.221,17.866 1006.707,15.719 1016.69,16.437 C1028.643,17.296 1036.786,23.328 1043.859,32.628 C1047.465,37.369 1050.915,42.227 1054.478,47 C1057.08,49.494 1059.482,52.183 1061.661,55.034 C1064.852,56.975 1068.137,56.19 1071.632,55.36 C1075.118,54.533 1079.079,57.741 1077.783,61.511 C1075.664,67.674 1074.348,73.96 1073.82,80.285 C1075.386,86.702 1075.969,93.354 1075.431,100.02 C1076.653,107.582 1077.876,115.144 1079.099,122.706 C1079.908,127.713 1081.209,133.009 1081.314,138.18 C1081.677,138.871 1081.857,139.721 1081.777,140.733 C1079.991,163.25 1078.204,185.767 1076.417,208.283 C1076.143,211.739 1073.076,213.333 1070.407,213.046 L1070.407,218.835 C1075.505,219.76 1075.513,227.727 1070.407,228.651 L1070.407,316.743 C1070.407,323.177 1060.407,323.188 1060.407,316.743 L1060.407,152.808 C1059.935,151.504 1059.538,150.326 1059.334,149.426 C1053.384,144.577 1051.592,152.776 1051.66,156.973 C1051.474,158.259 1051.206,159.505 1050.907,160.734 L1050.907,369.243 C1050.907,375.677 1040.907,375.688 1040.907,369.243 L1040.907,200.596 C1038.628,197.195 1036.539,195.965 1034.737,196.292 C1034.394,196.354 1034.062,196.479 1033.74,196.65 L1033.74,261.91 C1033.74,268.344 1023.74,268.355 1023.74,261.91 L1023.74,234.79 C1023.128,233.013 1022.315,233.505 1021.033,238.495 C1021.033,238.495 1020.984,295.262 1019.035,316.784 C1018.542,324.971 1018.529,432.702 1018.638,440.879 C1018.81,453.82 1019.284,466.775 1018.657,479.728 C1017.31,484.535 1016.966,489.478 1017.065,494.484 C1017.163,499.489 1017.704,504.558 1018.13,509.589 C1018.555,514.622 1018.867,519.617 1018.514,524.452 C1018.161,529.287 1017.141,533.959 1014.911,538.321 C1010.994,539.719 1008.676,538.75 1007.346,536.378 C1006.015,534.006 1005.668,530.226 1005.683,525.957 C1005.702,521.689 1006.072,516.93 1006.216,512.611 C1006.36,508.292 1006.276,504.415 1005.405,501.926 C1004.742,481.351 1004.097,460.87 1003.021,440.464 C1003.002,440.11 1002.983,439.756 1002.966,439.403 C1002.097,424.86 1001.704,310.778 1001.642,296.259 C1001.579,281.74 1001.846,267.217 1002.302,252.702 C1002.403,249.43 1002.517,246.159 1002.637,242.89 C1003.451,230.312 1002.604,217.822 1000.65,205.516 C998.697,193.211 995.635,181.087 992.015,169.179 C991.727,168.232 991.436,167.287 991.14,166.343 C989.708,160.068 987.426,157.787 985.057,157.918 C982.98,166.979 982.717,176.454 982.658,185.729 C982.569,199.657 982.256,213.513 981.321,227.415 C979.39,256.139 976.42,284.919 979.496,313.676 C980.18,320.068 970.174,320.019 969.496,313.676 C966.279,283.604 969.679,253.521 971.578,223.485 C971.634,222.606 971.675,221.728 971.724,220.849 C970.279,221.532 968.536,221.99 966.4,222.152 C963.019,213.772 962.027,205.627 961.371,197.326 C960.715,189.025 960.394,180.572 958.352,171.597 C958.278,171.279 958.21,170.955 958.149,170.629 C956.355,161.071 959.9,148.564 958.491,138.751 C956.955,138.974 955.194,140.659 953.19,144.677 C951.187,148.695 948.94,155.05 946.439,164.577 C945.189,166.671 944.372,168.904 943.881,171.24 C941.845,180.902 945.38,192.293 946.78,202.778 C948.179,213.264 947.439,222.859 936.917,228.889 C930.895,227.163 927.794,223.606 926.129,219.077 C924.466,214.546 924.239,209.039 923.982,203.426 C923.548,193.95 923.031,184.167 915.407,178.454 L915.407,254.743 C915.407,261.177 905.407,261.188 905.407,254.743 L905.407,187.026 C905.407,172.688 902.71,158.495 897.612,145.094 C896.86,143.118 896.238,141.329 895.86,139.951 C890.363,130.275 886.564,119.77 886.114,108.436 C885.374,89.8 894.088,72.209 910.958,63.694" fill="#81955E"/>
        <path d="M933.108,304.171 C934.789,304.337 936.342,304.046 937.74,303.439 L940.74,442.808 C940.74,449.253 947.74,449.242 947.74,442.808 L947.74,250.39 C947.814,249.234 947.889,248.077 947.963,246.921 C948.009,246.204 947.925,245.569 947.74,245.013 L947.74,243.576 C947.74,241.105 946.269,239.587 944.456,239.012 C943.618,237.989 942.48,237.162 941.041,236.687 C934.792,234.626 930.142,240.52 929.211,245.95 C927.92,253.472 927.673,261.312 926.946,268.908 C926.203,276.668 924.968,284.56 924.728,292.35 C924.559,297.827 927.009,303.569 933.108,304.171" fill="#81955E"/>
      </g>
      <path d="M944.407,447.308 C947.119,447.308 949.407,449.596 949.407,452.308 L949.407,461.308 C949.407,464.01 947.109,466.308 944.407,466.308 C941.695,466.308 939.407,464.02 939.407,461.308 L939.407,452.308 C939.407,449.606 941.705,447.308 944.407,447.308" fill="#81955E"/>
    </g>
    <g>
      <path d="M708.272,433.371 C709.478,418.069 708.322,403.124 710.492,387.924 C715.527,369.878 701.466,375.366 702.454,360.802 C705.899,337.963 698.739,302.136 710.69,283.309 C725.515,291.502 717.956,320.342 718.132,336.293 C716.794,370.65 724.507,451.833 724.507,451.833 C723.833,468.513 717.617,489.878 735.381,488.743 C743.403,472.021 737.195,450.664 738.691,432.107 C741.581,399.925 742.093,367.504 742.181,335.243 C743.819,317.974 747.482,300.745 752.376,284.044 L755.474,344.893 C755.801,351.319 765.788,350.821 765.461,344.384 C765.461,344.384 765.608,313.753 768.366,335.89 L769.874,365.514 C769.894,371.552 769.913,377.589 769.933,383.627 C769.971,395.253 769.876,406.889 770.047,418.514 C770.16,426.195 773.378,436.59 783.173,435.466 C790.841,434.586 793.077,426.278 792.386,419.727 C791.251,408.981 788.132,398.199 786.233,387.555 C783.808,373.959 781.666,360.313 779.801,346.63 C779.775,338.51 779.748,330.389 779.722,322.269 C786.824,326.279 795.387,323.754 793.406,309.171 C786.953,299.638 788.721,289.369 792.214,279.842 L796.608,366.162 C796.935,372.589 806.923,372.091 806.595,365.654 L800.224,240.483 C800.193,239.886 800.079,239.349 799.898,238.871 C799.97,234.516 799.683,230.427 798.331,227.371 C801.462,213.399 799.503,198.699 796.979,184.755 C795.746,177.947 793.657,170.821 789.531,165.5 C788.708,163.329 787.808,161.193 786.839,159.092 C788.48,155.457 789.007,151.297 788.327,147.216 C787.758,143.801 786.43,140.595 784.21,137.923 C782.954,136.411 781.527,135.133 779.824,134.133 C777.828,132.961 775.213,132.68 773.352,131.357 C769.371,128.526 771.557,122.168 771.042,117.882 C770.531,113.631 768.759,109.107 764.911,106.815 C761.638,104.865 757.69,104.911 754.338,106.615 C750.548,108.542 748.302,113.032 744.467,114.655 C738.504,117.178 729.868,109.954 724.467,107.997 C717.392,105.434 709.91,105.988 704.399,111.522 C703.963,111.959 703.56,112.418 703.17,112.885 C691.648,116.721 681.301,123.966 673.737,133.487 C663.776,132.762 654.855,140.135 659.032,150.75 C659.15,151.049 659.276,151.341 659.41,151.628 C661.053,155.136 661.832,158.982 661.363,162.827 C660.461,170.223 660.939,177.666 662.316,185.046 C664.996,199.41 663.771,214.206 658.496,227.833 C656.056,234.136 655,240.776 658.113,245.645 C659.156,247.275 660.643,247.916 662.118,247.874 C662.567,248.757 662.956,249.646 663.198,250.548 C663.211,250.636 663.225,250.723 663.238,250.811 L674.964,481.162 C675.291,487.588 685.279,487.09 684.951,480.653 L681.487,401.308 C683.006,402.006 685.456,392.32 686.974,393.018 C689.749,422.523 690.128,493.909 689.928,523.494 C692.973,545.949 684.635,571.928 696.63,591.423 C713.504,591.119 701.115,559.302 704.742,546.756 C702.856,515.921 706.774,485.309 707.863,454.518 C707.689,451.04 707.664,447.576 707.736,444.121 z" fill="#EFB10D"/>
      <path d="M787.543,443.019 C785.327,442.574 779.315,443.745 777.463,445.124 C772.281,448.985 770.741,469.966 773.232,476.078 C775.815,482.415 782.434,485.357 788.975,483.901 C795.179,482.52 799.918,476.983 799.617,470.511 C799.318,464.069 793.899,444.295 787.543,443.019" fill="#EFB10D"/>
      <path d="M689.393,518.948 C687.712,511.583 686.675,504.157 686.167,496.622 C686.035,494.656 685.003,493.341 683.65,492.645 C681.471,489.349 675.415,489.138 674.583,494.065 C672.843,504.371 674.814,514.448 680.462,523.26 C683.687,528.291 690.601,524.242 689.393,518.948" fill="#EFB10D"/>
      <path d="M767.635,371.633 C767.273,368.758 766.911,365.884 766.549,363.009 C766.212,360.329 764.143,358.125 761.302,358.269 C758.755,358.399 756.223,360.823 756.562,363.517 C756.924,366.392 757.286,369.267 757.648,372.141 C757.985,374.821 760.054,377.025 762.896,376.881 C765.443,376.751 767.974,374.327 767.635,371.633" fill="#EFB10D"/>
    </g>
    <g>
      <path d="M1288.574,550.277 L1288.574,560.277 C1288.574,566.712 1298.574,566.722 1298.574,560.277 L1298.574,550.277 C1298.574,543.842 1288.574,543.832 1288.574,550.277" fill="#7079AD"/>
      <path d="M1309.429,378.54 C1311.436,374.677 1312.535,370.426 1311.99,365.934 C1311.425,361.287 1309.083,356.806 1305.521,353.86 C1304.784,353.001 1304.001,352.172 1303.175,351.385 C1297.715,346.185 1291.033,340.569 1283.519,338.808 C1281.278,337.529 1278.939,336.395 1276.49,335.462 C1271.317,333.492 1265.845,332.39 1260.333,332.113 C1258.885,330.476 1257.382,329 1255.772,327.727 C1255.137,326.521 1254.497,325.319 1253.847,324.121 C1253.573,323.174 1253.28,322.23 1252.96,321.294 C1249.94,312.441 1245.003,304.641 1238.705,298.184 C1235.356,293.086 1231.569,288.302 1226.67,284.58 C1217.072,277.289 1205.247,276.276 1193.593,278.077 C1184.347,277.527 1175.166,278.77 1166.486,281.677 C1156.552,276.029 1145.018,274.062 1135.402,282.71 C1129.694,287.843 1127.117,296.997 1131.885,303.622 L1131.895,303.636 C1132.477,304.444 1132.438,305.533 1131.818,306.314 C1127.619,311.608 1124.083,317.424 1121.294,323.583 C1112.717,337.812 1108.881,355.042 1111.683,371.462 C1112.093,373.866 1112.685,376.186 1113.418,378.44 C1116.589,388.183 1118.241,398.355 1118.241,408.601 L1118.241,450.944 C1118.241,457.379 1128.241,457.389 1128.241,450.944 L1128.241,406.242 C1128.921,407.336 1129.616,408.42 1130.337,409.486 C1132.368,412.915 1134.262,416.405 1135.834,420.043 C1136.425,433.217 1134.649,447.837 1133.556,462.92 C1135.431,473.073 1130.066,484.671 1137.374,493.595 C1148.917,497.397 1144.609,478.428 1146.61,471.578 C1146.022,460.418 1147.964,449.351 1148.965,438.244 C1159.504,431.238 1159.343,447.076 1160.378,452.735 C1166.202,472.93 1156.234,553.908 1159.268,573.894 C1160.064,580.281 1162.24,593.639 1171.123,590.249 C1178.622,581.635 1171.806,570.145 1173.319,560.22 C1175.743,538.762 1174.283,454.308 1176.632,442.675 C1179.814,434.023 1192.222,433.708 1198.084,439.563 C1200.38,446.543 1201.516,454.056 1201.473,461.487 C1200.694,469.018 1200.068,476.725 1199.367,481.891 C1199.241,486.37 1197.945,495.442 1202.838,500.403 C1209.518,510.428 1213.975,491.184 1211.556,485.421 C1212.46,473.524 1209.584,458.61 1211.052,446.731 C1211.052,444.561 1211.186,439.385 1211.529,441.023 C1213.077,448.421 1215.657,452.591 1218.14,454.938 C1222.417,458.981 1225.167,464.373 1225.529,470.247 C1226.199,481.129 1227.157,496.902 1227.079,512.061 C1223.627,541.169 1220.046,570.536 1226.813,599.47 C1228.112,605.022 1236.606,603.722 1236.635,598.14 C1236.783,569.417 1236.931,540.693 1237.08,511.969 C1237.668,507.089 1238.245,502.219 1238.757,497.366 C1240.467,481.135 1241.535,464.74 1239.965,448.452 C1239.804,446.781 1239.613,445.099 1239.381,443.421 C1238.79,439.154 1244.185,436.883 1246.855,440.263 C1248.951,442.916 1250.78,446.621 1251.543,451.764 C1256.883,457.729 1255.099,468.753 1254.877,475.115 C1254.388,484.312 1255.978,493.597 1254.861,502.706 C1254.929,524.148 1255.569,545.622 1256.205,567.028 C1258.247,578.79 1271.786,573.396 1268.835,562.905 C1266.968,547.138 1268.905,531.273 1268.463,515.44 C1268.609,506.172 1268.759,496.897 1269.052,487.629 C1271.359,486.442 1273.015,483.625 1271.574,480.61 C1270.642,478.658 1269.989,476.704 1269.568,474.755 C1269.753,471 1269.985,467.248 1270.247,463.498 C1272.995,461.511 1274.969,459.074 1276.505,456.375 C1276.904,456.298 1277.317,456.335 1277.737,456.513 C1277.997,456.717 1278.273,456.898 1278.56,457.056 C1278.741,457.217 1278.923,457.401 1279.105,457.625 C1279.99,458.713 1280.385,460.092 1280.516,461.555 C1280.299,464.148 1280.082,466.741 1279.866,469.334 C1279.493,473.8 1285.564,475.56 1288.364,473.159 C1288.182,491.883 1288.219,510.608 1288.456,529.331 C1288.318,530.088 1288.335,530.793 1288.478,531.434 C1288.48,531.543 1288.48,531.651 1288.482,531.76 C1288.572,538.376 1299.158,538.203 1298.448,531.183 C1298.457,530.769 1298.466,530.364 1298.475,529.95 C1302.554,508.071 1303.732,485.724 1301.49,463.56 C1301.092,459.619 1300.515,455.635 1299.896,451.628 C1299.295,437.498 1300.863,423.589 1304.602,410.013 C1305.071,409.37 1305.533,408.721 1305.972,408.056 C1309.123,403.284 1309.911,398.831 1308.681,394.443 C1309.735,389.376 1310.039,384.089 1309.429,378.54" fill="#7079AD"/>
      <path d="M1209.642,516.705 C1208.663,515.592 1207.181,515.173 1205.74,515.303 C1205.633,515.294 1205.527,515.284 1205.421,515.284 C1202.471,515.284 1200.72,517.589 1200.421,520.284 C1200.251,521.821 1198.977,523.357 1198.554,524.862 C1198.063,526.613 1197.925,528.62 1198.385,530.395 C1199.485,534.634 1203.73,537.309 1208.013,536.114 C1211.848,535.044 1214.731,531.229 1214.776,527.267 C1214.823,523.087 1212.269,519.692 1209.642,516.705" fill="#7079AD"/>
      <path d="M1150.993,527.609 C1149.604,519.839 1146.793,512.102 1144.673,504.497 C1143.146,499.02 1135.422,500.449 1134.86,505.158 C1134.796,505.504 1134.765,505.875 1134.772,506.27 C1134.907,513.6 1134.697,521.03 1135.178,528.344 C1135.51,533.388 1137.816,539.172 1143.881,538.719 C1149.526,538.297 1151.88,532.57 1150.993,527.609" fill="#7079AD"/>
      <path d="M1119.908,457.944 C1117.198,458.065 1114.908,460.141 1114.908,462.944 L1114.908,470.944 C1114.908,473.559 1117.208,476.065 1119.908,475.944 C1122.617,475.823 1124.908,473.747 1124.908,470.944 L1124.908,462.944 C1124.908,460.329 1122.608,457.823 1119.908,457.944" fill="#7079AD"/>
      <path d="M1220.074,478.777 C1213.639,478.777 1213.629,488.777 1220.074,488.777 C1226.509,488.777 1226.519,478.777 1220.074,478.777" fill="#7079AD"/>
    </g>
    <g>
      <path d="M582.326,91.606 L582.063,68.967 C591.998,53.641 588.065,40.537 585.708,35.543 C581.169,25.926 568.333,23.285 559.055,26.89 C557,27.689 555.149,28.749 553.453,29.991 C552.501,30.081 551.535,30.452 550.64,31.191 C550.303,31.47 549.959,31.714 549.611,31.938 C542.551,28.275 534.778,26.05 526.863,25.328 C523.827,23.157 521.048,21.095 518.778,19.937 C508.496,14.692 497.038,15.293 486.883,20.577 C469.898,29.414 463.666,46.838 463.624,64.59 C463.37,65.645 463.143,66.916 462.959,68.358 C461.996,75.884 458.485,82.802 453.262,88.305 C451.187,90.491 449.586,92.822 449.548,94.723 C449.466,98.816 451.561,102.378 454.733,104.682 C454.386,107.691 453.223,110.646 452.339,113.537 C450.974,118 450.067,122.495 450.724,127.165 C451.782,134.687 456.205,140.955 461.069,146.62 L461.069,239.196 C461.069,245.631 471.069,245.641 471.069,239.196 L470.235,166.466 C470.197,163.18 474.981,162.767 475.513,166.011 C479.171,188.326 482.066,210.801 477.449,220.227 C480.972,257.557 483.56,268.042 480.965,305.436 C476.444,314.201 483.762,350.596 492.215,330.383 C491.076,292.826 499.574,255.868 500.364,218.384 C501.664,197.961 505.641,215.142 501.88,225 C506.494,250.868 500.584,277.157 504.274,303.129 C516.277,327.93 517.428,288.812 515.92,278.2 C514.836,258.158 519.216,238.003 518.314,218.006 C520.865,194.441 521.134,170.357 525.498,147.044 C537.62,158.412 528.932,185.334 532.839,201.88 C529.096,215.332 516.605,227.638 524.947,245.485 C530.541,274.654 527.848,304.704 532.079,334.105 C533.569,354.398 525.912,381.165 536.473,397.503 C550.521,380.899 539.866,353.609 543.777,332.761 C542.864,293.444 544.745,253.726 554.133,215.388 C554.421,212.395 554.699,209.397 554.974,206.397 C555.745,206.339 556.518,206.248 557.291,206.091 C568.167,203.873 573.834,192.396 574.269,182.18 C574.718,171.622 569.782,162.346 566.297,152.711 C569.094,150.134 572.471,147.849 575.063,145.935 L575.063,327.692 C575.063,334.126 585.063,334.137 585.063,327.692 L582.861,137.767 C583.572,136.649 584.198,135.483 584.716,134.277 C585.145,134.129 585.573,133.973 585.998,133.809 L585.998,171.609 C585.998,178.044 595.998,178.055 595.998,171.609 L595.998,132.366 C595.998,128.944 596.965,125.592 596.965,122.17 C596.965,115.278 594.226,111.222 591.129,108.839 C585.735,104.688 582.405,98.411 582.326,91.606" fill="#C8770E"/>
      <path d="M529.032,452.855 C528.276,457.242 530.395,463.039 534.131,465.621 C545.835,454.682 543.083,427.019 537.542,411.267 C526.969,413.336 531.095,440.461 529.032,452.855" fill="#C8770E"/>
      <path d="M464.998,249.609 C458.563,249.609 458.553,259.609 464.998,259.609 C471.433,259.609 471.443,249.609 464.998,249.609" fill="#C8770E"/>
      <path d="M591.331,181.276 C584.897,181.276 584.886,191.276 591.331,191.276 C597.766,191.276 597.776,181.276 591.331,181.276" fill="#C8770E"/>
    </g>
    <g>
      <path d="M1464.637,252.278 C1464.567,252.987 1464.487,253.772 1464.399,254.576 C1464.366,254.579 1464.332,254.58 1464.299,254.584 C1464.247,254.229 1464.168,253.885 1464.068,253.55 C1464.336,252.921 1464.542,252.475 1464.594,252.369 C1464.609,252.339 1464.622,252.308 1464.637,252.278 M1354.694,93.241 C1353.149,101.505 1353.252,123.1 1355.563,135.443 C1356.685,141.435 1357.337,147.506 1357.337,153.602 L1357.337,253.785 C1357.337,260.231 1367.337,260.22 1367.337,253.785 L1367.337,191.791 C1367.337,183.274 1378.653,180.461 1382.741,187.932 C1386.618,195.017 1389.376,203.007 1388.135,210.322 C1385.438,221.766 1394.772,253.913 1403.547,229.815 C1403.355,227.705 1403.221,225.575 1403.114,223.439 C1403.386,223.512 1403.67,223.543 1403.953,223.574 C1404.351,232.273 1404.823,240.973 1405.337,249.672 L1405.337,296.785 C1405.337,306.848 1418.724,307.648 1418.091,295.905 C1417.173,278.879 1416.255,261.853 1415.337,244.827 L1415.337,190.746 C1416.774,187.714 1419.152,184.841 1422.428,183.996 C1423.464,183.729 1424.516,183.715 1425.502,183.917 C1429.11,194.135 1426.612,211.135 1429.327,220.333 C1433.555,254.468 1429.819,288.808 1430.926,323.085 C1433.681,335.079 1421.58,366.361 1440.017,362.65 C1448.284,346.071 1442.916,324.692 1446.47,306.108 C1450.107,265.03 1452.251,223.836 1455.417,182.713 C1454.855,175.025 1457.707,170.538 1461.888,167.257 C1464.116,178.883 1465.631,190.618 1465.595,202.5 C1465.567,212.166 1464.528,221.794 1462.034,231.146 C1460.776,235.864 1459.177,240.511 1457.117,244.94 C1455.281,248.89 1452.988,252.697 1452.412,257.083 C1451.534,263.755 1455.764,271.181 1463.098,271.48 C1471.812,271.835 1473.274,262.822 1474.09,256.18 C1478.109,223.481 1481.217,190.846 1477.478,158.339 C1481.518,155.735 1486.292,143.969 1486.2,142.595 C1488.439,139.979 1488.213,135.336 1483.856,134.617 C1483.851,134.613 1483.846,134.61 1483.84,134.606 C1482.575,132.625 1480.865,131.22 1478.857,130.259 C1477.088,127.026 1476.302,123.312 1476.803,119.491 C1477.569,113.651 1481.852,109.303 1484.991,104.606 C1491.007,95.604 1490.947,85.322 1481.472,78.902 C1479.996,77.902 1478.148,77.028 1476.235,76.147 C1476.228,76.102 1476.224,76.058 1476.217,76.013 C1475.947,74.284 1475.591,72.573 1475.155,70.885 C1472.895,62.138 1473.176,52.994 1475.915,44.385 C1477.107,40.638 1477.173,36.716 1474.892,32.483 C1470.09,23.572 1458.499,23.46 1450.224,26.907 C1446.532,28.446 1442.961,30.79 1439.184,32.362 C1431.444,29.85 1423.328,29.057 1415.386,29.953 C1404.981,26.932 1395.037,27.351 1385.792,33.7 C1376.725,39.927 1369.394,48.986 1362.895,57.757 C1355.909,67.184 1351.305,78.182 1353.834,90.048 C1354.065,91.133 1354.363,92.193 1354.694,93.241" fill="#DFCFA9"/>
      <path d="M1362.337,261.785 C1365.049,261.785 1367.337,264.073 1367.337,266.785 L1367.337,275.785 C1367.337,278.487 1365.039,280.785 1362.337,280.785 C1359.625,280.785 1357.337,278.497 1357.337,275.785 L1357.337,266.785 C1357.337,264.083 1359.635,261.785 1362.337,261.785" fill="#DFCFA9"/>
      <path d="M1469.25,280.454 L1471.782,295.144 C1472.418,298.837 1473.367,302.86 1472.883,306.71 C1472.069,313.178 1467.609,330.765 1463.268,329.532 C1458.682,328.23 1455.925,308.105 1455.852,301.568 C1455.767,293.896 1468.212,274.429 1469.25,280.454" fill="#DFCFA9"/>
      <path d="M1381.897,253.012 C1382.121,250.851 1382.94,248.895 1384.701,247.534 C1386.379,246.237 1388.961,246.264 1391.011,245.964 C1392.395,245.761 1393.605,245.731 1394.863,246.468 C1395.901,247.075 1396.89,248.264 1397.161,249.456 C1397.241,249.804 1397.276,250.176 1397.279,250.555 C1398.193,252.909 1397.94,255.713 1396.7,257.936 C1394.66,261.591 1390.164,263.071 1386.402,261.195 C1383.512,259.755 1381.563,256.235 1381.897,253.012" fill="#DFCFA9"/>
    </g>
    <g>
      <path d="M302.721,441.828 C302.766,441.921 302.947,442.313 303.183,442.865 C303.095,443.159 303.026,443.461 302.98,443.773 C302.951,443.77 302.921,443.769 302.892,443.766 C302.815,443.06 302.745,442.37 302.683,441.748 C302.696,441.774 302.708,441.801 302.721,441.828 M400.016,299.24 C402.237,288.817 398.192,279.156 392.056,270.875 C386.347,263.171 379.908,255.213 371.942,249.743 C363.821,244.166 355.087,243.797 345.946,246.451 C338.97,245.664 331.84,246.361 325.042,248.568 C321.724,247.186 318.587,245.127 315.344,243.776 C308.075,240.747 297.893,240.846 293.675,248.674 C291.671,252.392 291.729,255.837 292.776,259.129 C295.182,266.691 295.429,274.724 293.443,282.407 C293.06,283.89 292.748,285.393 292.511,286.911 C292.504,286.951 292.501,286.99 292.495,287.029 C290.815,287.803 289.191,288.571 287.895,289.45 C279.571,295.089 279.519,304.121 284.804,312.029 C287.561,316.155 291.323,319.974 291.996,325.104 C292.436,328.46 291.745,331.723 290.192,334.563 C288.428,335.407 286.926,336.641 285.814,338.381 C285.81,338.385 285.805,338.388 285.8,338.391 C281.973,339.023 281.775,343.101 283.741,345.4 C283.661,346.606 287.854,356.942 291.403,359.23 C288.119,387.784 290.849,416.451 294.379,445.175 C295.096,451.01 296.38,458.927 304.035,458.615 C310.477,458.353 314.193,451.83 313.422,445.969 C312.915,442.116 310.902,438.772 309.289,435.302 C307.479,431.411 306.075,427.329 304.97,423.185 C302.779,414.97 301.866,406.512 301.841,398.021 C301.81,387.584 303.141,377.275 305.098,367.063 C308.771,369.945 311.276,373.886 310.782,380.64 C313.563,416.764 315.447,452.95 318.642,489.034 C321.763,505.358 317.048,524.138 324.31,538.701 C340.505,541.961 329.876,514.483 332.295,503.946 C333.268,473.837 329.987,443.672 333.7,413.687 C336.085,405.607 333.891,390.674 337.061,381.698 C337.927,381.52 338.851,381.533 339.761,381.767 C342.638,382.509 344.728,385.033 345.989,387.697 L345.989,435.203 C345.183,450.159 344.377,465.115 343.57,480.071 C343.014,490.386 354.774,489.683 354.774,480.844 L354.774,439.459 C355.225,431.817 355.64,424.175 355.989,416.533 C356.238,416.506 356.488,416.479 356.726,416.414 C356.633,418.291 356.515,420.162 356.346,422.015 C364.054,443.184 372.254,414.945 369.885,404.892 C368.794,398.467 371.217,391.448 374.623,385.225 C378.214,378.662 388.154,381.133 388.154,388.614 L388.154,443.072 C388.154,448.724 396.938,448.734 396.938,443.072 L396.938,355.068 C396.938,349.713 397.511,344.38 398.497,339.116 C400.527,328.275 400.617,309.305 399.26,302.045 C399.55,301.124 399.813,300.193 400.016,299.24" fill="#A31503"/>
      <path d="M392.546,450.099 C390.164,450.099 388.154,452.109 388.154,454.491 L388.154,462.397 C388.154,464.77 390.173,466.789 392.546,466.789 C394.928,466.789 396.938,464.779 396.938,462.397 L396.938,454.491 C396.938,452.118 394.92,450.099 392.546,450.099" fill="#A31503"/>
      <path d="M298.631,466.498 L296.407,479.402 C295.848,482.646 295.014,486.18 295.44,489.562 C296.155,495.243 300.072,510.693 303.886,509.61 C307.914,508.465 310.336,490.787 310.4,485.045 C310.475,478.306 299.543,461.206 298.631,466.498" fill="#A31503"/>
      <path d="M375.364,442.392 C375.167,440.493 374.448,438.775 372.9,437.58 C371.427,436.441 369.159,436.464 367.358,436.201 C366.142,436.022 365.079,435.997 363.974,436.643 C363.063,437.176 362.194,438.221 361.955,439.268 C361.886,439.574 361.854,439.9 361.852,440.234 C361.05,442.301 361.271,444.764 362.361,446.717 C364.153,449.928 368.102,451.228 371.407,449.581 C373.945,448.315 375.658,445.223 375.364,442.392" fill="#A31503"/>
    </g>
  </g>
</svg>
