<?xml version="1.0" encoding="UTF-8"?>
<!DOCTYPE svg PUBLIC "-//W3C//DTD SVG 1.1//EN" "http://www.w3.org/Graphics/SVG/1.1/DTD/svg11.dtd">
<svg version="1.1" xmlns="http://www.w3.org/2000/svg" xmlns:xlink="http://www.w3.org/1999/xlink" x="0" y="0" width="216" height="30.643" viewBox="0, 0, 216, 30.643">
  <g id="Background">
    <rect x="0" y="0" width="216" height="30.643" fill="#000000" fill-opacity="0"/>
  </g>
  <defs>
    <clipPath id="Clip_1">
      <path d="M0,-0 L216,-0 L216,30.643 L0,30.643 z"/>
    </clipPath>
  </defs>
  <g id="Layer_1">
    <g id="BL_Logo_White">
      <path d="M3.483,11.205 L7.857,11.205 C9.809,11.205 10.975,10.189 10.975,8.487 C10.975,6.786 9.809,5.77 7.857,5.77 L3.483,5.77 L3.483,11.205 z M3.483,20.178 L8.143,20.178 C10.083,20.178 11.289,19.061 11.289,17.261 C11.289,15.479 10.083,14.373 8.143,14.373 L3.483,14.373 L3.483,20.178 z M8.43,23.347 L-0,23.347 L-0,2.602 L8.115,2.602 C12.027,2.602 14.458,4.813 14.458,8.372 C14.458,10.478 13.275,11.998 11.991,12.685 C13.741,13.558 14.772,15.29 14.772,17.404 C14.772,21.069 12.341,23.347 8.43,23.347" fill="#6E2F00"/>
      <path d="M17.999,2.602 L21.482,2.602 L21.482,6.085 L17.999,6.085 z M18.085,8.46 L21.396,8.46 L21.396,23.346 L18.085,23.346 z" fill="#6E2F00"/>
      <path d="M31.03,11.286 C28.591,11.286 28.255,13.374 28.255,15.632 C28.255,17.889 28.591,19.979 31.03,19.979 C33.309,19.979 33.776,18.241 33.776,15.632 C33.776,13.023 33.309,11.286 31.03,11.286 z M30.687,29.377 C28.411,29.377 26.988,28.844 25.437,27.409 L25.286,27.27 L27.424,25.131 L27.564,25.263 C28.398,26.043 29.157,26.495 30.572,26.495 C33.464,26.495 33.776,24.055 33.776,23.005 L33.776,21.655 C32.841,22.584 31.727,23.004 30.229,23.004 C28.776,23.004 27.498,22.526 26.631,21.659 C25.226,20.255 24.944,18.311 24.944,15.632 C24.944,12.952 25.226,11.009 26.631,9.605 C27.479,8.757 28.767,8.289 30.257,8.289 C31.802,8.289 32.908,8.712 33.861,9.686 L33.861,8.46 L37.086,8.46 L37.086,23.063 C37.086,26.84 34.514,29.377 30.687,29.377" fill="#6E2F00"/>
      <path d="M43.867,14.519 L49.973,14.519 C49.938,13.793 49.848,13.401 49.597,12.824 C49.146,11.752 48.146,11.114 46.921,11.114 C45.678,11.114 44.667,11.752 44.215,12.822 C43.965,13.398 43.898,13.781 43.867,14.519 z M47.291,23.518 C44.228,23.518 40.577,22.194 40.577,15.89 C40.577,11.202 43.008,8.289 46.921,8.289 C50.773,8.289 53.263,11.104 53.263,15.46 L53.263,16.945 L43.862,16.945 C43.929,19.276 45.192,20.607 47.349,20.607 C48.996,20.607 49.778,20.126 50.724,19.179 L50.859,19.043 L53.006,21.058 L52.862,21.202 C51.432,22.631 50.002,23.518 47.291,23.518" fill="#6E2F00"/>
      <path d="M62.808,23.347 L60.81,23.347 C57.735,23.347 56.639,21.177 56.639,19.147 L56.639,2.602 L59.95,2.602 L59.95,18.976 C59.95,20.06 60.323,20.464 61.324,20.464 L62.808,20.464 L62.808,23.347" fill="#6E2F00"/>
      <path d="M70.583,11.286 C69.784,11.286 69.119,11.544 68.608,12.056 C67.739,12.925 67.667,14.49 67.667,15.89 C67.667,17.288 67.739,18.853 68.608,19.722 C69.131,20.245 69.814,20.522 70.583,20.522 C71.371,20.522 72.064,20.245 72.587,19.722 C73.369,18.94 73.529,17.624 73.529,15.89 C73.529,14.491 73.457,12.926 72.587,12.056 C72.083,11.552 71.39,11.286 70.583,11.286 z M70.583,23.518 C68.792,23.518 67.251,22.904 66.126,21.743 C64.569,20.123 64.355,17.972 64.355,15.89 C64.355,13.821 64.569,11.684 66.125,10.065 C67.251,8.904 68.792,8.289 70.583,8.289 C72.868,8.289 74.284,9.255 75.07,10.064 C76.626,11.685 76.84,13.822 76.84,15.89 C76.84,17.972 76.626,20.122 75.07,21.742 C74.284,22.552 72.868,23.518 70.583,23.518" fill="#6E2F00"/>
      <path d="M94.704,23.347 L91.931,23.347 L88.673,13.653 L85.442,23.347 L82.638,23.347 L78.028,8.46 L81.535,8.46 L84.202,18.178 L87.414,8.46 L89.958,8.46 L93.143,18.175 L95.809,8.46 L99.344,8.46 L94.704,23.347" fill="#6E2F00"/>
      <path d="M124.013,13.088 L117.336,13.088 L117.336,2.616 L119.027,2.616 L119.027,11.557 L124.013,11.557 L124.013,13.088" fill="#6E2F00"/>
      <path d="M127.861,9.831 C127.048,9.831 126.599,10.186 126.599,10.832 C126.599,11.495 127.022,11.818 127.89,11.818 C128.411,11.818 128.84,11.788 129.229,11.414 C129.434,11.207 129.53,10.875 129.53,10.367 L129.53,9.831 L127.861,9.831 z M127.658,13.175 C126.748,13.175 126.106,12.956 125.638,12.488 C125.251,12.087 125.039,11.51 125.039,10.861 C125.039,9.494 126.013,8.679 127.643,8.679 L129.53,8.679 L129.53,8.216 C129.53,7.289 129.066,6.895 127.977,6.895 C127.198,6.895 126.818,7.062 126.412,7.584 L126.371,7.637 L125.306,6.635 L125.344,6.591 C126.029,5.792 126.733,5.509 128.036,5.509 C130.092,5.509 131.135,6.381 131.135,8.099 L131.135,13.088 L129.56,13.088 L129.56,12.501 C129.027,12.996 128.512,13.175 127.658,13.175" fill="#6E2F00"/>
      <path d="M136.465,6.953 C135.237,6.953 134.985,7.905 134.985,9.334 C134.985,11.44 135.696,11.731 136.465,11.731 C137.682,11.731 137.931,10.773 137.931,9.334 C137.931,7.905 137.682,6.953 136.465,6.953 z M136.843,13.175 C136.012,13.175 135.453,12.95 134.956,12.404 L134.956,13.088 L133.382,13.088 L133.382,2.616 L134.985,2.616 L134.985,6.24 C135.464,5.729 136.034,5.509 136.858,5.509 C137.594,5.509 138.262,5.754 138.688,6.181 C139.432,6.925 139.535,8.136 139.535,9.334 C139.535,10.54 139.432,11.759 138.689,12.503 C138.262,12.93 137.589,13.175 136.843,13.175" fill="#6E2F00"/>
      <path d="M144.285,6.953 C143.867,6.953 143.52,7.089 143.252,7.356 C142.799,7.81 142.761,8.615 142.761,9.334 C142.761,10.054 142.799,10.859 143.252,11.312 C143.526,11.586 143.883,11.731 144.285,11.731 C144.696,11.731 145.059,11.586 145.332,11.312 C145.785,10.86 145.823,10.054 145.823,9.334 C145.823,8.615 145.785,7.809 145.332,7.356 C145.069,7.092 144.706,6.953 144.285,6.953 z M144.285,13.175 C143.385,13.175 142.611,12.866 142.046,12.284 C141.265,11.47 141.157,10.385 141.157,9.334 C141.157,8.292 141.265,7.215 142.046,6.401 C142.611,5.818 143.385,5.509 144.285,5.509 C145.433,5.509 146.144,5.994 146.538,6.4 C147.319,7.215 147.427,8.292 147.427,9.334 C147.427,10.385 147.319,11.47 146.538,12.283 C146.144,12.69 145.433,13.175 144.285,13.175" fill="#6E2F00"/>
      <path d="M153.471,7.429 C153.155,7.113 152.904,6.953 152.409,6.953 C151.593,6.953 151.001,7.624 151.001,8.55 L151.001,13.088 L149.398,13.088 L149.398,5.596 L150.973,5.596 L150.973,6.285 C151.397,5.809 152.122,5.509 152.874,5.509 C153.635,5.509 154.174,5.723 154.676,6.225 L153.471,7.429" fill="#6E2F00"/>
      <path d="M157.732,9.831 C156.918,9.831 156.47,10.186 156.47,10.832 C156.47,11.495 156.892,11.818 157.761,11.818 C158.281,11.818 158.711,11.788 159.1,11.414 C159.305,11.207 159.401,10.875 159.401,10.367 L159.401,9.831 L157.732,9.831 z M157.529,13.175 C156.618,13.175 155.977,12.956 155.509,12.488 C155.122,12.087 154.91,11.51 154.91,10.861 C154.91,9.494 155.883,8.679 157.514,8.679 L159.401,8.679 L159.401,8.216 C159.401,7.289 158.937,6.895 157.849,6.895 C157.069,6.895 156.688,7.062 156.283,7.584 L156.242,7.637 L155.177,6.635 L155.215,6.591 C155.9,5.792 156.604,5.509 157.906,5.509 C159.963,5.509 161.005,6.381 161.005,8.099 L161.005,13.088 L159.43,13.088 L159.43,12.501 C158.902,12.99 158.372,13.175 157.529,13.175" fill="#6E2F00"/>
      <path d="M166.455,13.088 L165.507,13.088 C164.07,13.088 163.426,12.028 163.426,10.977 L163.426,6.983 L162.584,6.983 L162.584,5.727 L163.426,5.727 L163.426,3.489 L165.03,3.489 L165.03,5.727 L166.455,5.727 L166.455,6.983 L165.03,6.983 L165.03,10.904 C165.03,11.433 165.284,11.701 165.784,11.701 L166.455,11.701 L166.455,13.088" fill="#6E2F00"/>
      <path d="M170.885,6.953 C170.467,6.953 170.12,7.089 169.852,7.356 C169.399,7.81 169.361,8.615 169.361,9.334 C169.361,10.054 169.399,10.859 169.852,11.312 C170.126,11.586 170.483,11.731 170.885,11.731 C171.296,11.731 171.659,11.586 171.933,11.312 C172.385,10.859 172.423,10.054 172.423,9.334 C172.423,8.615 172.385,7.81 171.933,7.356 C171.669,7.092 171.306,6.953 170.885,6.953 z M170.885,13.175 C169.985,13.175 169.211,12.866 168.646,12.284 C167.865,11.47 167.757,10.385 167.757,9.334 C167.757,8.292 167.865,7.215 168.646,6.401 C169.211,5.818 169.985,5.509 170.885,5.509 C172.033,5.509 172.744,5.994 173.138,6.4 C173.92,7.215 174.027,8.292 174.027,9.334 C174.027,10.385 173.92,11.47 173.138,12.283 C172.744,12.69 172.033,13.175 170.885,13.175" fill="#6E2F00"/>
      <path d="M179.943,7.429 C179.626,7.113 179.375,6.953 178.881,6.953 C178.065,6.953 177.473,7.624 177.473,8.55 L177.473,13.088 L175.869,13.088 L175.869,5.596 L177.444,5.596 L177.444,6.284 C177.868,5.809 178.593,5.509 179.346,5.509 C180.107,5.509 180.646,5.723 181.147,6.225 L179.943,7.429" fill="#6E2F00"/>
      <path d="M182.874,16.009 L182.217,16.009 L182.217,14.551 L182.655,14.551 C183.236,14.551 183.443,14.398 183.66,13.806 L184.059,12.678 L181.464,5.596 L183.164,5.596 L183.178,5.637 L184.878,10.656 L186.551,5.596 L188.266,5.596 L184.98,14.516 C184.834,14.925 184.658,15.223 184.428,15.454 C184.054,15.828 183.546,16.009 182.874,16.009" fill="#6E2F00"/>
      <path d="M194.25,13.088 L192.646,13.088 L192.646,6.983 L191.803,6.983 L191.803,5.727 L192.646,5.727 L192.646,4.654 C192.646,3.604 193.289,2.544 194.727,2.544 L195.718,2.544 L195.718,3.93 L195.003,3.93 C194.503,3.93 194.25,4.197 194.25,4.726 L194.25,5.727 L195.718,5.727 L195.718,6.983 L194.25,6.983 L194.25,13.088" fill="#6E2F00"/>
      <path d="M199.754,6.953 C199.337,6.953 198.989,7.089 198.722,7.356 C198.269,7.809 198.231,8.615 198.231,9.334 C198.231,10.054 198.269,10.86 198.721,11.312 C198.995,11.586 199.352,11.731 199.754,11.731 C200.166,11.731 200.528,11.586 200.802,11.312 C201.255,10.859 201.293,10.054 201.293,9.334 C201.293,8.615 201.255,7.81 200.802,7.356 C200.538,7.092 200.175,6.953 199.754,6.953 z M199.754,13.175 C198.855,13.175 198.081,12.866 197.516,12.284 C196.734,11.47 196.627,10.385 196.627,9.334 C196.627,8.292 196.734,7.215 197.516,6.401 C198.081,5.818 198.855,5.509 199.754,5.509 C200.903,5.509 201.614,5.994 202.007,6.4 C202.789,7.215 202.897,8.292 202.897,9.334 C202.897,10.385 202.789,11.47 202.007,12.283 C201.614,12.69 200.903,13.175 199.754,13.175" fill="#6E2F00"/>
      <path d="M208.813,7.429 C208.496,7.113 208.245,6.953 207.751,6.953 C206.935,6.953 206.343,7.624 206.343,8.55 L206.343,13.088 L204.739,13.088 L204.739,5.596 L206.314,5.596 L206.314,6.284 C206.738,5.809 207.463,5.509 208.216,5.509 C208.977,5.509 209.516,5.723 210.017,6.225 L208.813,7.429" fill="#6E2F00"/>
      <path d="M120.74,18.597 C120.162,18.597 119.603,18.829 119.243,19.217 C118.755,19.748 118.649,20.312 118.649,22.389 C118.649,24.465 118.755,25.028 119.243,25.56 C119.603,25.948 120.162,26.18 120.74,26.18 C121.317,26.18 121.877,25.948 122.236,25.56 C122.725,25.028 122.831,24.465 122.831,22.389 C122.831,20.312 122.725,19.748 122.236,19.217 C121.877,18.829 121.317,18.597 120.74,18.597 z M120.74,27.711 C119.653,27.711 118.724,27.334 117.979,26.589 C116.957,25.568 116.958,24.403 116.958,22.472 L116.958,22.306 C116.958,20.375 116.957,19.209 117.979,18.189 C118.723,17.443 119.652,17.065 120.74,17.065 C121.837,17.065 122.771,17.443 123.516,18.189 C124.523,19.196 124.523,20.337 124.522,22.229 L124.522,22.549 C124.523,24.44 124.523,25.581 123.516,26.589 C122.77,27.334 121.836,27.711 120.74,27.711" fill="#6E2F00"/>
      <path d="M129.52,27.711 C128.875,27.711 127.951,27.56 127.213,26.84 C126.524,26.167 126.174,25.167 126.174,23.871 C126.174,22.974 126.415,20.046 129.52,20.046 C130.573,20.046 131.289,20.35 131.991,21.097 L132.032,21.141 L130.928,22.214 L130.885,22.168 C130.422,21.661 130.078,21.49 129.52,21.49 C128.978,21.49 128.51,21.713 128.201,22.12 C127.901,22.503 127.778,23.011 127.778,23.871 C127.778,24.743 127.901,25.254 128.201,25.636 C128.51,26.044 128.978,26.267 129.52,26.267 C130.077,26.267 130.421,26.096 130.885,25.59 L130.927,25.544 L132.032,26.602 L131.991,26.646 C131.279,27.403 130.563,27.711 129.52,27.711" fill="#6E2F00"/>
      <path d="M134.567,23.215 L137.756,23.215 C137.739,22.812 137.694,22.607 137.56,22.297 C137.324,21.737 136.801,21.403 136.162,21.403 C135.513,21.403 134.985,21.737 134.749,22.296 C134.615,22.605 134.582,22.805 134.567,23.215 z M136.35,27.711 C133.561,27.711 132.976,25.623 132.976,23.871 C132.976,21.512 134.196,20.046 136.162,20.046 C138.097,20.046 139.348,21.461 139.348,23.653 L139.348,24.368 L134.565,24.368 C134.587,25.586 135.262,26.311 136.38,26.311 C137.226,26.311 137.645,26.051 138.124,25.573 L138.166,25.531 L138.209,25.571 L139.199,26.501 L139.155,26.544 C138.435,27.265 137.715,27.711 136.35,27.711" fill="#6E2F00"/>
      <path d="M143.459,24.368 C142.645,24.368 142.196,24.723 142.196,25.368 C142.196,26.032 142.619,26.354 143.488,26.354 C144.008,26.354 144.437,26.325 144.827,25.95 C145.032,25.744 145.128,25.412 145.128,24.903 L145.128,24.368 L143.459,24.368 z M143.255,27.711 C142.345,27.711 141.703,27.493 141.235,27.024 C140.849,26.624 140.636,26.047 140.636,25.397 C140.636,24.052 141.634,23.215 143.241,23.215 L145.128,23.215 L145.128,22.752 C145.128,21.826 144.663,21.431 143.575,21.431 C142.795,21.431 142.415,21.599 142.009,22.12 L141.969,22.173 L140.903,21.172 L140.941,21.127 C141.626,20.329 142.331,20.046 143.633,20.046 C145.689,20.046 146.732,20.917 146.732,22.636 L146.732,27.624 L145.157,27.624 L145.157,27.038 C144.629,27.527 144.098,27.711 143.255,27.711" fill="#6E2F00"/>
      <path d="M154.989,27.624 L153.385,27.624 L153.385,23.072 C153.385,22.066 152.866,21.49 151.962,21.49 C151.618,21.49 150.497,21.604 150.497,23.072 L150.497,27.624 L148.893,27.624 L148.893,20.133 L150.468,20.133 L150.468,20.787 C150.963,20.308 151.632,20.046 152.369,20.046 C153.122,20.046 153.765,20.283 154.229,20.732 C154.754,21.244 154.989,21.898 154.989,22.854 L154.989,27.624" fill="#6E2F00"/>
      <path d="M163.218,27.711 C161.576,27.711 160.467,27.297 159.511,26.327 L159.469,26.283 L160.601,25.167 L160.644,25.209 C161.324,25.89 162.103,26.18 163.246,26.18 C164.566,26.18 165.323,25.625 165.323,24.656 C165.323,24.208 165.189,23.852 164.936,23.626 C164.683,23.386 164.426,23.289 163.834,23.204 L162.613,23.03 C161.774,22.914 161.084,22.622 160.618,22.185 C160.096,21.694 159.843,21.033 159.843,20.164 C159.843,18.282 161.224,17.065 163.363,17.065 C164.748,17.065 165.721,17.422 166.617,18.259 L166.663,18.302 L165.573,19.377 L165.531,19.336 C164.963,18.794 164.281,18.553 163.319,18.553 C162.208,18.553 161.49,19.163 161.49,20.106 C161.49,20.492 161.615,20.8 161.862,21.02 C162.115,21.246 162.527,21.415 162.994,21.486 L164.172,21.66 C165.105,21.802 165.674,22.029 166.137,22.445 C166.701,22.937 166.999,23.686 166.999,24.613 C166.999,26.495 165.515,27.711 163.218,27.711" fill="#6E2F00"/>
      <path d="M171.78,27.711 C171.135,27.711 170.21,27.56 169.473,26.84 C168.783,26.167 168.434,25.167 168.434,23.871 C168.434,22.974 168.675,20.046 171.78,20.046 C172.833,20.046 173.549,20.35 174.251,21.097 L174.292,21.141 L173.187,22.214 L173.145,22.168 C172.682,21.661 172.337,21.49 171.78,21.49 C171.238,21.49 170.77,21.713 170.461,22.12 C170.16,22.503 170.038,23.011 170.038,23.871 C170.038,24.743 170.16,25.254 170.461,25.636 C170.77,26.044 171.238,26.267 171.78,26.267 C172.336,26.267 172.681,26.096 173.145,25.59 L173.187,25.544 L174.292,26.602 L174.251,26.646 C173.548,27.392 172.809,27.711 171.78,27.711" fill="#6E2F00"/>
      <path d="M175.861,17.109 L177.552,17.109 L177.552,18.8 L175.861,18.8 z M175.862,20.133 L177.465,20.133 L177.465,27.625 L175.862,27.625 z" fill="#6E2F00"/>
      <path d="M180.913,23.215 L184.102,23.215 C184.085,22.812 184.04,22.607 183.906,22.297 C183.669,21.737 183.147,21.403 182.507,21.403 C181.858,21.403 181.33,21.737 181.095,22.296 C180.96,22.606 180.928,22.806 180.913,23.215 z M182.696,27.711 C179.907,27.711 179.321,25.623 179.321,23.871 C179.321,21.512 180.542,20.046 182.507,20.046 C184.443,20.046 185.693,21.461 185.693,23.653 L185.693,24.368 L180.911,24.368 C180.933,25.586 181.607,26.311 182.725,26.311 C183.572,26.311 183.991,26.051 184.47,25.573 L184.512,25.531 L184.555,25.571 L185.545,26.501 L185.501,26.544 C184.781,27.265 184.06,27.711 182.696,27.711" fill="#6E2F00"/>
      <path d="M193.63,27.624 L192.026,27.624 L192.026,23.072 C192.026,22.066 191.507,21.49 190.604,21.49 C190.26,21.49 189.138,21.604 189.138,23.072 L189.138,27.624 L187.534,27.624 L187.534,20.133 L189.109,20.133 L189.109,20.787 C189.604,20.308 190.273,20.046 191.011,20.046 C191.763,20.046 192.407,20.283 192.87,20.732 C193.396,21.244 193.63,21.898 193.63,22.854 L193.63,27.624" fill="#6E2F00"/>
      <path d="M198.759,27.711 C198.114,27.711 197.19,27.56 196.452,26.84 C195.762,26.167 195.413,25.167 195.413,23.871 C195.413,22.974 195.654,20.046 198.759,20.046 C199.812,20.046 200.528,20.35 201.23,21.097 L201.271,21.141 L200.166,22.214 L200.124,22.168 C199.661,21.661 199.317,21.49 198.759,21.49 C198.217,21.49 197.749,21.713 197.44,22.12 C197.136,22.508 197.017,22.998 197.017,23.871 C197.017,24.743 197.139,25.255 197.44,25.636 C197.749,26.044 198.217,26.267 198.759,26.267 C199.316,26.267 199.66,26.096 200.124,25.59 L200.166,25.544 L201.271,26.602 L201.23,26.646 C200.527,27.392 199.788,27.711 198.759,27.711" fill="#6E2F00"/>
      <path d="M203.806,23.215 L206.995,23.215 C206.978,22.812 206.933,22.607 206.799,22.297 C206.563,21.737 206.04,21.403 205.4,21.403 C204.752,21.403 204.224,21.737 203.988,22.296 C203.854,22.605 203.821,22.805 203.806,23.215 z M205.589,27.711 C202.8,27.711 202.214,25.623 202.214,23.871 C202.214,21.512 203.435,20.046 205.4,20.046 C207.336,20.046 208.586,21.461 208.586,23.653 L208.586,24.368 L203.804,24.368 C203.826,25.586 204.5,26.311 205.619,26.311 C206.465,26.311 206.884,26.051 207.363,25.573 L207.405,25.531 L207.448,25.571 L208.438,26.501 L208.394,26.544 C207.674,27.265 206.954,27.711 205.589,27.711" fill="#6E2F00"/>
      <g clip-path="url(#Clip_1)">
        <path d="M212.872,27.711 C211.811,27.711 210.697,27.581 209.733,26.634 L209.689,26.59 L209.733,26.547 L210.75,25.529 L210.793,25.573 C211.287,26.08 211.967,26.326 212.872,26.326 C213.845,26.326 214.425,25.968 214.425,25.368 C214.425,24.867 214.129,24.608 213.492,24.557 L212.314,24.455 C210.831,24.33 210.078,23.625 210.078,22.36 C210.078,20.976 211.219,20.046 212.916,20.046 C214.131,20.046 215.038,20.322 215.689,20.89 L215.737,20.932 L215.692,20.978 L214.722,21.962 L214.68,21.926 C214.268,21.579 213.67,21.403 212.902,21.403 C212.102,21.403 211.624,21.733 211.624,22.287 C211.624,22.585 211.724,22.99 212.587,23.069 L213.749,23.171 C215.221,23.295 216,24.035 216,25.31 C216,26.791 214.802,27.711 212.872,27.711" fill="#6E2F00"/>
        <path d="M106.98,-0 L107.945,-0 L107.945,30.643 L106.98,30.643 z" fill="#6E2F00"/>
      </g>
    </g>
  </g>
</svg>
