<?xml version="1.0" encoding="UTF-8"?>
<!DOCTYPE svg PUBLIC "-//W3C//DTD SVG 1.1//EN" "http://www.w3.org/Graphics/SVG/1.1/DTD/svg11.dtd">
<svg version="1.1" xmlns="http://www.w3.org/2000/svg" xmlns:xlink="http://www.w3.org/1999/xlink" x="0" y="0" width="115" height="65" viewBox="0, 0, 115, 65">
  <g id="Background">
    <rect x="0" y="0" width="115" height="65" fill="#000000" fill-opacity="0"/>
  </g>
  <g id="Layer_1">
    <path d="M116.667,-0.804 L116.667,65.804 L-1.667,65.804 L-1.667,-0.804 L116.667,-0.804 z M15.833,49.537 C13.624,49.537 11.834,51.328 11.833,53.537 C11.834,55.746 13.624,57.537 15.833,57.537 C18.043,57.537 19.834,55.746 19.833,53.537 C19.834,51.328 18.043,49.537 15.833,49.537 z M74.534,49.537 L24.534,49.537 L24.534,57.537 L74.534,57.537 L74.534,49.537 z M74.534,37.137 L24.534,37.137 L24.534,45.137 L74.534,45.137 L74.534,37.137 z M15.833,37.137 C13.624,37.137 11.834,38.928 11.833,41.137 C11.834,43.346 13.624,45.137 15.833,45.137 C18.043,45.137 19.834,43.346 19.833,41.137 C19.834,38.928 18.043,37.137 15.833,37.137 z M15.833,24.637 C13.624,24.637 11.834,26.428 11.833,28.637 C11.834,30.846 13.624,32.637 15.833,32.637 C18.043,32.637 19.834,30.846 19.833,28.637 C19.834,26.428 18.043,24.637 15.833,24.637 z M74.533,24.637 L24.533,24.637 L24.533,32.637 L74.533,32.637 L74.533,24.637 z M104.5,9.137 L10.5,9.137 L10.5,17.637 L104.5,17.637 L104.5,9.137 z" fill="#6E2F00"/>
  </g>
</svg>
