<?xml version="1.0" encoding="UTF-8"?>
<!DOCTYPE svg PUBLIC "-//W3C//DTD SVG 1.1//EN" "http://www.w3.org/Graphics/SVG/1.1/DTD/svg11.dtd">
<svg version="1.1" xmlns="http://www.w3.org/2000/svg" xmlns:xlink="http://www.w3.org/1999/xlink" x="0" y="0" width="780" height="223" viewBox="0, 0, 780, 223">
  <g id="Background">
    <rect x="0" y="0" width="780" height="223" fill="#000000" fill-opacity="0"/>
  </g>
  <g id="Layer_1">
    <path d="M237.098,199.076 L233.491,207.755 L240.751,207.755 L237.098,199.076 z M225.216,216.491 C226.062,216.401 226.84,216.259 227.395,215.528 C227.832,214.972 228.616,213.379 229.764,210.691 L237.455,192.601 L238.654,192.601 L247.825,213.46 C248.431,214.845 248.876,215.622 249.165,215.889 C249.654,216.305 250.513,216.415 251.122,216.497 L251.122,217.861 L241.113,217.861 L241.113,216.482 C241.831,216.422 242.728,216.431 243.402,216.149 C243.506,216.096 243.638,215.949 243.638,215.475 C243.638,214.919 243.202,213.756 242.995,213.26 L241.58,209.979 L232.543,209.979 C231.661,212.215 231.121,213.593 230.943,214.097 C230.773,214.616 230.698,214.986 230.698,215.223 C230.698,215.712 230.876,216.008 231.225,216.171 C231.684,216.378 232.668,216.438 233.18,216.482 L233.18,217.861 L225.216,217.861 L225.216,216.491" fill="#0B0B09"/>
    <path d="M277.12,194.423 C276.433,194.467 274.833,194.556 274.277,195.06 C274.002,195.305 273.773,195.993 273.773,197.341 L273.773,208.986 C273.773,210.868 274.033,212.29 274.522,213.283 C275.41,215.067 277.098,215.993 279.714,215.993 C285.181,215.993 286.188,212.793 286.188,208.223 L286.188,198.743 C286.188,196.735 285.937,195.653 285.58,195.283 C284.958,194.623 283.595,194.483 282.772,194.408 L282.772,193.022 L291.951,193.022 L291.951,194.408 C291.151,194.496 289.654,194.646 289.092,195.342 C288.766,195.742 288.535,196.817 288.535,198.743 L288.535,208.223 C288.535,210.763 288.143,212.793 287.328,214.283 C285.818,217.037 282.958,218.37 278.892,218.37 C274.884,218.37 272.047,217.061 270.536,214.349 C269.72,212.89 269.328,211.008 269.328,208.719 L269.328,197.341 C269.328,196.008 269.105,195.32 268.832,195.076 C268.299,194.571 266.721,194.467 266.047,194.408 L266.047,193.022 L277.12,193.022 L277.12,194.423" fill="#0B0B09"/>
    <path d="M311.581,213.83 C312.958,215.446 314.648,216.245 316.684,216.245 C317.751,216.245 318.669,215.898 319.447,215.23 C320.195,214.578 320.589,213.66 320.589,212.431 C320.589,211.349 320.21,210.415 319.417,209.609 C318.158,208.334 314.284,206.105 312.854,205.208 C311.9,204.616 311.122,203.993 310.536,203.357 C309.454,202.141 308.892,200.794 308.892,199.297 C308.892,195.179 311.929,192.504 315.951,192.504 C316.84,192.504 317.885,192.727 319.062,193.15 C320.276,193.564 320.862,193.734 320.944,193.734 C321.358,193.734 321.521,193.63 321.581,193.548 C321.825,193.253 321.9,192.868 321.988,192.504 L323.366,192.504 L324.247,201.001 L322.669,201.001 C322.202,199.207 321.492,197.187 319.877,196.052 C318.625,195.149 317.402,194.727 316.217,194.727 C314.447,194.727 312.876,195.772 312.876,197.683 C312.876,198.534 313.136,199.252 313.639,199.831 C314.172,200.468 315.025,201.149 316.195,201.874 L319.395,203.853 C321.417,205.089 322.87,206.245 323.729,207.334 C324.595,208.451 325.018,209.763 325.018,211.268 C325.018,213.276 324.254,214.972 322.729,216.319 C321.21,217.676 319.284,218.342 316.966,218.342 C315.796,218.342 314.566,218.113 313.306,217.676 C312.039,217.238 311.424,217.061 311.329,217.061 C310.973,217.061 310.84,217.157 310.781,217.253 C310.602,217.594 310.558,217.906 310.492,218.29 L309.055,218.29 L307.861,209.786 L309.388,209.786 C309.921,211.224 310.573,212.645 311.581,213.83" fill="#0B0B09"/>
    <path d="M363.24,193.015 L363.454,199.949 L361.9,199.949 C361.669,198.941 361.217,196.868 360.314,196.075 C359.774,195.593 358.544,195.283 356.418,195.283 L354.774,195.283 L354.774,213.534 C354.774,214.972 354.996,215.653 355.276,215.875 C355.869,216.319 357.61,216.422 358.307,216.482 L358.307,217.861 L346.944,217.861 L346.944,216.482 C349.981,216.245 350.396,216.231 350.396,213.113 L350.396,195.283 L348.745,195.283 C346.729,195.283 345.47,195.578 344.847,196.068 C343.877,196.838 343.485,198.912 343.284,199.949 L341.7,199.949 L341.944,193.015 L363.24,193.015" fill="#0B0B09"/>
    <path d="M393.773,199.727 C393.773,197.742 392.98,196.446 391.403,195.742 C390.544,195.365 389.373,195.157 387.877,195.157 C386.804,195.157 386.299,195.252 386.174,195.326 C386.13,195.356 386.011,195.505 386.011,196.045 L386.011,204.63 C388.41,204.527 390.107,204.26 391.114,203.86 C392.899,203.119 393.773,201.771 393.773,199.727 M381.129,215.772 C381.374,215.475 381.566,214.653 381.566,213.113 L381.566,197.341 C381.566,196.052 381.352,195.371 381.077,195.098 C380.596,194.571 379.091,194.467 378.432,194.414 L378.432,193.015 L388.884,193.015 C391.018,193.015 392.811,193.29 394.27,193.846 C397.055,194.912 398.485,196.898 398.485,199.756 C398.485,201.667 397.862,203.163 396.574,204.23 C395.462,205.149 394.012,205.772 392.233,206.12 L399.329,214.853 C400.33,216.082 401.026,216.334 402.573,216.482 L402.573,217.861 L396.151,217.861 L387.478,206.66 L386.011,206.735 L386.011,213.534 C386.011,214.912 386.218,215.594 386.484,215.831 C387.033,216.305 388.617,216.422 389.292,216.482 L389.292,217.861 L378.432,217.861 L378.432,216.482 C379.056,216.422 380.7,216.297 381.129,215.772" fill="#0B0B09"/>
    <path d="M427.833,199.076 L424.226,207.755 L431.478,207.755 L427.833,199.076 z M415.951,216.491 C416.796,216.401 417.573,216.259 418.13,215.528 C418.559,214.972 419.352,213.379 420.5,210.691 L428.188,192.601 L429.389,192.601 L438.559,213.46 C439.167,214.845 439.611,215.622 439.9,215.889 C440.381,216.305 441.249,216.415 441.855,216.497 L441.855,217.861 L431.849,217.861 L431.849,216.482 C432.566,216.422 433.464,216.431 434.138,216.149 C434.241,216.096 434.367,215.949 434.367,215.475 C434.367,214.919 433.938,213.756 433.73,213.26 L432.315,209.979 L423.278,209.979 C422.396,212.215 421.854,213.593 421.67,214.097 C421.5,214.609 421.434,214.986 421.434,215.223 C421.434,215.712 421.61,216.008 421.959,216.171 C422.419,216.378 423.404,216.438 423.915,216.482 L423.915,217.861 L415.951,217.861 L415.951,216.491" fill="#0B0B09"/>
    <path d="M459.418,215.831 C459.663,215.609 459.885,214.935 459.885,213.542 L459.885,197.341 C459.885,196.038 459.678,195.349 459.404,195.076 C458.9,194.556 457.353,194.467 456.686,194.414 L456.686,193.022 L467.73,193.022 L467.73,194.423 C466.989,194.467 465.509,194.527 464.885,195.016 C464.581,195.267 464.352,195.889 464.352,197.09 L464.352,214.586 C464.352,214.956 464.404,215.193 464.5,215.356 C464.546,215.438 464.685,215.549 465.123,215.601 L465.952,215.668 L467.642,215.682 C470.886,215.682 472.99,215.415 474.041,214.919 C475.537,214.223 476.642,212.09 477.271,210.801 L478.923,210.801 L476.937,217.861 L456.686,217.861 L456.686,216.491 C457.338,216.422 458.894,216.275 459.418,215.831" fill="#0B0B09"/>
    <path d="M496.692,215.875 C496.975,215.653 497.212,214.972 497.212,213.534 L497.212,197.341 C497.212,195.993 496.975,195.296 496.679,195.045 C496.1,194.52 494.39,194.46 493.671,194.423 L493.671,193.015 L505.189,193.015 L505.189,194.43 C504.478,194.46 502.774,194.52 502.19,195.045 C501.886,195.296 501.657,195.993 501.657,197.341 L501.657,213.534 C501.657,214.972 501.893,215.653 502.168,215.875 C502.759,216.319 504.493,216.422 505.189,216.482 L505.189,217.861 L493.671,217.861 L493.671,216.482 C494.367,216.422 496.108,216.319 496.692,215.875" fill="#0B0B09"/>
    <path d="M532.19,199.076 L528.583,207.755 L535.835,207.755 L532.19,199.076 z M520.309,216.491 C521.152,216.401 521.931,216.259 522.486,215.528 C522.916,214.972 523.709,213.379 524.849,210.691 L532.546,192.601 L533.746,192.601 L542.916,213.46 C543.516,214.845 543.967,215.622 544.256,215.889 C544.738,216.305 545.604,216.415 546.212,216.497 L546.212,217.861 L536.197,217.861 L536.197,216.482 C536.915,216.422 537.813,216.431 538.486,216.149 C538.597,216.096 538.723,215.949 538.723,215.475 C538.723,214.919 538.295,213.756 538.079,213.26 L536.671,209.979 L527.634,209.979 C526.745,212.215 526.212,213.593 526.027,214.097 C525.864,214.609 525.782,214.986 525.782,215.223 C525.782,215.712 525.968,216.008 526.315,216.171 C526.768,216.378 527.76,216.438 528.271,216.482 L528.271,217.861 L520.309,217.861 L520.309,216.491" fill="#0B0B09"/>
    <path d="M608.538,25.951 L608.538,43.836 L612.339,43.836 C617.851,43.836 622.22,39.47 622.22,34.34 C622.22,29.206 617.851,25.214 612.339,25.214 C612.339,25.214 610.554,25.003 608.538,25.951 M630.013,34.34 C630.065,39.47 625.834,43.936 619.745,45.74 L632.954,63.036 C634.287,64.554 635.523,66.358 637.331,66.358 L637.612,66.358 L637.612,67.596 L627.346,67.596 L611.479,46.688 L608.538,46.688 L608.538,61.611 C608.538,64.651 609.776,66.358 612.716,66.358 L613.005,66.358 L613.005,67.596 L596.658,67.596 L596.658,66.358 L597.139,66.358 C599.983,66.358 601.22,64.651 601.22,61.611 L601.22,28.259 C601.22,25.307 599.983,23.503 597.139,23.503 L596.658,23.503 L596.658,22.273 L608.538,22.273 C626.02,21.318 629.939,27.144 630.013,34.34" fill="#0B0B09"/>
    <path d="M250.721,67.406 L250.721,65.793 L248.158,65.793 C245.395,65.793 243.12,63.23 243.12,60.377 L243.12,14.766 L253.669,14.766 C258.039,14.766 260.699,17.995 260.987,24.362 L262.409,24.362 L261.84,10.677 C261.84,10.488 261.551,10.2 261.461,10.2 L215.187,10.2 C215.187,10.2 214.81,10.488 214.81,10.677 L214.231,24.362 L215.758,24.362 C216.031,17.995 218.698,14.766 223.069,14.766 L233.616,14.766 L233.616,60.377 C233.616,63.23 231.335,65.793 228.49,65.793 L225.824,65.793 L225.824,67.406 L250.721,67.406" fill="#0B0B09"/>
    <path d="M425.048,15.807 C425.048,13.055 423.426,11.818 421.24,11.818 L419.063,11.818 L419.063,10.103 L435.493,10.103 L435.493,11.818 L433.596,11.818 C431.13,11.818 429.7,13.055 429.7,15.807 L429.7,49.071 C429.7,59.803 421.434,68.07 407.84,68.07 C394.255,68.07 385.322,59.611 385.322,48.114 L385.322,17.137 C385.322,14.381 383.137,11.818 380.188,11.818 L379.522,11.818 L379.522,10.103 L400.618,10.103 L400.618,11.818 L399.862,11.818 C397.011,11.818 394.737,14.381 394.737,17.137 L394.737,48.4 C394.737,56.759 399.959,63.51 408.699,63.51 C417.063,63.51 425.048,58.474 425.048,49.071 L425.048,15.807" fill="#0B0B09"/>
    <path d="M297.854,45.837 L278.469,45.837 L278.469,61.421 C278.469,64.459 279.707,66.17 282.559,66.17 L282.847,66.17 L282.847,67.406 L266.587,67.406 L266.587,66.17 L266.875,66.17 C270.009,66.17 270.965,64.459 270.965,61.421 L270.965,28.061 C270.965,25.121 270.009,23.314 266.875,23.314 L266.587,23.314 L266.587,22.08 L282.847,22.08 L282.847,23.314 L282.559,23.314 C279.707,23.314 278.469,25.121 278.469,28.061 L278.469,42.603 L297.854,42.603 L297.854,28.061 C297.854,25.121 296.618,23.314 293.581,23.314 L293.299,23.314 L293.299,22.08 L309.736,22.08 L309.736,23.314 L309.254,23.314 C306.314,23.314 305.172,25.121 305.172,28.061 L305.172,61.421 C305.172,64.459 306.314,66.17 309.254,66.17 L309.736,66.17 L309.736,67.406 L293.299,67.406 L293.299,66.17 L293.581,66.17 C296.618,66.17 297.854,64.459 297.854,61.421 L297.854,45.837" fill="#0B0B09"/>
    <path d="M326.929,45.074 L326.929,61.8 C326.929,63.13 327.98,64.084 329.218,64.084 L340.618,64.084 C346.892,64.084 349.743,60.373 351.255,55.247 L352.597,55.247 L348.789,67.406 L315.056,67.406 L315.056,66.17 L315.344,66.17 C318.284,66.17 319.522,64.463 319.522,61.421 L319.522,28.07 C319.522,25.118 318.284,23.314 315.344,23.314 L315.056,23.314 L315.056,22.077 L347.744,22.077 L348.507,32.436 L347.359,32.436 C347.077,27.688 344.417,25.118 340.995,25.118 L326.929,25.118 L326.929,41.655 L340.047,41.655 C342.233,41.655 343.277,39.281 343.277,37.377 L343.277,37.095 L344.604,37.095 L344.604,49.633 L343.277,49.633 L343.277,49.356 C343.277,47.258 342.233,45.074 340.047,45.074 L326.929,45.074" fill="#0B0B09"/>
    <path d="M500.212,61.418 C500.212,64.463 501.45,66.17 504.39,66.17 L504.575,66.17 L504.575,67.403 L488.427,67.403 L488.427,66.17 L488.618,66.17 C491.752,66.17 492.99,64.463 492.99,61.418 L492.99,28.067 C492.99,25.118 491.752,23.31 488.618,23.31 L488.427,23.31 L488.427,22.08 L504.575,22.08 L504.575,23.31 L504.39,23.31 C501.45,23.31 500.212,25.118 500.212,28.067 L500.212,61.418" fill="#0B0B09"/>
    <path d="M532.806,67.122 L548.478,27.307 C549.716,24.743 550.857,23.318 552.664,23.318 L552.664,22.08 L542.204,22.08 L542.204,23.318 L542.872,23.318 C544.205,23.318 545.626,24.643 545.064,26.359 L533.85,54.296 L521.589,26.359 C520.924,24.643 522.441,23.318 523.583,23.318 L525.102,23.318 L525.102,22.08 L509.716,22.08 L509.716,23.318 C511.516,23.318 512.753,24.643 513.894,27.117 L531.19,67.122 C531.567,67.6 532.427,67.788 532.806,67.122" fill="#0B0B09"/>
    <path d="M569.575,45.074 L569.575,61.8 C569.575,63.13 570.62,64.084 571.856,64.084 L583.258,64.084 C589.435,64.084 592.286,60.373 593.901,55.247 L595.234,55.247 L591.339,67.406 L557.702,67.406 L557.702,66.17 L557.982,66.17 C560.931,66.17 562.065,64.463 562.065,61.421 L562.065,28.07 C562.065,25.118 560.931,23.314 557.982,23.314 L557.702,23.314 L557.702,22.077 L590.294,22.077 L591.153,32.436 L590.005,32.436 C589.724,27.688 586.969,25.118 583.642,25.118 L569.575,25.118 L569.575,41.655 L582.59,41.655 C584.88,41.655 585.924,39.281 585.924,37.377 L585.924,37.095 L587.249,37.095 L587.249,49.633 L585.924,49.633 L585.924,49.356 C585.924,47.258 584.88,45.074 582.59,45.074 L569.575,45.074" fill="#0B0B09"/>
    <path d="M642.368,52.011 L641.035,52.011 L641.035,67.403 L642.368,67.403 C642.932,65.407 644.65,64.459 646.265,65.407 C651.775,68.359 658.613,68.829 663.368,65.125 C667.933,61.796 669.925,55.244 667.073,50.106 C664.406,45.074 657.287,41.181 651.775,38.33 C645.405,34.718 645.22,28.636 650.065,25.503 C655.962,22.08 664.695,28.067 664.695,36.715 L665.835,36.715 L665.835,22.08 L664.695,22.08 C664.316,24.266 662.703,24.455 660.42,23.506 C654.146,20.655 649.021,20.747 644.65,24.743 C639.701,29.303 638.568,38.518 646.643,43.462 C651.495,46.496 658.042,49.918 660.42,53.152 C662.606,56.1 662.983,59.614 658.805,63.221 C652.725,68.548 642.368,62.085 642.368,52.011" fill="#0B0B09"/>
    <path d="M448.803,22.08 L437.212,22.08 L437.212,23.318 C439.107,23.318 440.346,23.506 441.293,24.643 C442.338,25.788 443.003,26.637 444.33,28.161 L444.33,62.751 C444.33,64.937 442.338,66.073 440.346,66.073 L439.863,66.073 L439.863,67.406 L452.501,67.406 L452.501,66.073 L452.219,66.073 C450.13,66.073 448.041,64.937 448.041,62.751 L448.041,32.722 L477.975,67.406 L478.923,67.406 L478.923,26.737 C478.923,24.455 481.019,23.318 483.012,23.318 L483.294,23.318 L483.294,22.08 L470.753,22.08 L470.753,23.318 L471.13,23.318 C473.122,23.318 475.123,24.455 475.123,26.737 L475.123,52.581 L448.803,22.08" fill="#0B0B09"/>
    <path d="M684.651,61.418 C684.651,64.463 685.888,66.17 688.829,66.17 L689.118,66.17 L689.118,67.403 L672.776,67.403 L672.776,66.17 L673.25,66.17 C676.191,66.17 677.331,64.463 677.331,61.418 L677.331,28.067 C677.331,25.118 676.191,23.31 673.25,23.31 L672.776,23.31 L672.776,22.08 L689.118,22.08 L689.118,23.31 L688.829,23.31 C685.888,23.31 684.651,25.118 684.651,28.067 L684.651,61.418" fill="#0B0B09"/>
    <path d="M754.311,48.114 L740.43,26.922 C739.006,24.266 737.481,23.31 735.688,23.31 L735.688,21.985 L751.74,21.985 L751.74,23.31 L750.696,23.31 C749.37,23.31 748.134,24.928 748.984,26.643 L760.393,44.03 L770.74,26.354 C771.51,25.118 770.556,23.31 769.317,23.31 L768.178,23.31 L768.178,21.985 L779.304,21.985 L779.304,23.31 C777.303,23.31 775.496,24.648 774.163,26.732 L761.813,47.829 L761.813,61.511 C761.813,64.651 763.043,66.17 766.089,66.17 L766.377,66.17 L766.377,67.406 L749.837,67.406 L749.837,66.17 L750.126,66.17 C753.162,66.17 754.311,64.463 754.311,61.323 L754.311,48.114" fill="#0B0B09"/>
    <path d="M717.154,61.703 C717.154,64.745 718.385,66.17 721.333,66.17 L721.518,66.17 L721.518,67.406 L705.37,67.406 L705.37,66.17 L705.562,66.17 C708.503,66.17 709.932,64.745 709.932,61.703 L709.932,25.499 L700.806,25.499 C697.384,25.499 695.392,27.873 695.109,32.819 L694.059,32.819 L694.444,22.366 C694.444,22.27 694.629,22.077 694.725,22.077 L732.162,22.077 C732.259,22.077 732.45,22.27 732.45,22.366 L732.917,32.819 L731.784,32.819 C731.503,27.873 729.695,25.499 726.177,25.499 L717.154,25.499 L717.154,61.703" fill="#0B0B09"/>
    <path d="M284.839,145.518 C284.839,148.555 286.069,150.17 288.929,150.17 L289.395,150.17 L289.395,151.312 L273.054,151.312 L273.054,150.17 L273.336,150.17 C276.38,150.17 277.514,148.369 277.514,145.414 L277.514,112.163 C277.514,109.122 276.38,107.218 273.336,107.218 L273.054,107.218 L273.054,105.989 L307.735,105.989 L308.491,116.446 L307.455,116.446 C307.167,111.785 304.41,109.122 301.084,109.122 L284.839,109.122 L284.839,125.562 L298.039,125.562 C300.329,125.562 301.276,123.475 301.276,121.283 L301.276,121 L302.515,121 L302.515,133.548 L301.276,133.548 L301.276,133.348 C301.276,131.163 300.329,128.985 298.039,128.985 L284.839,128.985 L284.839,145.518" fill="#0B0B09"/>
    <path d="M450.367,128.985 L450.367,145.712 C450.367,147.133 451.507,148.081 452.84,148.081 L464.151,148.081 C470.321,148.081 473.182,144.282 474.797,139.148 L476.026,139.148 L472.322,151.312 L438.589,151.312 L438.589,150.17 L438.871,150.17 C441.908,150.17 443.049,148.369 443.049,145.414 L443.049,112.067 C443.049,109.125 441.908,107.222 438.871,107.222 L438.589,107.222 L438.589,105.985 L471.181,105.985 L471.945,116.437 L470.893,116.437 C470.707,111.589 467.855,109.125 464.434,109.125 L450.367,109.125 L450.367,125.562 L463.574,125.562 C465.672,125.562 466.908,123.466 466.908,121.283 L466.908,121 L468.041,121 L468.041,133.541 L466.908,133.541 L466.908,133.356 C466.908,131.163 465.672,128.985 463.574,128.985 L450.367,128.985" fill="#0B0B09"/>
    <path d="M426.137,110.355 C426.137,108.363 424.812,107.226 423.003,107.226 L421.767,107.226 L421.767,105.989 L434.115,105.989 L434.115,107.226 L432.692,107.226 C430.886,107.226 429.752,108.363 429.752,110.355 L429.752,136.867 C429.752,145.423 423.196,151.785 412.456,151.785 C401.626,151.785 394.492,145.134 394.492,136.007 L394.492,111.593 C394.492,109.407 392.789,107.226 390.499,107.226 L390.411,107.226 L390.411,105.989 L406.277,105.989 L406.277,107.226 L405.995,107.226 C403.899,107.226 402.1,109.407 402.1,111.593 L402.1,136.305 C402.1,142.852 406.181,148.363 413.025,148.363 C419.774,148.363 426.137,144.275 426.137,136.867 L426.137,110.355" fill="#0B0B09"/>
    <path d="M490.277,128.985 L490.277,145.712 C490.277,147.133 491.331,148.081 492.561,148.081 L503.967,148.081 C510.233,148.081 512.99,144.282 514.604,139.148 L515.938,139.148 L512.041,151.312 L478.501,151.312 L478.501,150.17 L478.693,150.17 C481.633,150.17 482.871,148.369 482.871,145.414 L482.871,112.067 C482.871,109.125 481.633,107.222 478.693,107.222 L478.501,107.222 L478.501,105.985 L510.996,105.985 L511.752,116.437 L510.708,116.437 C510.428,111.589 507.671,109.125 504.346,109.125 L490.277,109.125 L490.277,125.562 L503.294,125.562 C505.582,125.562 506.812,123.466 506.812,121.283 L506.812,121 L507.953,121 L507.953,133.541 L506.812,133.541 L506.812,133.356 C506.812,131.163 505.582,128.985 503.294,128.985 L490.277,128.985" fill="#0B0B09"/>
    <path d="M612.006,145.23 C612.006,146.66 613.146,148.081 614.384,148.081 L624.931,148.081 C631.109,148.081 633.961,144.185 635.576,138.955 L636.902,138.955 L633.198,151.312 L600.228,151.312 L600.228,150.081 L600.604,150.081 C603.456,150.081 604.687,148.275 604.687,145.23 L604.687,112.159 C604.687,109.125 603.456,107.222 600.604,107.222 L600.228,107.222 L600.228,105.985 L616.568,105.985 L616.568,107.222 L616.288,107.222 C613.146,107.222 612.006,109.125 612.006,112.159 L612.006,145.23" fill="#0B0B09"/>
    <path d="M567.819,136.016 L566.494,136.016 L566.494,151.312 L567.819,151.312 C568.302,149.222 570.005,148.369 571.715,149.32 C577.227,152.171 584.071,152.829 588.917,149.134 C593.472,145.712 595.473,139.244 592.628,134.112 C589.961,128.985 582.643,125.178 577.323,122.237 C570.864,118.629 570.575,112.444 575.613,109.504 C581.316,105.985 590.153,111.878 590.153,120.718 L591.479,120.718 L591.479,105.893 L590.153,105.893 C589.672,108.171 588.161,108.456 585.975,107.507 C579.598,104.467 574.375,104.748 570.005,108.645 C565.161,113.203 564.116,122.519 572.19,127.466 C577.034,130.496 583.591,133.83 585.975,137.149 C587.969,139.911 588.538,143.519 584.353,147.222 C578.271,152.452 567.819,145.993 567.819,136.016" fill="#0B0B09"/>
    <path d="M527.338,105.985 L515.754,105.985 L515.754,107.222 C517.649,107.222 518.982,107.512 519.738,108.548 C520.879,109.786 521.634,110.545 522.975,112.159 L522.975,146.66 C522.975,148.934 520.879,150.081 518.886,150.081 L518.502,150.081 L518.502,151.312 L531.049,151.312 L531.049,150.081 L530.761,150.081 C528.665,150.081 526.671,148.934 526.671,146.66 L526.671,116.63 L556.517,151.312 L557.464,151.312 L557.464,110.644 C557.464,108.459 559.456,107.222 561.45,107.222 L561.834,107.222 L561.834,105.985 L549.383,105.985 L549.383,107.222 L549.672,107.222 C551.664,107.222 553.85,108.459 553.85,110.644 L553.85,136.585 L527.338,105.985" fill="#0B0B09"/>
    <path d="M695.539,105.985 L683.946,105.985 L683.946,107.222 C685.746,107.222 687.08,107.512 687.836,108.548 C688.977,109.786 689.739,110.545 691.065,112.159 L691.065,146.66 C691.065,148.934 688.977,150.081 686.984,150.081 L686.694,150.081 L686.694,151.312 L699.146,151.312 L699.146,150.081 L698.955,150.081 C696.769,150.081 694.776,148.934 694.776,146.66 L694.776,116.63 L724.605,151.312 L725.568,151.312 L725.568,110.644 C725.568,108.459 727.563,107.222 729.555,107.222 L730.028,107.222 L730.028,105.985 L717.77,105.985 L717.77,107.222 C719.762,107.222 721.954,108.459 721.954,110.644 L721.954,136.585 L695.539,105.985" fill="#0B0B09"/>
    <g>
      <path d="M677.933,146.016 C678.977,148.482 680.302,149.912 682.11,149.912 L682.591,149.912 L682.591,151.142 L666.813,151.142 L666.813,149.912 L668.043,149.912 C669.473,149.912 670.902,148.482 670.235,146.77 L665.865,136.703 L649.806,136.703 L645.523,146.77 C644.864,148.482 646.473,149.912 648.087,149.912 L648.666,149.912 L648.666,151.142 L636.599,151.142 L636.599,149.912 L637.449,149.912 C639.25,149.912 640.872,148.482 642.102,145.823 L658.829,105.341 C659.836,104.21 660.376,105.499 660.376,105.499 L677.933,146.016 z M651.044,133.378 L664.347,133.378 L657.717,118.036 L651.044,133.378" fill="#0B0B09"/>
      <path d="M779.273,128.696 C779.273,141.43 769.11,151.409 755.895,151.409 L734.903,151.409 L734.903,150.17 L735.28,150.17 C738.222,150.17 739.37,148.363 739.37,145.326 L739.37,112.259 C739.37,109.219 738.222,107.315 735.28,107.315 L734.903,107.315 L734.903,106.078 L752.118,106.078 C781.103,105.175 779.273,128.696 779.273,128.696 M747.629,109.31 L747.629,147.896 C749.436,148.363 750.393,148.467 752.096,148.467 C765.777,148.467 772.341,140.386 772.341,128.601 C772.429,128.103 773.147,108.027 751.977,108.551 C751.977,108.551 749.267,108.149 747.629,109.31" fill="#0B0B09"/>
    </g>
    <path d="M241.41,92.716 C258.061,92.948 268.587,105.73 268.587,121.889 C268.587,137.861 257.942,150.963 241.41,150.963 C224.876,150.963 214.231,137.861 214.231,121.889 C215.661,91.411 241.41,92.716 241.41,92.716 M224.402,121.889 C224.447,137.14 231.461,147.711 241.41,147.541 C250.721,147.541 258.417,138.185 258.417,121.459 C258.061,99.489 246.78,96.515 241.41,96.226 C228.839,96.87 224.358,109.47 224.402,121.889" fill="#0B0B09"/>
    <path d="M359.477,93.655 C359.477,93.655 386.537,93.704 386.989,123.238 C386.989,136.349 380.047,146.97 368.648,150.674 C371.123,156.283 377.862,162.645 387.181,163.215 L387.181,164.734 C374.254,164.734 362.855,160.556 354.203,151.622 C340.715,149.06 332.343,137.082 332.343,122.829 C332.343,106.747 342.892,93.777 359.477,93.655 M359.477,97.17 C359.477,97.17 342.921,96.389 342.707,122.829 C342.707,139.645 350.219,148.482 359.714,148.482 C368.93,148.482 376.632,139.645 376.632,122.829 C376.632,106.015 368.692,97.17 359.477,97.17" fill="#0B0B09"/>
    <path d="M23.141,170.8 L23.141,171.052 L24.778,172.187 L24.778,170.8 L26.377,170.8 L26.377,173.489 L32.971,177.934 L32.971,176.208 L27.941,172.852 L27.941,170.8 L29.875,170.8 L32.571,172.557 L32.571,170.942 L32.356,170.8 L34.793,170.8 L34.793,178.993 L36.459,180.053 L36.459,171.689 L40.682,182.571 L42.4,183.579 L42.4,172.141 L40.904,171.283 L40.904,179.63 L37.422,170.8 L43.86,170.8 C56.711,177.66 70.127,182.711 81.482,185.104 L65.052,195.17 C48.705,189.741 32.852,180.549 20.119,170.8 L23.141,170.8 z M151.053,170.8 L149.045,171.955 L149.045,183.238 L153.593,180.609 C156.216,179.223 157.269,177.193 157.269,175.37 C157.269,173.874 156.579,173.194 155.378,173.571 C156.165,172.698 156.646,171.742 156.764,170.793 L158.216,170.8 C158.091,171.726 158.098,172.638 158.254,173.46 C158.728,176.171 160.691,176.926 163.238,174.439 C164.327,173.385 165.171,172.118 165.735,170.816 L167.787,170.8 L167.787,171.089 L168.157,170.8 L171.238,170.8 C158.521,180.549 142.667,189.741 126.275,195.17 L109.838,185.104 C121.193,182.711 134.609,177.66 147.467,170.807 L151.053,170.8 z M154.86,170.8 C155.008,170.986 155.083,171.268 155.083,171.689 C155.083,172.667 154.431,173.608 153.624,174.097 L150.794,175.682 L150.794,172.594 L153.624,170.942 C153.719,170.882 153.801,170.845 153.875,170.807 L154.86,170.8 z M164.55,170.8 C164.224,171.622 163.728,172.431 163.016,173.118 C161.127,174.89 160.039,173.83 159.75,171.955 C159.675,171.594 159.638,171.208 159.625,170.8 L164.55,170.8 z M137.652,189 L139.653,188.068 L140.528,184.637 L144.675,182.72 L145.912,185.135 L147.771,184.26 L143.113,175 L141.216,175.867 L137.652,189 z M128.771,192.422 L136.446,189.297 L136.446,187.571 L130.697,189.904 L130.697,180.349 L128.771,181.142 L128.771,192.422 z M150.794,177.112 L153.847,175.37 C154.867,174.778 155.52,175.044 155.52,176.171 C155.52,177.268 154.867,178.275 153.847,178.837 L150.794,180.609 L150.794,177.112 z M142.417,177.297 L144.091,181.438 L140.927,182.868 L142.417,177.297 z M56.083,190.135 L58.119,190.926 L59.179,188.141 L63.252,189.793 L64.274,193.141 L66.274,193.978 L62.156,181.03 L60.305,180.305 L56.083,190.135 z M44.141,174.778 L47.052,176.245 L47.052,185.69 L48.941,186.779 L48.941,177.334 L51.971,178.808 L51.971,177.075 L44.141,173.118 L44.141,174.778 z M53.534,188.897 L55.422,189.756 L55.422,178.69 L53.534,177.785 L53.534,188.897 z M61.208,182.72 L62.742,188.068 L59.645,186.779 L61.208,182.72 z M84.475,215.957 L86.579,216.068 L87.675,213.134 L92.26,213.467 L93.423,216.594 L95.541,216.748 L91.06,204.926 L88.949,204.779 L84.475,215.957 z M106.601,208.201 C106.312,205.712 104.201,204.439 101.653,204.549 C98.194,204.779 96.193,207.594 96.193,210.949 C96.268,214.186 98.379,216.824 101.838,216.594 C104.631,216.438 106.572,214.446 106.675,211.667 L104.712,211.817 C104.564,213.43 103.58,214.867 101.757,214.979 C99.289,215.135 98.231,212.987 98.231,210.794 C98.194,208.571 99.179,206.349 101.653,206.201 C103.357,206.096 104.201,207.037 104.564,208.313 L106.601,208.201 z M66.111,197.801 C76.06,200.971 86.304,202.78 95.66,202.78 C105.067,202.78 115.268,200.971 125.215,197.801 L125.215,212.911 C117.313,216.535 106.964,218.941 95.66,218.941 C84.408,218.941 74.052,216.535 66.111,212.911 L66.111,197.801 z M90.001,206.689 L91.756,211.667 L88.178,211.431 L90.001,206.689" fill="#A78C48"/>
    <path d="M20.119,170.8 C13.408,165.675 7.555,160.386 2.955,155.414 L2.955,137.601 C12.008,150.423 27.467,162.082 43.86,170.807 L37.416,170.8 L36.645,168.83 L34.786,167.742 L34.786,170.8 L32.364,170.8 L27.949,167.927 L27.949,164.956 L32.889,168.267 L32.889,166.526 L26.377,162.282 L26.377,170.8 L24.778,170.8 L24.778,161.119 L23.134,159.985 L23.134,170.8 L20.119,170.8 z M27.949,170.8 L27.949,169.542 L29.875,170.8 L27.949,170.8 z M147.467,170.8 C163.86,162.082 179.312,150.423 188.364,137.601 L188.364,155.414 C183.779,160.386 177.941,165.675 171.238,170.8 L168.157,170.8 L169.394,169.844 L169.394,165.364 L171.758,163.482 C173.21,162.394 173.542,162.955 173.542,164.986 C173.542,165.474 173.542,166.126 173.794,166.415 L175.506,165.104 C175.18,164.912 175.03,163.859 175.03,162.578 C175.03,160.853 174.23,161.038 173.69,161.386 C173.979,161 175.18,159.451 175.18,157.422 C175.18,155.54 174.157,155.283 172.157,156.823 L167.787,160.289 L167.787,170.8 L165.742,170.8 C166.513,169.031 166.78,167.149 166.482,165.63 C165.971,162.882 164.001,162.096 161.387,164.534 C159.579,166.275 158.527,168.608 158.223,170.779 L156.764,170.8 C156.786,170.644 156.793,170.49 156.793,170.333 C156.793,168.451 155.638,168.231 153.853,169.207 L151.061,170.8 L147.467,170.8 z M153.875,170.8 C154.32,170.6 154.66,170.586 154.867,170.816 L153.875,170.8 z M159.625,170.8 C159.616,169.201 160.202,167.341 161.712,165.935 C163.49,164.163 164.587,165.223 164.949,167.023 C165.158,168.097 165.061,169.483 164.557,170.793 L159.625,170.8 z M176.742,163.859 L182.571,158.511 L182.571,156.823 L178.164,160.889 L178.164,157.726 L182.172,154.075 L182.172,152.526 L178.164,156.186 L178.164,153.364 L182.454,149.333 L182.454,147.711 L176.742,152.941 L176.742,163.859 z M169.394,160.853 L171.972,158.852 C172.816,158.215 173.542,157.836 173.542,159.267 C173.542,160.393 173.001,161.415 172.009,162.282 L169.394,164.244 L169.394,160.853 z M7.007,154.185 C7.045,156.97 8.466,159.267 10.215,160.512 C11.711,161.563 13.2,161.638 13.2,159.118 C13.2,157.949 12.689,156.296 11.711,155.207 C11.311,154.711 9.638,152.911 9.526,152.719 C9.015,152.118 8.645,151.409 8.645,150.609 C8.645,149.52 9.377,149.741 10.038,150.126 C10.949,150.8 11.564,151.816 11.637,153.364 L12.948,154.267 C12.948,151.933 11.637,149.741 10.038,148.578 C8.645,147.594 7.304,147.711 7.304,149.897 C7.304,151.104 7.711,152.57 8.985,153.962 L11.237,156.519 C11.564,156.933 11.86,157.497 11.86,158.37 C11.86,159.267 11.377,159.793 10.259,158.897 C9.192,158.178 8.319,156.898 8.319,155.134 L7.007,154.185 z M21.467,161.675 C21.282,159.194 19.897,156.823 18.044,155.653 C15.607,154.113 14.185,155.882 14.185,159.081 C14.185,162.319 15.607,165.935 18.044,167.475 C20.008,168.718 21.393,167.742 21.467,165.104 L20.082,164.201 C20.008,165.779 19.282,166.682 18.044,165.816 C16.334,164.727 15.563,162.127 15.563,159.985 C15.563,157.836 16.334,156.149 18.044,157.282 C19.208,158.022 19.793,159.348 20.044,160.807 L21.467,161.675" fill="#A78C48"/>
    <path d="M149.045,183.244 L153.593,180.616 C156.216,179.216 157.269,177.178 157.269,175.377 C157.269,173.868 156.579,173.194 155.378,173.571 C156.291,172.557 156.793,171.431 156.793,170.333 C156.793,168.451 155.638,168.231 153.847,169.207 L149.045,171.949 L149.045,183.244 z M137.652,189 L139.653,188.06 L140.528,184.637 L144.675,182.72 L145.912,185.126 L147.771,184.26 L143.113,175 L141.216,175.875 L137.652,189 z M161.387,164.542 C158.801,167.015 157.743,170.749 158.254,173.46 C158.719,176.171 160.698,176.919 163.238,174.439 C165.823,171.949 166.994,168.26 166.482,165.63 C165.964,162.882 164.001,162.089 161.387,164.542 z M167.787,171.089 L169.387,169.844 L169.387,165.364 L171.758,163.489 C173.21,162.394 173.534,162.955 173.534,164.993 C173.534,165.474 173.534,166.112 173.794,166.422 L175.513,165.104 C175.18,164.912 175.03,163.859 175.03,162.585 C175.03,160.853 174.239,161.03 173.69,161.371 C173.979,161 175.18,159.46 175.18,157.422 C175.18,155.54 174.157,155.283 172.157,156.823 L167.787,160.283 L167.787,171.089 z M128.771,192.431 L136.453,189.304 L136.453,187.578 L130.697,189.904 L130.697,180.349 L128.771,181.133 L128.771,192.431 z M176.749,163.859 L182.571,158.511 L182.571,156.823 L178.164,160.889 L178.164,157.726 L182.172,154.067 L182.172,152.526 L178.164,156.177 L178.164,153.357 L182.454,149.326 L182.454,147.711 L176.749,152.949 L176.749,163.859 z M188.364,155.423 C175.068,169.816 151.306,186.882 126.275,195.163 L109.838,185.111 C135.675,179.653 172.223,160.467 188.364,137.594 L188.364,155.423 z M150.786,172.594 L153.631,170.935 C154.543,170.409 155.09,170.556 155.09,171.698 C155.09,172.675 154.431,173.608 153.631,174.097 L150.786,175.682 L150.786,172.594 z M150.786,177.105 L153.847,175.377 C154.867,174.778 155.52,175.038 155.52,176.171 C155.52,177.259 154.867,178.275 153.847,178.837 L150.786,180.616 L150.786,177.105 z M142.423,177.297 L144.091,181.438 L140.927,182.868 L142.423,177.297 z M161.712,165.926 C163.499,164.157 164.587,165.216 164.949,167.015 C165.275,168.793 164.845,171.349 163.023,173.118 C161.127,174.882 160.039,173.837 159.75,171.949 C159.387,170.186 159.816,167.698 161.712,165.926 z M169.387,160.853 L171.972,158.852 C172.816,158.215 173.534,157.845 173.534,159.267 C173.534,160.393 173.001,161.415 172.009,162.275 L169.387,164.23 L169.387,160.853 z M56.083,190.126 L58.119,190.919 L59.179,188.141 L63.245,189.786 L64.274,193.141 L66.274,193.972 L62.156,181.023 L60.305,180.305 L56.083,190.126 z M7.007,154.185 C7.052,156.97 8.466,159.267 10.223,160.512 C11.704,161.563 13.2,161.638 13.2,159.118 C13.2,157.949 12.689,156.289 11.704,155.201 C11.311,154.718 9.638,152.911 9.519,152.719 C9.015,152.112 8.651,151.4 8.651,150.616 C8.651,149.52 9.377,149.749 10.038,150.119 C10.949,150.8 11.564,151.816 11.637,153.357 L12.948,154.26 C12.948,151.933 11.637,149.749 10.038,148.578 C8.651,147.601 7.304,147.711 7.304,149.904 C7.304,151.096 7.711,152.57 8.978,153.962 L11.237,156.526 C11.564,156.942 11.86,157.504 11.86,158.364 C11.86,159.267 11.377,159.8 10.252,158.897 C9.192,158.171 8.326,156.898 8.326,155.126 L7.007,154.185 z M21.459,161.682 C21.282,159.194 19.897,156.823 18.037,155.653 C15.607,154.113 14.185,155.882 14.185,159.075 C14.185,162.319 15.607,165.926 18.037,167.475 C20.015,168.718 21.393,167.742 21.459,165.104 L20.082,164.201 C20.015,165.785 19.282,166.689 18.037,165.816 C16.334,164.727 15.563,162.127 15.563,159.978 C15.563,157.845 16.334,156.142 18.037,157.268 C19.208,158.022 19.793,159.341 20.044,160.816 L21.459,161.682 z M23.134,171.045 L24.778,172.178 L24.778,161.112 L23.134,159.978 L23.134,171.045 z M26.377,173.497 L32.971,177.934 L32.971,176.201 L27.949,172.852 L27.949,169.549 L32.563,172.557 L32.563,170.935 L27.949,167.934 L27.949,164.948 L32.889,168.26 L32.889,166.535 L26.377,162.275 L26.377,173.497 z M34.786,178.985 L36.467,180.038 L36.467,171.698 L40.682,182.571 L42.394,183.586 L42.394,172.141 L40.904,171.275 L40.904,179.637 L36.645,168.83 L34.786,167.742 L34.786,178.985 z M44.141,174.778 L47.052,176.245 L47.052,185.697 L48.948,186.785 L48.948,177.334 L51.971,178.808 L51.971,177.075 L44.141,173.118 L44.141,174.778 z M53.534,188.881 L55.43,189.756 L55.43,178.69 L53.534,177.785 L53.534,188.881 z M2.955,146.675 L2.955,137.594 C19.104,160.467 55.645,179.653 81.489,185.111 L65.052,195.163 C40.089,186.882 16.296,169.816 2.955,155.423 L2.955,146.675 z M61.216,182.72 L62.742,188.06 L59.645,186.785 L61.216,182.72 z M84.475,215.949 L86.579,216.068 L87.675,213.134 L92.26,213.476 L93.423,216.601 L95.541,216.742 L91.06,204.926 L88.949,204.772 L84.475,215.949 z M106.607,208.201 C106.312,205.712 104.201,204.439 101.653,204.549 C98.194,204.772 96.193,207.601 96.193,210.942 C96.268,214.186 98.379,216.817 101.83,216.601 C104.638,216.447 106.563,214.452 106.675,211.66 L104.712,211.808 C104.564,213.43 103.58,214.86 101.757,214.972 C99.282,215.119 98.231,212.978 98.231,210.794 C98.194,208.579 99.179,206.356 101.653,206.201 C103.364,206.089 104.201,207.031 104.564,208.313 L106.607,208.201 z M66.105,197.808 C76.06,200.971 86.296,202.78 95.66,202.78 C105.067,202.78 115.268,200.971 125.215,197.808 L125.215,212.918 C117.304,216.526 106.964,218.941 95.66,218.941 C84.4,218.941 74.052,216.526 66.105,212.918 L66.105,197.808 z M90.001,206.689 L91.756,211.66 L88.186,211.438 L90.001,206.689 z" fill-opacity="0" stroke="#A78C48" stroke-width="0.05"/>
    <path d="M168.401,154.401 L168.401,139.104 L153.712,161.223 C152.467,163.104 151.661,164.653 151.143,166.275 C157.194,162.764 162.987,158.815 168.401,154.401" fill="#233E72"/>
    <path d="M168.401,154.401 L168.401,139.104 L153.712,161.223 C152.467,163.104 151.661,164.653 151.143,166.275 C157.194,162.764 162.987,158.815 168.401,154.401 z" fill-opacity="0" stroke="#233E72" stroke-width="0.117"/>
    <path d="M108.267,199.727 C113.668,198.941 117.2,197.883 123.179,195.993 L108.267,186.764 L108.267,199.727" fill="#233E72"/>
    <path d="M108.267,199.727 C113.668,198.941 117.2,197.883 123.179,195.993 L108.267,186.764 L108.267,199.727 z" fill-opacity="0" stroke="#233E72" stroke-width="0.117"/>
    <path d="M83.126,186.764 L68.186,195.993 C74.164,197.874 77.697,198.934 83.126,199.727 L83.126,186.764" fill="#233E72"/>
    <path d="M83.126,186.764 L68.186,195.993 C74.164,197.874 77.697,198.934 83.126,199.727 L83.126,186.764 z" fill-opacity="0" stroke="#233E72" stroke-width="0.117"/>
    <path d="M168.431,175.616 L166.143,177.238 C161.187,180.675 155.898,183.978 150.402,186.986 L150.402,193.253 C150.402,193.253 160.343,186.882 164.905,183.683 C167.63,181.719 168.254,179.948 168.401,177.238 L168.431,175.616" fill="#233E72"/>
    <path d="M168.431,175.616 L166.143,177.238 C161.187,180.675 155.898,183.978 150.402,186.986 L150.402,193.253 C150.402,193.253 160.343,186.882 164.905,183.683 C167.63,181.719 168.254,179.948 168.401,177.238 L168.431,175.616 z" fill-opacity="0" stroke="#233E72" stroke-width="0.117"/>
    <path d="M20.837,152.645 L20.852,135.83 L4.926,135.86 C9.615,142.045 14.978,147.622 20.837,152.645" fill="#233E72"/>
    <path d="M20.837,152.645 L20.852,135.83 L4.926,135.86 C9.615,142.045 14.978,147.622 20.837,152.645 z" fill-opacity="0" stroke="#233E72" stroke-width="0.117"/>
    <path d="M40.223,166.289 C39.711,164.667 38.912,163.112 37.682,161.223 L22.956,139.104 L22.956,154.408 C28.378,158.824 34.17,162.779 40.223,166.289" fill="#233E72"/>
    <path d="M40.223,166.289 C39.711,164.667 38.912,163.112 37.682,161.223 L22.956,139.104 L22.956,154.408 C28.378,158.824 34.17,162.779 40.223,166.289 z" fill-opacity="0" stroke="#233E72" stroke-width="0.117"/>
    <path d="M22.926,175.593 L22.993,177.238 C23.074,179.948 23.733,181.711 26.459,183.674 C30.978,186.882 40.963,193.244 40.963,193.244 L40.963,186.971 C35.482,183.963 30.201,180.66 25.252,177.238 L22.926,175.593" fill="#233E72"/>
    <path d="M22.926,175.593 L22.993,177.238 C23.074,179.948 23.733,181.711 26.459,183.674 C30.978,186.882 40.963,193.244 40.963,193.244 L40.963,186.971 C35.482,183.963 30.201,180.66 25.252,177.238 L22.926,175.593 z" fill-opacity="0" stroke="#233E72" stroke-width="0.117"/>
    <path d="M170.476,135.83 L170.476,152.667 C176.35,147.645 181.736,142.052 186.438,135.86 L170.476,135.83" fill="#233E72"/>
    <path d="M170.476,135.83 L170.476,152.667 C176.35,147.645 181.736,142.052 186.438,135.86 L170.476,135.83 z" fill-opacity="0" stroke="#233E72" stroke-width="0.117"/>
    <path d="M112.253,59.674 C114.126,44.259 119.948,34.125 132.141,26.859 L59.223,26.859 C71.364,34.118 77.193,44.237 79.386,59.611 C81.719,59.181 84.364,58.551 87.571,58.551 C91.579,58.551 94.386,59.906 95.66,62.425 C96.645,59.906 99.741,58.551 103.787,58.551 C107.134,58.551 109.845,59.241 112.253,59.674" fill="#233E72"/>
    <path d="M112.253,59.674 C114.126,44.259 119.948,34.125 132.141,26.859 L59.223,26.859 C71.364,34.118 77.193,44.237 79.386,59.611 C81.719,59.181 84.364,58.551 87.571,58.551 C91.579,58.551 94.386,59.906 95.66,62.425 C96.645,59.906 99.741,58.551 103.787,58.551 C107.134,58.551 109.845,59.241 112.253,59.674 z" fill-opacity="0" stroke="#233E72" stroke-width="0.079"/>
    <path d="M122.178,96.982 C132.919,100.066 140.535,106.051 146.313,116.345 L146.313,40.955 C140.187,51.891 131.993,57.848 120.49,60.715 L122.408,62.011 L122.408,68.24 L132.068,68.233 C134.578,68.233 136.215,68.726 136.215,70.833 C136.215,73.322 134.942,74.112 132.617,74.112 L122.408,74.112 L122.408,84.206 L132.068,84.206 C134.578,84.206 136.215,84.663 136.215,86.807 C136.215,89.259 134.942,90.047 132.617,90.047 L122.408,90.047 L122.408,96.982 L122.178,96.982" fill="#233E72"/>
    <path d="M122.178,96.982 C132.919,100.066 140.535,106.051 146.313,116.345 L146.313,40.955 C140.187,51.891 131.993,57.848 120.49,60.715 L122.408,62.011 L122.408,68.24 L132.068,68.233 C134.578,68.233 136.215,68.726 136.215,70.833 C136.215,73.322 134.942,74.112 132.617,74.112 L122.408,74.112 L122.408,84.206 L132.068,84.206 C134.578,84.206 136.215,84.663 136.215,86.807 C136.215,89.259 134.942,90.047 132.617,90.047 L122.408,90.047 L122.408,96.982 L122.178,96.982 z" fill-opacity="0" stroke="#233E72" stroke-width="0.079"/>
    <path d="M80.978,96.982 L79.571,97.155 C77.534,113.341 71.726,123.985 59.223,131.49 L132.141,131.49 C119.609,123.993 113.8,113.356 112.075,97.186 L110.424,96.982 L103.637,96.982 C100.252,96.982 100.653,98.682 95.66,98.682 C90.668,98.682 91.111,96.982 87.786,96.982 L80.978,96.982" fill="#233E72"/>
    <path d="M80.978,96.982 L79.571,97.155 C77.534,113.341 71.726,123.985 59.223,131.49 L132.141,131.49 C119.609,123.993 113.8,113.356 112.075,97.186 L110.424,96.982 L103.637,96.982 C100.252,96.982 100.653,98.682 95.66,98.682 C90.668,98.682 91.111,96.982 87.786,96.982 L80.978,96.982 z" fill-opacity="0" stroke="#233E72" stroke-width="0.079"/>
    <path d="M60.275,88.011 L56.964,88.011 C56.964,89.144 57.512,90.007 58.497,90.007 C59.475,90.007 60.275,89.144 60.275,88.126 L60.275,88.011 z M69.186,90.044 L61.482,90.044 C60.971,91.063 59.734,91.744 58.497,91.744 C56.704,91.744 55.142,90.197 55.142,88.315 C53.978,88.011 53.534,87.518 53.534,86.919 C53.534,86.314 53.978,85.83 54.556,85.83 C55.142,83.682 56.704,82.133 58.497,82.133 C59.837,82.133 61.008,82.999 61.482,84.203 L69.134,84.203 L69.045,74.112 L61.482,74.112 C60.971,75.047 59.734,75.771 58.497,75.771 C56.704,75.771 55.142,74.259 55.142,72.411 C53.978,72.077 53.534,71.543 53.534,71.022 C53.534,70.341 53.978,69.852 54.556,69.852 C55.142,67.744 56.704,66.195 58.497,66.195 C59.837,66.195 61.008,67.026 61.482,68.266 L69.001,68.266 L68.948,62.019 L71.001,60.599 C59.201,57.697 51.164,51.747 45.082,40.955 L45.082,116.345 C50.89,106.06 58.497,100.066 69.238,96.978 L69.186,90.044 z M60.275,69.852 C60.275,68.873 59.475,68.004 58.497,68.004 C57.512,68.004 56.964,68.873 56.964,69.852 L60.275,69.852 z M60.275,72.189 L56.964,72.077 C56.964,73.208 57.512,73.996 58.497,73.996 C59.475,73.996 60.275,73.208 60.275,72.189 M56.964,85.83 L60.275,85.83 C60.275,84.774 59.475,83.984 58.497,83.984 C57.512,83.984 56.964,84.774 56.964,85.83" fill="#233E72"/>
    <path d="M60.275,88.011 L56.964,88.011 C56.964,89.144 57.512,90.007 58.497,90.007 C59.475,90.007 60.275,89.144 60.275,88.126 L60.275,88.011 z M69.186,90.044 L61.482,90.044 C60.971,91.063 59.734,91.744 58.497,91.744 C56.704,91.744 55.142,90.197 55.142,88.315 C53.978,88.011 53.534,87.518 53.534,86.919 C53.534,86.314 53.978,85.83 54.556,85.83 C55.142,83.682 56.704,82.133 58.497,82.133 C59.837,82.133 61.008,82.999 61.482,84.203 L69.134,84.203 L69.045,74.112 L61.482,74.112 C60.971,75.047 59.734,75.771 58.497,75.771 C56.704,75.771 55.142,74.259 55.142,72.411 C53.978,72.077 53.534,71.543 53.534,71.022 C53.534,70.341 53.978,69.852 54.556,69.852 C55.142,67.744 56.704,66.195 58.497,66.195 C59.837,66.195 61.008,67.026 61.482,68.266 L69.001,68.266 L68.948,62.019 L71.001,60.599 C59.201,57.697 51.164,51.747 45.082,40.955 L45.082,116.345 C50.89,106.06 58.497,100.066 69.238,96.978 L69.186,90.044 z M60.275,69.852 C60.275,68.873 59.475,68.004 58.497,68.004 C57.512,68.004 56.964,68.873 56.964,69.852 L60.275,69.852 z M60.275,72.189 L56.964,72.077 C56.964,73.208 57.512,73.996 58.497,73.996 C59.475,73.996 60.275,73.208 60.275,72.189 z M56.964,85.83 L60.275,85.83 C60.275,84.774 59.475,83.984 58.497,83.984 C57.512,83.984 56.964,84.774 56.964,85.83 z" fill-opacity="0" stroke="#233E72" stroke-width="0.079"/>
    <path d="M77.786,97.407 C59.919,100.148 49.171,107.914 43.045,126.823 L43.045,30.514 C49.141,49.332 59.897,56.919 77.623,59.762 C74.482,41.778 67.082,30.977 49.127,24.673 L142.194,24.673 C124.29,30.977 116.852,41.762 114.082,59.726 C131.667,56.859 142.319,49.259 148.395,30.514 L148.395,126.823 C142.297,108.03 131.608,100.238 113.928,97.456 C116.572,116.016 123.919,127.252 142.194,133.608 L49.089,133.608 C67.422,127.252 74.764,116 77.786,97.407 M24.023,92.57 C24.023,128.824 55.83,163.564 95.66,174.941 C135.563,163.564 167.379,128.824 167.379,92.57 L167.379,5.043 L24.023,5.043 L24.023,92.57" fill="#A78C48"/>
    <path d="M77.786,97.407 C59.919,100.148 49.171,107.914 43.045,126.823 L43.045,30.514 C49.141,49.332 59.897,56.919 77.623,59.762 C74.482,41.778 67.082,30.977 49.127,24.673 L142.194,24.673 C124.29,30.977 116.852,41.762 114.082,59.726 C131.667,56.859 142.319,49.259 148.395,30.514 L148.395,126.823 C142.297,108.03 131.608,100.238 113.928,97.456 C116.572,116.016 123.919,127.252 142.194,133.608 L49.089,133.608 C67.422,127.252 74.764,116 77.786,97.407 z M24.023,92.57 C24.023,128.824 55.83,163.564 95.66,174.941 C135.563,163.564 167.379,128.824 167.379,92.57 L167.379,5.043 L24.023,5.043 L24.023,92.57 z" fill-opacity="0" stroke="#A78C48" stroke-width="0.079"/>
    <path d="M64.149,192.748 L64.274,193.141 L66.274,193.972 L65.89,192.748 L64.149,192.748 z M90.008,206.698 L91.749,211.667 L88.186,211.438 L90.008,206.698 z M84.467,215.949 L86.579,216.068 L87.667,213.134 L92.26,213.476 L93.43,216.601 L95.534,216.748 L91.06,204.926 L88.949,204.779 L84.467,215.949 z M106.601,208.201 C106.305,205.719 104.201,204.439 101.653,204.549 C98.194,204.779 96.187,207.601 96.187,210.942 C96.268,214.186 98.371,216.817 101.83,216.601 C104.638,216.447 106.563,214.452 106.675,211.667 L104.706,211.808 C104.564,213.43 103.58,214.86 101.764,214.972 C99.282,215.119 98.231,212.978 98.231,210.801 C98.194,208.579 99.179,206.356 101.653,206.201 C103.364,206.089 104.201,207.031 104.564,208.313 L106.601,208.201" fill="#0B0B09"/>
    <path d="M65.882,192.748 L62.156,181.023 L60.297,180.305 L56.083,190.126 L58.112,190.919 L59.179,188.141 L63.252,189.8 L64.149,192.748 L65.882,192.748 z M150.794,172.594 L153.631,170.935 C154.543,170.409 155.083,170.556 155.083,171.698 C155.083,172.675 154.431,173.608 153.631,174.097 L150.794,175.682 L150.794,172.594 z M150.794,177.105 L153.847,175.377 C154.867,174.778 155.528,175.038 155.528,176.171 C155.528,177.259 154.867,178.275 153.847,178.846 L150.794,180.616 L150.794,177.105 z M142.417,177.297 L144.098,181.438 L140.927,182.868 L142.417,177.297 z M161.712,165.926 C163.499,164.157 164.587,165.216 164.958,167.015 C165.283,168.793 164.838,171.349 163.016,173.118 C161.127,174.897 160.039,173.837 159.742,171.949 C159.38,170.186 159.816,167.698 161.712,165.926 M169.394,160.853 L171.98,158.852 C172.809,158.215 173.542,157.845 173.542,159.267 C173.542,160.393 172.994,161.415 172.016,162.275 L169.394,164.23 L169.394,160.853 z M61.208,182.72 L62.742,188.06 L59.645,186.785 L61.208,182.72 z M149.045,183.244 L153.593,180.616 C156.216,179.216 157.269,177.178 157.269,175.377 C157.269,173.874 156.579,173.194 155.378,173.571 C156.291,172.557 156.802,171.431 156.802,170.333 C156.802,168.451 155.631,168.231 153.847,169.207 L149.045,171.949 L149.045,183.244 z M137.652,189 L139.653,188.06 L140.528,184.637 L144.675,182.72 L145.912,185.126 L147.771,184.26 L143.104,175 L141.216,175.875 L137.652,189 z M128.771,192.431 L136.446,189.304 L136.446,187.578 L130.697,189.904 L130.697,180.349 L128.771,181.133 L128.771,192.431 z M161.379,164.542 C158.801,167.015 157.75,170.749 158.254,173.46 C158.728,176.171 160.691,176.926 163.238,174.439 C165.823,171.949 166.987,168.26 166.476,165.63 C165.971,162.882 164.01,162.089 161.379,164.542 M167.793,171.089 L169.394,169.844 L169.394,165.364 L171.758,163.489 C173.216,162.394 173.542,162.955 173.542,164.993 C173.542,165.474 173.542,166.112 173.801,166.422 L175.506,165.104 C175.18,164.919 175.03,163.859 175.03,162.585 C175.03,160.853 174.23,161.03 173.684,161.371 C173.979,161 175.18,159.46 175.18,157.422 C175.18,155.54 174.164,155.283 172.157,156.823 L167.793,160.283 L167.793,171.089 z M176.742,163.859 L182.564,158.511 L182.564,156.823 L178.164,160.889 L178.164,157.726 L182.166,154.067 L182.166,152.526 L178.164,156.177 L178.164,153.357 L182.461,149.326 L182.461,147.711 L176.742,152.949 L176.742,163.859 z M7.015,154.185 C7.052,156.979 8.466,159.267 10.215,160.512 C11.711,161.563 13.2,161.638 13.2,159.118 C13.2,157.955 12.696,156.289 11.711,155.201 C11.304,154.718 9.63,152.911 9.526,152.719 C9.015,152.112 8.651,151.4 8.651,150.616 C8.651,149.52 9.377,149.749 10.03,150.119 C10.941,150.8 11.564,151.816 11.63,153.357 L12.948,154.26 C12.948,151.933 11.63,149.749 10.03,148.578 C8.651,147.601 7.304,147.711 7.304,149.904 C7.304,151.096 7.704,152.57 8.978,153.962 L11.237,156.526 C11.564,156.942 11.852,157.504 11.852,158.364 C11.852,159.267 11.385,159.8 10.252,158.897 C9.2,158.171 8.326,156.898 8.326,155.126 L7.015,154.185 z M21.467,161.682 C21.282,159.194 19.904,156.823 18.044,155.653 C15.601,154.113 14.185,155.882 14.185,159.075 C14.185,162.319 15.601,165.926 18.044,167.475 C20.008,168.718 21.393,167.742 21.467,165.104 L20.082,164.201 C20.008,165.785 19.282,166.689 18.044,165.816 C16.334,164.727 15.571,162.127 15.571,159.985 C15.571,157.845 16.334,156.142 18.044,157.268 C19.208,158.022 19.785,159.341 20.044,160.816 L21.467,161.682 z M23.141,171.045 L24.778,172.178 L24.778,161.112 L23.141,159.985 L23.141,171.045 z M26.377,173.497 L32.971,177.934 L32.971,176.201 L27.941,172.861 L27.941,169.549 L32.571,172.557 L32.571,170.935 L27.941,167.934 L27.941,164.956 L32.897,168.26 L32.897,166.535 L26.377,162.275 L26.377,173.497 z M34.786,178.985 L36.459,180.038 L36.459,171.698 L40.682,182.571 L42.394,183.586 L42.394,172.141 L40.904,171.275 L40.904,179.637 L36.645,168.83 L34.786,167.742 L34.786,178.985 z M44.141,174.778 L47.06,176.245 L47.06,185.697 L48.941,186.785 L48.941,177.334 L51.964,178.808 L51.964,177.075 L44.141,173.118 L44.141,174.778 z M53.534,188.881 L55.422,189.756 L55.422,178.69 L53.534,177.785 L53.534,188.881" fill="#0B0B09"/>
    <path d="M188.371,137.594 C172.231,160.467 135.675,179.637 109.838,185.111 L126.275,195.17 C151.306,186.882 175.061,169.816 188.371,155.414 L188.371,137.594 z M108.267,199.727 C113.661,198.941 117.194,197.89 123.172,195.993 L108.267,186.764 L108.267,199.727 z M83.126,186.764 L68.186,195.993 C74.164,197.89 77.697,198.941 83.126,199.727 L83.126,186.764 z M2.955,155.414 C16.289,169.816 40.089,186.882 65.052,195.17 L81.482,185.111 C55.653,179.637 19.104,160.467 2.955,137.594 L2.955,155.414 z M66.111,212.918 C74.052,216.526 84.408,218.941 95.66,218.941 C106.956,218.941 117.313,216.526 125.215,212.918 L125.215,197.808 C115.268,200.971 105.067,202.78 95.66,202.78 C86.296,202.78 76.053,200.971 66.111,197.808 L66.111,212.918 z M168.424,175.616 L166.134,177.238 C161.187,180.668 155.898,183.978 150.394,186.986 L150.394,193.253 C150.394,193.253 160.35,186.882 164.898,183.683 C167.63,181.719 168.254,179.948 168.395,177.238 L168.424,175.616 z M20.837,152.638 L20.852,135.83 L4.926,135.86 C9.615,142.045 14.978,147.622 20.837,152.638 M40.223,166.289 C39.719,164.66 38.912,163.104 37.689,161.223 L22.963,139.104 L22.963,154.414 C28.371,158.83 34.178,162.779 40.223,166.289 M22.926,175.6 L22.993,177.238 C23.074,179.948 23.733,181.719 26.459,183.683 C30.985,186.882 40.963,193.253 40.963,193.253 L40.963,186.971 C35.482,183.963 30.201,180.66 25.252,177.238 L22.926,175.6 z M170.476,135.83 L170.476,152.66 C176.35,147.652 181.736,142.061 186.438,135.86 L170.476,135.83 z M148.972,167.519 C149.208,164.778 150.187,162.497 152.335,158.956 C155.424,153.95 169.424,133.608 169.424,133.608 L190.513,133.608 L190.513,156.365 C185.372,162.001 178.505,168.156 170.579,174.037 C170.579,174.037 170.579,176.823 170.513,177.238 C170.253,181.341 168.942,183.49 166.617,185.111 C163.261,187.408 156.698,192.083 148.395,196.757 L148.395,188.068 C141.594,191.675 134.49,194.809 127.326,197.164 L127.326,214.23 C118.549,218.231 108.787,220.831 95.66,220.831 C82.615,220.831 72.778,218.231 64.03,214.23 L64.03,197.164 C56.867,194.793 49.756,191.654 42.927,188.031 L42.927,196.757 C34.66,192.083 28.142,187.408 24.748,185.111 C22.422,183.49 21.067,181.341 20.852,177.238 L20.808,174.06 C12.837,168.171 6.001,162.008 0.844,156.365 L0.844,133.608 L21.978,133.608 C21.978,133.608 35.971,153.95 39.067,158.956 C41.222,162.541 42.179,164.844 42.593,167.638 C49.296,171.356 56.268,174.542 63.341,177.238 C70.556,179.986 77.882,182.245 85.134,184.023 L85.134,199.956 C88.489,200.252 92.934,200.631 95.66,200.631 C98.394,200.631 102.837,200.252 106.23,199.956 L106.23,184.023 C113.482,182.245 120.808,179.986 128.022,177.238 C135.171,174.511 142.223,171.283 148.972,167.519 M168.395,154.401 L168.395,139.104 L153.712,161.223 C152.467,163.104 151.654,164.653 151.149,166.275 C157.194,162.764 162.987,158.815 168.395,154.401" fill="#0B0B09"/>
    <path d="M24.023,92.57 C24.023,128.824 55.83,163.555 95.66,174.934 C135.572,163.555 167.379,128.824 167.379,92.57 L167.379,5.043 L24.023,5.043 L24.023,92.57 z M169.461,93.103 C169.461,130.364 135.936,166.119 95.66,177.193 C55.468,166.119 21.94,130.364 21.94,93.103 L21.94,2.862 L169.461,2.862 L169.461,93.103" fill="#0B0B09"/>
    <path d="M60.275,72.189 L56.964,72.074 C56.964,73.203 57.512,73.992 58.497,73.992 C59.475,73.992 60.275,73.203 60.275,72.189 M60.275,69.852 C60.275,68.873 59.475,68.008 58.497,68.008 C57.512,68.008 56.964,68.873 56.964,69.852 L60.275,69.852 z M112.253,59.674 C114.12,44.259 119.948,34.125 132.141,26.859 L59.223,26.859 C71.364,34.118 77.186,44.237 79.386,59.611 C81.719,59.181 84.364,58.551 87.571,58.551 C91.579,58.551 94.386,59.906 95.66,62.425 C96.653,59.906 99.741,58.551 103.787,58.551 C107.134,58.551 109.845,59.241 112.253,59.674 M122.178,96.978 C132.912,100.063 140.535,106.056 146.319,116.349 L146.319,40.951 C140.187,51.888 131.993,57.851 120.481,60.711 L122.408,62.019 L122.408,68.237 L132.068,68.23 C134.587,68.23 136.224,68.723 136.224,70.83 C136.224,73.318 134.949,74.106 132.608,74.106 L122.408,74.106 L122.408,84.203 L132.068,84.203 C134.587,84.203 136.224,84.658 136.224,86.803 C136.224,89.256 134.949,90.044 132.608,90.044 L122.408,90.044 L122.408,96.978 L122.178,96.978 z M77.786,97.407 C59.919,100.148 49.171,107.914 43.045,126.823 L43.045,30.514 C49.141,49.332 59.897,56.919 77.615,59.762 C74.482,41.778 67.082,30.977 49.127,24.673 L142.201,24.673 C124.29,30.977 116.852,41.762 114.082,59.726 C131.661,56.859 142.313,49.259 148.395,30.514 L148.395,126.823 C142.297,108.021 131.601,100.238 113.928,97.456 C116.579,116.016 123.919,127.252 142.201,133.608 L49.089,133.608 C67.416,127.252 74.764,115.992 77.786,97.407 M80.978,96.978 L79.579,97.152 C77.534,113.337 71.734,123.978 59.223,131.49 L132.141,131.49 C119.609,123.993 113.8,113.353 112.068,97.189 L110.424,96.978 L103.646,96.978 C100.252,96.978 100.653,98.674 95.66,98.674 C90.675,98.674 91.105,96.978 87.786,96.978 L80.978,96.978 z M69.186,90.044 L61.482,90.044 C60.971,91.066 59.734,91.744 58.497,91.744 C56.704,91.744 55.142,90.197 55.142,88.315 C53.978,88.011 53.534,87.525 53.534,86.919 C53.534,86.318 53.978,85.825 54.556,85.825 C55.142,83.682 56.704,82.133 58.497,82.133 C59.837,82.133 61.008,83.004 61.482,84.203 L69.134,84.203 L69.045,74.106 L61.482,74.106 C60.971,75.047 59.734,75.771 58.497,75.771 C56.704,75.771 55.142,74.259 55.142,72.415 C53.978,72.074 53.534,71.543 53.534,71.022 C53.534,70.345 53.978,69.852 54.556,69.852 C55.142,67.744 56.704,66.195 58.497,66.195 C59.837,66.195 61.008,67.022 61.482,68.266 L69.001,68.266 L68.948,62.019 L71.001,60.608 C59.201,57.7 51.164,51.756 45.082,40.951 L45.082,116.349 C50.89,106.056 58.497,100.063 69.238,96.978 L69.186,90.044 z M60.275,88.011 L56.964,88.011 C56.964,89.141 57.512,90.007 58.497,90.007 C59.475,90.007 60.275,89.141 60.275,88.126 L60.275,88.011 z M56.964,85.825 L60.275,85.825 C60.275,84.774 59.475,83.984 58.497,83.984 C57.512,83.984 56.964,84.774 56.964,85.825" fill="#0B0B09"/>
    <path d="M116.29,91.292 L105.867,91.292 C100.911,91.292 100.111,91.481 96.682,92.914 L96.682,65.555 C96.682,62.581 99.741,60.778 103.787,60.778 C109.763,60.778 112.972,62.732 116.29,62.089 L116.29,91.292" fill="#FFFFFE"/>
    <path d="M94.608,92.911 C91.179,91.552 90.415,91.289 85.497,91.289 L75.001,91.289 L75.001,62.092 C78.386,62.729 81.593,60.771 87.571,60.771 C91.579,60.771 94.608,62.577 94.608,65.558 L94.608,92.911" fill="#FFFFFE"/>
    <path d="M95.66,96.719 C100.653,96.719 100.252,94.837 103.571,94.837 L120.409,94.837 L120.409,63.485 L118.438,62.051 L118.438,93.137 L104.771,93.137 C98.756,93.137 100.764,95.018 95.66,95.018 C91.179,95.018 92.934,93.137 86.593,93.137 L72.919,93.137 L72.919,62.051 L70.919,63.485 L70.919,94.837 L87.786,94.837 C91.105,94.837 90.675,96.719 95.66,96.719" fill="#FFFFFE"/>
  </g>
</svg>
